<svg width="191" height="151" viewBox="0 0 191 151" fill="none" xmlns="http://www.w3.org/2000/svg">
<path d="M17.95 9.79999C18.25 9.78999 18.56 9.75999 18.85 9.71999L18.87 9.94999C18.16 10.08 17.37 10.08 16.79 10.08L16.75 9.81998C17.02 9.81998 17.33 9.81999 17.65 9.80999V9.44999C17.27 9.39999 17.01 9.16999 17.01 8.83999C17.01 8.45999 17.33 8.21999 17.8 8.21999C18.27 8.21999 18.59 8.45999 18.59 8.83999C18.59 9.16999 18.34 9.39999 17.95 9.44999V9.79999ZM18.79 8.01999H16.79V7.77999H17.64V7.37999H17.95V7.77999H18.79V8.01999ZM17.8 9.20999C18.1 9.20999 18.3 9.05999 18.3 8.82999C18.3 8.59999 18.1 8.44999 17.8 8.44999C17.5 8.44999 17.3 8.59999 17.3 8.82999C17.3 9.05999 17.5 9.20999 17.8 9.20999ZM19.87 9.03999H19.35V10.7H19.04V7.35999H19.35V8.77998H19.87V9.03999Z" fill="black"/>
<path d="M21.99 9.22001C21.61 9.10001 21.32 8.83 21.18 8.5C21.04 8.88 20.74 9.18 20.34 9.32L20.18 9.08C20.68 8.91 21.02 8.47 21.02 7.99V7.86H20.27V7.61H22.06V7.86H21.32V7.99C21.32 8.43 21.64 8.82 22.13 8.98L21.98 9.22001H21.99ZM22.83 10.08C22.83 10.47 22.41 10.7 21.73 10.7C21.05 10.7 20.63 10.47 20.63 10.08C20.63 9.69 21.05 9.47001 21.73 9.47001C22.41 9.47001 22.83 9.7 22.83 10.08ZM22.52 10.08C22.52 9.85 22.22 9.71 21.73 9.71C21.24 9.71 20.93 9.85 20.93 10.08C20.93 10.31 21.23 10.46 21.73 10.46C22.23 10.46 22.52 10.32 22.52 10.08ZM23.28 8.21V8.47H22.78V9.39001H22.47V7.38H22.78V8.22H23.28V8.21Z" fill="black"/>
<path d="M25.5 9.01C25.12 8.88001 24.81 8.6 24.66 8.24C24.51 8.62 24.21 8.93 23.81 9.07L23.65 8.83C24.15 8.66 24.5 8.21 24.5 7.72V7.47H24.81V7.72C24.81 8.18 25.16 8.60001 25.66 8.76L25.51 9L25.5 9.01ZM26.48 10.44V10.68H24.21V9.85001H26.06V9.52001H24.2V9.28H26.36V10.08H24.51V10.44H26.48ZM26.36 9.11H26.05V7.38H26.36V9.11Z" fill="black"/>
<path d="M84.21 39.88V40.13H81.18V39.88H82.54V39.02H81.57V37.48H83.83V37.73H81.87V38.78H83.86V39.03H82.84V39.89H84.21V39.88Z" fill="black"/>
<path d="M85.78 38.1C85.78 38.71 86.16 39.31 86.64 39.54L86.46 39.78C86.08 39.59 85.77 39.19 85.62 38.72C85.47 39.22 85.17 39.64 84.79 39.84L84.6 39.6C85.08 39.36 85.46 38.71 85.46 38.1V37.5H85.77V38.1H85.78ZM87.36 37.21V40.55H87.05V38.59H86.28V38.34H87.05V37.21H87.36Z" fill="black"/>
<path d="M90.13 39.06C89.44 39.18 88.64 39.19 88.05 39.19L88.02 38.94C88.23 38.94 88.47 38.94 88.73 38.94V38.22H89.03V38.93C89.39 38.92 89.77 38.89 90.11 38.84L90.13 39.06ZM89.49 38.6C89.57 38.22 89.58 37.93 89.58 37.72H88.22V37.47H89.88V37.64C89.88 37.86 89.88 38.19 89.79 38.63L89.49 38.6ZM88.83 40.22H90.74V40.47H88.52V39.49H88.83V40.22ZM91.12 38.29V38.54H90.64V39.72H90.33V37.2H90.64V38.29H91.12Z" fill="black"/>
<path d="M35.19 141.31C35.8 141.31 36.63 141.31 37.36 141.19L37.39 141.42C36.64 141.56 35.83 141.57 35.23 141.57L35.19 141.31ZM37.14 139.98C37.14 140.45 36.77 140.77 36.25 140.77C35.73 140.77 35.36 140.45 35.36 139.98C35.36 139.51 35.74 139.19 36.25 139.19C36.76 139.19 37.14 139.51 37.14 139.98ZM35.65 139.98C35.65 140.29 35.9 140.51 36.25 140.51C36.6 140.51 36.85 140.29 36.85 139.98C36.85 139.67 36.6 139.46 36.25 139.46C35.9 139.46 35.65 139.67 35.65 139.98ZM37.88 138.95V142.3H37.57V138.95H37.88Z" fill="black"/>
<path d="M39.72 139.97C39.72 140.5 40.1 141.09 40.58 141.32L40.41 141.57C40.04 141.38 39.72 140.99 39.57 140.55C39.42 141.04 39.09 141.46 38.72 141.66L38.54 141.42C39.02 141.18 39.42 140.55 39.42 139.98V139.56H38.66V139.31H40.47V139.56H39.73V139.98L39.72 139.97ZM41.72 140.55H41.17V142.29H40.86V138.95H41.17V140.29H41.72V140.55Z" fill="black"/>
<path d="M107.99 141.31C108.6 141.31 109.43 141.31 110.16 141.19L110.19 141.42C109.44 141.56 108.63 141.57 108.03 141.57L107.99 141.31ZM109.94 139.98C109.94 140.45 109.57 140.77 109.05 140.77C108.53 140.77 108.16 140.45 108.16 139.98C108.16 139.51 108.54 139.19 109.05 139.19C109.56 139.19 109.94 139.51 109.94 139.98ZM108.45 139.98C108.45 140.29 108.7 140.51 109.05 140.51C109.4 140.51 109.65 140.29 109.65 139.98C109.65 139.67 109.4 139.46 109.05 139.46C108.7 139.46 108.45 139.67 108.45 139.98ZM110.68 138.95V142.3H110.37V138.95H110.68Z" fill="black"/>
<path d="M112.52 139.97C112.52 140.5 112.9 141.09 113.38 141.32L113.21 141.57C112.84 141.38 112.52 140.99 112.37 140.55C112.22 141.04 111.89 141.46 111.52 141.66L111.34 141.42C111.82 141.18 112.22 140.55 112.22 139.98V139.56H111.46V139.31H113.27V139.56H112.53V139.98L112.52 139.97ZM114.52 140.55H113.97V142.29H113.66V138.95H113.97V140.29H114.52V140.55Z" fill="black"/>
<path d="M148.65 137.08H149.92V139.13H148.65V137.08ZM148.94 138.89H149.64V137.32H148.94V138.89ZM151.37 136.69V140.03H151.08V138.27H150.63V139.87H150.34V136.77H150.63V138.02H151.08V136.7H151.37V136.69Z" fill="black"/>
<path d="M153.77 138.54C153.4 138.41 153.11 138.13 152.97 137.78C152.82 138.16 152.52 138.47 152.13 138.61L151.97 138.37C152.47 138.19 152.81 137.75 152.81 137.28V137.15H152.07V136.9H153.85V137.15H153.12V137.27C153.12 137.71 153.45 138.12 153.93 138.29L153.78 138.53L153.77 138.54ZM152.53 138.81H154.7V139.99H152.53V138.81ZM152.83 139.74H154.4V139.05H152.83V139.74ZM154.7 136.69V138.65H154.39V137.79H153.73V137.54H154.39V136.7H154.7V136.69Z" fill="black"/>
<path d="M85.79 126.33H86.79" stroke="#231F20" stroke-width="0.5" stroke-miterlimit="10" stroke-linecap="round"/>
<path d="M88.68 126.33H102.86" stroke="#231F20" stroke-width="0.5" stroke-miterlimit="10" stroke-linecap="round"/>
<path d="M103.81 126.33H104.81" stroke="#231F20" stroke-width="0.5" stroke-miterlimit="10" stroke-linecap="round"/>
<path d="M104.81 126.33V150.16H85.79V126.33" stroke="#231F20" stroke-width="0.5" stroke-miterlimit="10"/>
<path d="M104.52 93.1H123.12" stroke="#231F20" stroke-width="0.5" stroke-miterlimit="10"/>
<path d="M104.52 112.12V111.12" stroke="#231F20" stroke-width="0.5" stroke-miterlimit="10" stroke-linecap="round"/>
<path d="M104.52 109.22V95.04" stroke="#231F20" stroke-width="0.5" stroke-miterlimit="10" stroke-linecap="round"/>
<path d="M104.52 94.1V93.1" stroke="#231F20" stroke-width="0.5" stroke-miterlimit="10" stroke-linecap="round"/>
<path d="M135.2 93.1V112.12H104.52" stroke="#231F20" stroke-width="0.5" stroke-miterlimit="10"/>
<path d="M32.23 126.84H8.91V150.16H32.23V126.84Z" stroke="#231F20" stroke-width="0.5" stroke-miterlimit="10"/>
<path d="M44.57 130.97H32.22V150.16H44.57V130.97Z" stroke="#231F20" stroke-width="0.5" stroke-miterlimit="10"/>
<path d="M117.58 130.97H104.81V150.16H117.58V130.97Z" stroke="#231F20" stroke-width="0.5" stroke-miterlimit="10"/>
<path d="M168.16 117.35V150.21H135.36V130.97H147.2V117.35H168.16Z" stroke="#231F20" stroke-width="0.5" stroke-miterlimit="10"/>
<path d="M0 150.16H8.91H190.6V93.1H134.74" stroke="#231F20" stroke-width="0.5" stroke-miterlimit="10"/>
<path d="M18.5 29.52V17.68H37.6V9.34003" stroke="#231F20" stroke-width="0.5" stroke-miterlimit="10"/>
<path d="M37.08 68.65H18.5V43.65" stroke="#231F20" stroke-width="0.5" stroke-miterlimit="10"/>
<path d="M56.62 9.34003H67.73V68.65H52.4" stroke="#231F20" stroke-width="0.5" stroke-miterlimit="10"/>
<path d="M104.52 9.34003H67.73V68.65H104.52V9.34003Z" stroke="#231F20" stroke-width="0.5" stroke-miterlimit="10"/>
<path d="M37.6 17.68V9.34003" stroke="#231F20" stroke-width="0.5" stroke-miterlimit="10"/>
<path d="M56.62 9.34003V17.68" stroke="#231F20" stroke-width="0.5" stroke-miterlimit="10"/>
<path d="M37.6 1H5.84V17.68H37.6V1Z" stroke="#231F20" stroke-width="0.5" stroke-miterlimit="10"/>
<path d="M52.34 12.7H41.88" stroke="#231F20" stroke-width="0.5" stroke-miterlimit="10"/>
<path d="M52.34 6.22998H41.88" stroke="#231F20" stroke-width="0.5" stroke-miterlimit="10"/>
<path d="M47.11 17.68V1.23999" stroke="#231F20" stroke-width="0.5" stroke-miterlimit="10"/>
<path d="M25.8 141.73H15.33" stroke="#231F20" stroke-width="0.5" stroke-miterlimit="10"/>
<path d="M25.8 135.26H15.33" stroke="#231F20" stroke-width="0.5" stroke-miterlimit="10"/>
<path d="M20.57 146.72V130.28" stroke="#231F20" stroke-width="0.5" stroke-miterlimit="10"/>
<path d="M100.78 141.73H90.32" stroke="#231F20" stroke-width="0.5" stroke-miterlimit="10"/>
<path d="M100.78 135.26H90.32" stroke="#231F20" stroke-width="0.5" stroke-miterlimit="10"/>
<path d="M95.55 146.72V130.28" stroke="#231F20" stroke-width="0.5" stroke-miterlimit="10"/>
<path d="M114.35 107.84V97.37" stroke="#231F20" stroke-width="0.5" stroke-miterlimit="10"/>
<path d="M120.81 107.84V97.37" stroke="#231F20" stroke-width="0.5" stroke-miterlimit="10"/>
<path d="M109.36 102.61H125.8" stroke="#231F20" stroke-width="0.5" stroke-miterlimit="10"/>
</svg>
