<svg width="192" height="193" viewBox="0 0 192 193" fill="none" xmlns="http://www.w3.org/2000/svg">
<path d="M152.52 180.12H153.13V178.08H152.64V177.86C152.88 177.82 153.06 177.75 153.21 177.67H153.47V180.13H154.02V180.41H152.52V180.13V180.12Z" fill="black"/>
<path d="M157.5 179.95V180.2H154.47V179.95H155.21V178.84H155.51V179.95H156.04V178.84H156.34V179.95H157.5ZM156.84 177.91H154.78V177.66H157.14V178.03C157.14 178.46 157.14 178.89 157.02 179.52L156.72 179.48C156.84 178.88 156.84 178.44 156.84 178.03V177.91Z" fill="black"/>
<path d="M160.96 179.52H159.58V180.67H159.27V179.52H157.91V179.27H160.95V179.52H160.96ZM160.57 178.81H158.3V177.51H160.57V178.81ZM160.27 177.75H158.61V178.56H160.27V177.75Z" fill="black"/>
<path d="M163.24 178.96C162.86 178.83 162.55 178.54 162.4 178.19C162.25 178.58 161.94 178.88 161.55 179.02L161.39 178.78C161.89 178.6 162.24 178.16 162.24 177.67V177.42H162.55V177.67C162.55 178.13 162.9 178.55 163.4 178.72L163.25 178.96H163.24ZM164.23 180.39V180.63H161.95V179.8H163.81V179.47H161.94V179.23H164.11V180.04H162.25V180.4H164.22L164.23 180.39ZM164.11 179.06H163.8V177.32H164.11V179.06Z" fill="black"/>
<path d="M50.29 27.87V11.4H142.3V30.42H105.81V127.06H150.39V139.82H167.78V146.15H191.6V184.12H177.48V166.08H139.27V184.12H1V127.06H86.79V106.89" stroke="#231F20" stroke-width="0.5" stroke-miterlimit="10"/>
<path d="M86.79 41.53V84.17H67.77V100.85H86.79" stroke="#231F20" stroke-width="0.5" stroke-miterlimit="10"/>
<path d="M86.79 127.06H50.29V11.4H142.3V127.06H105.81" stroke="#231F20" stroke-width="0.5" stroke-miterlimit="10"/>
<path d="M105.81 160.3H86.79V184.13H105.81V160.3Z" stroke="#231F20" stroke-width="0.5" stroke-miterlimit="10"/>
<path d="M33.22 160.3H1V184.13H33.22V160.3Z" stroke="#231F20" stroke-width="0.5" stroke-miterlimit="10"/>
<path d="M55.18 160.3H33.22V184.13H55.18V160.3Z" stroke="#231F20" stroke-width="0.5" stroke-miterlimit="10"/>
<path d="M86.82 160.3H55.18V184.13H86.82V160.3Z" stroke="#231F20" stroke-width="0.5" stroke-miterlimit="10"/>
<path d="M139.27 160.3H105.81V184.13H139.27V160.3Z" stroke="#231F20" stroke-width="0.5" stroke-miterlimit="10"/>
<path d="M177.48 166.08H139.27V191.91H177.48V166.08Z" stroke="#231F20" stroke-width="0.5" stroke-miterlimit="10"/>
<path d="M167.78 120.53H150.39V139.82H167.78V120.53Z" stroke="#231F20" stroke-width="0.5" stroke-miterlimit="10"/>
<path d="M86.79 106.89H50.29V127.06H86.79V106.89Z" stroke="#231F20" stroke-width="0.5" stroke-miterlimit="10"/>
<path d="M86.79 69.23H50.29V84.17H86.79V69.23Z" stroke="#231F20" stroke-width="0.5" stroke-miterlimit="10"/>
<path d="M86.79 54.3H50.29V69.24H86.79V54.3Z" stroke="#231F20" stroke-width="0.5" stroke-miterlimit="10"/>
<path d="M86.79 41.53H50.29V54.3H86.79V41.53Z" stroke="#231F20" stroke-width="0.5" stroke-miterlimit="10"/>
<path d="M86.79 27.87H65.39V41.53H86.79V27.87Z" stroke="#231F20" stroke-width="0.5" stroke-miterlimit="10"/>
<path d="M65.39 27.87H50.29V41.53H65.39V27.87Z" stroke="#231F20" stroke-width="0.5" stroke-miterlimit="10"/>
<path d="M50.29 27.87H50.28V41.53H50.29V27.87Z" stroke="#231F20" stroke-width="0.5" stroke-miterlimit="10"/>
<path d="M142.31 62.97H105.81V73.65H142.31V62.97Z" stroke="#231F20" stroke-width="0.5" stroke-miterlimit="10"/>
<path d="M142.31 86.98H105.81V103.58H142.31V86.98Z" stroke="#231F20" stroke-width="0.5" stroke-miterlimit="10"/>
<path d="M142.31 115.32H105.81V127.06H142.31V115.32Z" stroke="#231F20" stroke-width="0.5" stroke-miterlimit="10"/>
<path d="M142.31 103.58H105.81V115.32H142.31V103.58Z" stroke="#231F20" stroke-width="0.5" stroke-miterlimit="10"/>
<path d="M142.31 73.66H105.81V86.98H142.31V73.66Z" stroke="#231F20" stroke-width="0.5" stroke-miterlimit="10"/>
<path d="M142.31 1H105.81V11.4H142.31V1Z" stroke="#231F20" stroke-width="0.5" stroke-miterlimit="10"/>
<path d="M191.6 120.53H167.78V146.15H191.6V120.53Z" stroke="#231F20" stroke-width="0.5" stroke-miterlimit="10"/>
<path d="M67.77 84.17H50.29V95.66H67.77V84.17Z" stroke="#231F20" stroke-width="0.5" stroke-miterlimit="10"/>
<path d="M67.77 95.66H50.29V106.89H67.77V95.66Z" stroke="#231F20" stroke-width="0.5" stroke-miterlimit="10"/>
<path d="M176.01 134.11C176.31 134.1 176.62 134.07 176.91 134.03L176.93 134.26C176.21 134.39 175.42 134.39 174.84 134.39L174.8 134.13C175.07 134.13 175.38 134.13 175.71 134.12V133.75C175.32 133.7 175.07 133.47 175.07 133.14C175.07 132.76 175.4 132.52 175.86 132.52C176.32 132.52 176.65 132.76 176.65 133.14C176.65 133.47 176.4 133.7 176.01 133.75V134.1V134.11ZM176.85 132.32H174.85V132.08H175.7V131.68H176.01V132.08H176.85V132.32ZM175.85 133.52C176.15 133.52 176.35 133.37 176.35 133.14C176.35 132.91 176.15 132.76 175.85 132.76C175.55 132.76 175.35 132.91 175.35 133.14C175.35 133.37 175.55 133.52 175.85 133.52ZM177.93 133.35H177.41V135.02H177.1V131.67H177.41V133.09H177.93V133.35Z" fill="black"/>
<path d="M180.07 133.53C179.69 133.41 179.4 133.14 179.26 132.81C179.12 133.19 178.82 133.49 178.42 133.63L178.26 133.39C178.76 133.21 179.1 132.78 179.1 132.3V132.17H178.35V131.92H180.15V132.17H179.41V132.3C179.41 132.74 179.73 133.13 180.22 133.29L180.07 133.53ZM180.91 134.4C180.91 134.79 180.49 135.02 179.81 135.02C179.13 135.02 178.7 134.79 178.7 134.4C178.7 134.01 179.12 133.78 179.81 133.78C180.5 133.78 180.91 134.01 180.91 134.4ZM180.6 134.4C180.6 134.16 180.3 134.03 179.8 134.03C179.3 134.03 179 134.17 179 134.4C179 134.63 179.3 134.78 179.8 134.78C180.3 134.78 180.6 134.64 180.6 134.4ZM181.37 132.52V132.78H180.87V133.7H180.56V131.68H180.87V132.52H181.37Z" fill="black"/>
<path d="M183.6 133.31C183.22 133.18 182.91 132.89 182.76 132.54C182.61 132.93 182.3 133.23 181.91 133.37L181.75 133.13C182.25 132.95 182.6 132.51 182.6 132.02V131.77H182.91V132.02C182.91 132.48 183.26 132.9 183.76 133.07L183.61 133.31H183.6ZM184.59 134.74V134.98H182.31V134.15H184.17V133.82H182.3V133.58H184.47V134.39H182.61V134.75H184.58L184.59 134.74ZM184.47 133.41H184.16V131.67H184.47V133.41Z" fill="black"/>
<path d="M55.94 101.42C55.58 101.29 55.29 101.01 55.14 100.67C55 101.06 54.7 101.37 54.31 101.52L54.15 101.28C54.66 101.1 54.98 100.64 54.98 100.13V99.79H55.29V100.16C55.29 100.61 55.62 101.03 56.1 101.2L55.94 101.44V101.42ZM56.8 102.34C56.8 102.73 56.38 102.95 55.7 102.95C55.02 102.95 54.59 102.73 54.59 102.34C54.59 101.95 55.01 101.73 55.7 101.73C56.39 101.73 56.8 101.95 56.8 102.34ZM56.49 102.34C56.49 102.1 56.19 101.97 55.69 101.97C55.19 101.97 54.89 102.11 54.89 102.34C54.89 102.57 55.19 102.71 55.69 102.71C56.19 102.71 56.49 102.57 56.49 102.34ZM57.26 100.47V100.72H56.76V101.63H56.45V99.6H56.76V100.46H57.26V100.47Z" fill="black"/>
<path d="M59.58 101.2C59.12 101.29 58.72 101.32 58.02 101.32H57.76V99.83H59.24V100.08H58.07V101.07C58.73 101.07 59.11 101.04 59.55 100.96L59.58 101.21V101.2ZM58.1 101.69H60.2V102.92H58.1V101.69ZM58.4 102.67H59.9V101.93H58.4V102.67ZM60.7 100.68H60.2V101.51H59.89V99.61H60.2V100.43H60.7V100.68Z" fill="black"/>
<path d="M62.93 101.24C62.55 101.11 62.24 100.82 62.09 100.47C61.94 100.86 61.63 101.16 61.24 101.3L61.08 101.06C61.58 100.88 61.93 100.44 61.93 99.95V99.7H62.24V99.95C62.24 100.41 62.59 100.83 63.09 101L62.94 101.24H62.93ZM63.92 102.67V102.91H61.64V102.08H63.5V101.75H61.63V101.51H63.8V102.32H61.94V102.68H63.91L63.92 102.67ZM63.8 101.34H63.49V99.6H63.8V101.34Z" fill="black"/>
<path d="M55.35 88.1C55.65 88.09 55.96 88.06 56.25 88.02L56.27 88.25C55.55 88.38 54.76 88.38 54.18 88.38L54.14 88.12C54.41 88.12 54.72 88.12 55.05 88.11V87.74C54.66 87.69 54.41 87.46 54.41 87.13C54.41 86.75 54.74 86.51 55.2 86.51C55.66 86.51 55.99 86.75 55.99 87.13C55.99 87.46 55.74 87.69 55.35 87.74V88.09V88.1ZM56.19 86.31H54.19V86.07H55.04V85.67H55.35V86.07H56.19V86.31ZM55.19 87.51C55.49 87.51 55.69 87.36 55.69 87.13C55.69 86.9 55.49 86.75 55.19 86.75C54.89 86.75 54.69 86.9 54.69 87.13C54.69 87.36 54.89 87.51 55.19 87.51ZM57.27 87.34H56.75V89.01H56.44V85.66H56.75V87.08H57.27V87.34Z" fill="black"/>
<path d="M59.42 87.53C59.04 87.41 58.75 87.14 58.61 86.81C58.47 87.19 58.17 87.49 57.77 87.63L57.61 87.39C58.11 87.21 58.45 86.78 58.45 86.3V86.17H57.7V85.92H59.5V86.17H58.76V86.3C58.76 86.74 59.08 87.13 59.57 87.29L59.42 87.53ZM60.26 88.4C60.26 88.79 59.84 89.02 59.16 89.02C58.48 89.02 58.05 88.79 58.05 88.4C58.05 88.01 58.47 87.78 59.16 87.78C59.85 87.78 60.26 88.01 60.26 88.4ZM59.95 88.4C59.95 88.16 59.65 88.03 59.15 88.03C58.65 88.03 58.35 88.17 58.35 88.4C58.35 88.63 58.65 88.78 59.15 88.78C59.65 88.78 59.95 88.64 59.95 88.4ZM60.72 86.52V86.78H60.22V87.7H59.91V85.68H60.22V86.52H60.72Z" fill="black"/>
<path d="M62.94 87.31C62.56 87.18 62.25 86.89 62.1 86.54C61.95 86.93 61.64 87.23 61.25 87.37L61.09 87.13C61.59 86.95 61.94 86.51 61.94 86.02V85.77H62.25V86.02C62.25 86.48 62.6 86.9 63.1 87.07L62.95 87.31H62.94ZM63.93 88.74V88.98H61.65V88.15H63.51V87.82H61.64V87.58H63.81V88.39H61.95V88.75H63.92L63.93 88.74ZM63.81 87.41H63.5V85.67H63.81V87.41Z" fill="black"/>
<path d="M56.5 92.26C56.5 91.53 56.71 90.92 57.05 90.37L57.26 90.47C56.93 91.01 56.78 91.63 56.78 92.27C56.78 92.91 56.93 93.54 57.26 94.07L57.05 94.17C56.71 93.61 56.5 93.01 56.5 92.27V92.26Z" fill="black"/>
<path d="M59.61 91.84C59.05 91.95 58.54 91.99 58.04 91.99H57.78V90.52H58.08V91.73C58.55 91.73 59.03 91.69 59.57 91.59L59.61 91.84ZM58.11 92.43H60.22V93.66H58.11V92.43ZM58.41 93.41H59.92V92.68H58.41V93.41ZM60.72 91.38H60.22V92.25H59.91V90.35H60.22V91.12H60.72V91.37V91.38Z" fill="black"/>
<path d="M61.03 94.06C61.35 93.53 61.51 92.9 61.51 92.26C61.51 91.62 61.35 91 61.03 90.46L61.24 90.36C61.59 90.92 61.79 91.52 61.79 92.25C61.79 92.98 61.58 93.59 61.24 94.15L61.03 94.05V94.06Z" fill="black"/>
<path d="M157.66 130.4C157.28 130.28 156.99 130.04 156.84 129.72C156.7 130.08 156.4 130.35 156 130.49L155.85 130.25C156.35 130.1 156.68 129.69 156.68 129.24V129.17H155.94V128.92H156.68V128.5H156.99V128.92H157.73V129.17H156.99V129.24C156.99 129.65 157.32 130.02 157.81 130.16L157.66 130.4ZM158.48 131.26C158.48 131.65 158.06 131.86 157.38 131.86C156.7 131.86 156.27 131.64 156.27 131.26C156.27 130.88 156.69 130.65 157.38 130.65C158.07 130.65 158.48 130.87 158.48 131.26ZM158.17 131.26C158.17 131.03 157.87 130.89 157.37 130.89C156.87 130.89 156.57 131.02 156.57 131.26C156.57 131.5 156.87 131.63 157.37 131.63C157.87 131.63 158.17 131.5 158.17 131.26ZM158.94 129.38V129.63H158.44V130.56H158.13V128.5H158.44V129.37H158.94V129.38Z" fill="black"/>
<path d="M162.32 131.15V131.4H159.29V131.15H160.47V129.95H160.78V131.15H162.33H162.32ZM161.65 129.11H159.61V128.86H161.96V129.19C161.96 129.61 161.96 130.06 161.83 130.74L161.52 130.71C161.65 130.07 161.65 129.6 161.65 129.19V129.11Z" fill="black"/>
<path d="M120.69 173.17V173.42H117.66V173.17H118.4V172.06H118.7V173.17H119.23V172.06H119.53V173.17H120.69ZM120.03 171.13H117.97V170.88H120.33V171.25C120.33 171.68 120.33 172.11 120.21 172.74L119.91 172.7C120.03 172.1 120.03 171.66 120.03 171.25V171.13Z" fill="black"/>
<path d="M122.9 172.4C122.52 172.28 122.23 172.01 122.09 171.68C121.95 172.06 121.65 172.36 121.25 172.5L121.09 172.26C121.59 172.08 121.93 171.65 121.93 171.17V171.04H121.18V170.79H122.98V171.04H122.24V171.17C122.24 171.61 122.56 172 123.05 172.16L122.9 172.4ZM123.74 173.27C123.74 173.66 123.32 173.89 122.64 173.89C121.96 173.89 121.53 173.66 121.53 173.27C121.53 172.88 121.95 172.65 122.64 172.65C123.33 172.65 123.74 172.88 123.74 173.27ZM123.43 173.27C123.43 173.03 123.13 172.9 122.63 172.9C122.13 172.9 121.83 173.04 121.83 173.27C121.83 173.5 122.13 173.65 122.63 173.65C123.13 173.65 123.43 173.51 123.43 173.27ZM124.2 171.39V171.65H123.7V172.57H123.39V170.55H123.7V171.39H124.2Z" fill="black"/>
<path d="M126.43 172.18C126.05 172.05 125.74 171.76 125.59 171.41C125.44 171.8 125.13 172.1 124.74 172.24L124.58 172C125.08 171.82 125.43 171.38 125.43 170.89V170.64H125.74V170.89C125.74 171.35 126.09 171.77 126.59 171.94L126.44 172.18H126.43ZM127.42 173.61V173.85H125.14V173.02H127V172.69H125.13V172.45H127.3V173.26H125.44V173.62H127.41L127.42 173.61ZM127.3 172.28H126.99V170.54H127.3V172.28Z" fill="black"/>
<path d="M120.04 68.53C119.54 68.53 119.17 68.19 119.17 67.7C119.17 67.21 119.54 66.88 120.04 66.88C120.54 66.88 120.92 67.22 120.92 67.7C120.92 68.18 120.54 68.53 120.04 68.53ZM120.04 68.26C120.37 68.26 120.62 68.03 120.62 67.7C120.62 67.37 120.37 67.14 120.04 67.14C119.71 67.14 119.47 67.37 119.47 67.7C119.47 68.03 119.72 68.26 120.04 68.26ZM121.94 69.67V69.92H119.68V68.84H119.99V69.67H121.94ZM121.84 69.09H121.53V66.64H121.84V69.09Z" fill="black"/>
<path d="M123.54 68.96C123.78 68.95 124.02 68.93 124.23 68.9V69.13C123.69 69.24 122.98 69.25 122.54 69.25L122.5 69C122.71 69 122.97 69 123.25 68.99V68.3H123.54V68.98V68.96ZM124.07 68.31C123.74 68.19 123.52 67.96 123.39 67.67C123.27 67.99 123.02 68.25 122.67 68.39L122.52 68.15C122.96 67.99 123.23 67.61 123.23 67.2V66.91H123.54V67.2C123.54 67.57 123.8 67.92 124.22 68.08L124.06 68.32L124.07 68.31ZM125.35 66.64V69.99H125.06V68.27H124.66V69.81H124.37V66.71H124.66V68.02H125.06V66.63H125.35V66.64Z" fill="black"/>
<path d="M127.86 68.28C127.48 68.15 127.17 67.86 127.02 67.51C126.87 67.9 126.56 68.2 126.17 68.34L126.01 68.1C126.51 67.92 126.86 67.48 126.86 66.99V66.74H127.17V66.99C127.17 67.45 127.52 67.87 128.02 68.04L127.87 68.28H127.86ZM128.85 69.71V69.95H126.57V69.12H128.43V68.79H126.56V68.55H128.73V69.36H126.87V69.72H128.84L128.85 69.71ZM128.73 68.38H128.42V66.64H128.73V68.38Z" fill="black"/>
<path d="M120.96 80.46C120.6 80.33 120.31 80.05 120.16 79.71C120.02 80.1 119.72 80.41 119.33 80.56L119.17 80.32C119.68 80.14 120 79.68 120 79.17V78.83H120.31V79.2C120.31 79.65 120.64 80.07 121.12 80.24L120.96 80.48V80.46ZM121.82 81.38C121.82 81.77 121.4 81.99 120.72 81.99C120.04 81.99 119.61 81.77 119.61 81.38C119.61 80.99 120.03 80.77 120.72 80.77C121.41 80.77 121.82 80.99 121.82 81.38ZM121.51 81.38C121.51 81.14 121.21 81.01 120.71 81.01C120.21 81.01 119.91 81.15 119.91 81.38C119.91 81.61 120.21 81.75 120.71 81.75C121.21 81.75 121.51 81.61 121.51 81.38ZM122.28 79.51V79.76H121.78V80.67H121.47V78.64H121.78V79.5H122.28V79.51Z" fill="black"/>
<path d="M124.61 80.24C124.15 80.33 123.75 80.36 123.05 80.36H122.79V78.87H124.27V79.12H123.1V80.11C123.76 80.11 124.14 80.08 124.58 80L124.61 80.25V80.24ZM123.13 80.73H125.23V81.96H123.13V80.73ZM123.43 81.71H124.93V80.97H123.43V81.71ZM125.73 79.72H125.23V80.55H124.92V78.65H125.23V79.47H125.73V79.72Z" fill="black"/>
<path d="M127.96 80.29C127.58 80.16 127.27 79.87 127.12 79.52C126.97 79.91 126.66 80.21 126.27 80.35L126.11 80.11C126.61 79.93 126.96 79.49 126.96 79V78.75H127.27V79C127.27 79.46 127.62 79.88 128.12 80.05L127.97 80.29H127.96ZM128.95 81.72V81.96H126.67V81.13H128.53V80.8H126.66V80.56H128.83V81.37H126.97V81.73H128.94L128.95 81.72ZM128.83 80.39H128.52V78.65H128.83V80.39Z" fill="black"/>
<path d="M118.13 96.48C118.99 95.73 119.39 95.18 119.39 94.71C119.39 94.4 119.23 94.17 118.89 94.17C118.67 94.17 118.47 94.31 118.32 94.49L118.12 94.3C118.34 94.06 118.58 93.9 118.93 93.9C119.42 93.9 119.73 94.22 119.73 94.71C119.73 95.26 119.3 95.81 118.66 96.42C118.8 96.41 118.97 96.39 119.11 96.39H119.87V96.68H118.15V96.48H118.13Z" fill="black"/>
<path d="M123.28 96.23V96.48H120.25V96.23H120.99V95.12H121.29V96.23H121.82V95.12H122.12V96.23H123.28ZM122.62 94.19H120.56V93.94H122.92V94.31C122.92 94.74 122.92 95.17 122.8 95.8L122.5 95.76C122.62 95.16 122.62 94.72 122.62 94.31V94.19Z" fill="black"/>
<path d="M126.73 95.8H125.35V96.95H125.04V95.8H123.68V95.55H126.72V95.8H126.73ZM126.34 95.09H124.07V93.79H126.34V95.09ZM126.04 94.03H124.38V94.84H126.04V94.03Z" fill="black"/>
<path d="M129.01 95.24C128.63 95.11 128.32 94.82 128.17 94.47C128.02 94.86 127.71 95.16 127.32 95.3L127.16 95.06C127.66 94.88 128.01 94.44 128.01 93.95V93.7H128.32V93.95C128.32 94.41 128.67 94.83 129.17 95L129.02 95.24H129.01ZM130 96.67V96.91H127.72V96.08H129.58V95.75H127.71V95.51H129.88V96.32H128.02V96.68H129.99L130 96.67ZM129.88 95.34H129.57V93.6H129.88V95.34Z" fill="black"/>
<path d="M116.22 107.78V111.14H115.91V109.84H115.07C114.93 110.18 114.67 110.38 114.35 110.38C113.86 110.38 113.51 109.92 113.51 109.21C113.51 108.5 113.86 108.04 114.35 108.04C114.66 108.04 114.91 108.22 115.05 108.53H115.91V107.78H116.22ZM114.9 109.21C114.9 108.67 114.67 108.32 114.35 108.32C114.03 108.32 113.8 108.67 113.8 109.21C113.8 109.75 114.02 110.11 114.35 110.11C114.68 110.11 114.9 109.76 114.9 109.21ZM115.91 109.59V108.78H115.14C115.17 108.91 115.19 109.05 115.19 109.21C115.19 109.35 115.17 109.48 115.15 109.59H115.91Z" fill="black"/>
<path d="M119.94 110.41V110.66H116.91V110.41H117.65V109.3H117.95V110.41H118.48V109.3H118.78V110.41H119.94ZM119.28 108.37H117.22V108.12H119.58V108.49C119.58 108.92 119.58 109.35 119.46 109.98L119.16 109.94C119.28 109.34 119.28 108.9 119.28 108.49V108.37Z" fill="black"/>
<path d="M121.48 108.67C121.48 109.26 121.86 109.87 122.33 110.11L122.14 110.35C121.79 110.16 121.48 109.77 121.33 109.31C121.18 109.8 120.87 110.22 120.5 110.42L120.32 110.17C120.8 109.92 121.18 109.28 121.18 108.67V108.07H121.48V108.67ZM123.49 109.39H122.94V111.13H122.63V107.78H122.94V109.14H123.49V109.39Z" fill="black"/>
<path d="M127.88 110.17H127.09V111.13H126.78V110.17H125.94V111.13H125.63V110.17H124.84V109.92H127.88V110.17ZM127.69 108.39H124.99V108.14H126.19V107.75H126.5V108.14H127.68V108.39H127.69ZM126.36 108.58C127.04 108.58 127.44 108.78 127.44 109.13C127.44 109.48 127.03 109.69 126.36 109.69C125.69 109.69 125.27 109.49 125.27 109.13C125.27 108.77 125.68 108.58 126.36 108.58ZM126.36 108.81C125.87 108.81 125.59 108.93 125.59 109.13C125.59 109.33 125.87 109.45 126.36 109.45C126.85 109.45 127.13 109.33 127.13 109.13C127.13 108.93 126.85 108.81 126.36 108.81Z" fill="black"/>
<path d="M130.15 107.87H130.44V110.97H130.15V109.4H129.46C129.26 109.79 128.94 110.14 128.47 110.41L128.29 110.19C129.01 109.76 129.37 109.16 129.42 108.45H128.43V108.2H129.72C129.72 108.53 129.67 108.85 129.56 109.15H130.14V107.87H130.15ZM131.14 107.78V111.13H130.85V107.78H131.14Z" fill="black"/>
<path d="M133.61 109.42C133.23 109.29 132.92 109 132.77 108.65C132.62 109.04 132.31 109.34 131.92 109.48L131.76 109.24C132.26 109.06 132.61 108.62 132.61 108.13V107.88H132.92V108.13C132.92 108.59 133.27 109.01 133.77 109.18L133.62 109.42H133.61ZM134.6 110.85V111.09H132.32V110.26H134.18V109.93H132.31V109.69H134.48V110.5H132.62V110.86H134.59L134.6 110.85ZM134.48 109.52H134.17V107.78H134.48V109.52Z" fill="black"/>
<path d="M115.4 121.02C114.84 121.13 114.33 121.17 113.83 121.17H113.57V119.7H113.87V120.91C114.34 120.91 114.82 120.87 115.36 120.77L115.4 121.02ZM113.9 121.61H116.01V122.84H113.9V121.61ZM114.2 122.59H115.71V121.86H114.2V122.59ZM116.51 120.56H116.01V121.43H115.7V119.53H116.01V120.3H116.51V120.55V120.56Z" fill="black"/>
<path d="M119.88 122.16V122.41H116.85V122.16H117.59V121.05H117.89V122.16H118.42V121.05H118.72V122.16H119.88ZM119.22 120.12H117.16V119.87H119.52V120.24C119.52 120.67 119.52 121.1 119.4 121.73L119.1 121.69C119.22 121.09 119.22 120.65 119.22 120.24V120.12Z" fill="black"/>
<path d="M121.42 120.42C121.42 121.01 121.8 121.62 122.27 121.86L122.08 122.1C121.73 121.91 121.42 121.52 121.27 121.06C121.12 121.55 120.81 121.97 120.44 122.17L120.26 121.92C120.74 121.67 121.12 121.03 121.12 120.42V119.82H121.42V120.42ZM123.43 121.14H122.88V122.88H122.57V119.53H122.88V120.89H123.43V121.14Z" fill="black"/>
<path d="M127.83 121.92H127.04V122.88H126.73V121.92H125.89V122.88H125.58V121.92H124.79V121.67H127.83V121.92ZM127.64 120.14H124.94V119.89H126.14V119.5H126.45V119.89H127.63V120.14H127.64ZM126.31 120.33C126.99 120.33 127.39 120.53 127.39 120.88C127.39 121.23 126.98 121.44 126.31 121.44C125.64 121.44 125.22 121.24 125.22 120.88C125.22 120.52 125.63 120.33 126.31 120.33ZM126.31 120.56C125.82 120.56 125.54 120.68 125.54 120.88C125.54 121.08 125.82 121.2 126.31 121.2C126.8 121.2 127.08 121.08 127.08 120.88C127.08 120.68 126.8 120.56 126.31 120.56Z" fill="black"/>
<path d="M130.1 119.61H130.39V122.71H130.1V121.14H129.41C129.21 121.53 128.89 121.88 128.42 122.15L128.24 121.93C128.96 121.5 129.32 120.9 129.37 120.19H128.38V119.94H129.67C129.67 120.27 129.62 120.59 129.51 120.89H130.09V119.61H130.1ZM131.09 119.52V122.87H130.8V119.52H131.09Z" fill="black"/>
<path d="M133.56 121.17C133.18 121.04 132.87 120.75 132.72 120.4C132.57 120.79 132.26 121.09 131.87 121.23L131.71 120.99C132.21 120.81 132.56 120.37 132.56 119.88V119.63H132.87V119.88C132.87 120.34 133.22 120.76 133.72 120.93L133.57 121.17H133.56ZM134.55 122.6V122.84H132.27V122.01H134.13V121.68H132.26V121.44H134.43V122.25H132.57V122.61H134.54L134.55 122.6ZM134.43 121.27H134.12V119.53H134.43V121.27Z" fill="black"/>
<path d="M109.99 54.53C110.36 54.51 110.73 54.5 111.07 54.45L111.09 54.67C110.39 54.78 109.61 54.8 109.01 54.8L108.98 54.55C109.19 54.55 109.44 54.55 109.69 54.54V53.51H109.99V54.53ZM110.45 54.03C110.54 53.47 110.55 53.07 110.55 52.8H109.16V52.55H110.85V52.73C110.85 53 110.85 53.44 110.76 54.06L110.45 54.03ZM112.11 53.84H111.58V55.53H111.27V52.18H111.58V53.58H112.11V53.84Z" fill="black"/>
<path d="M114.45 52.78H112.47V52.53H113.3V52.16H113.61V52.53H114.45V52.78ZM113.46 54.16C112.99 54.16 112.66 53.92 112.66 53.55C112.66 53.18 112.99 52.94 113.46 52.94C113.93 52.94 114.26 53.18 114.26 53.55C114.26 53.92 113.93 54.15 113.46 54.15V54.16ZM112.89 54.46H115.07V55.54H114.76V54.71H112.89V54.46ZM113.46 53.93C113.77 53.93 113.97 53.78 113.97 53.56C113.97 53.34 113.76 53.19 113.46 53.19C113.16 53.19 112.95 53.34 112.95 53.56C112.95 53.78 113.15 53.93 113.46 53.93ZM115.56 53.36H115.06V54.28H114.75V52.19H115.06V53.11H115.56V53.36Z" fill="black"/>
<path d="M117.78 53.82C117.4 53.69 117.09 53.4 116.94 53.05C116.79 53.44 116.48 53.74 116.09 53.88L115.93 53.64C116.43 53.46 116.78 53.02 116.78 52.53V52.28H117.09V52.53C117.09 52.99 117.44 53.41 117.94 53.58L117.79 53.82H117.78ZM118.77 55.25V55.49H116.49V54.66H118.35V54.33H116.48V54.09H118.65V54.9H116.79V55.26H118.76L118.77 55.25ZM118.65 53.92H118.34V52.18H118.65V53.92Z" fill="black"/>
<path d="M121.15 52.29H121.4L120.28 55.92H120.03L121.15 52.29Z" fill="black"/>
<path d="M123.47 54.53C123.84 54.51 124.21 54.5 124.55 54.45L124.57 54.67C123.87 54.78 123.09 54.8 122.49 54.8L122.46 54.55C122.67 54.55 122.92 54.55 123.17 54.54V53.51H123.47V54.53ZM123.93 54.03C124.02 53.47 124.03 53.07 124.03 52.8H122.64V52.55H124.33V52.73C124.33 53 124.33 53.44 124.24 54.06L123.93 54.03ZM125.59 53.84H125.06V55.53H124.75V52.18H125.06V53.58H125.59V53.84Z" fill="black"/>
<path d="M127.93 52.78H125.95V52.53H126.78V52.16H127.09V52.53H127.93V52.78ZM126.94 54.16C126.47 54.16 126.14 53.92 126.14 53.55C126.14 53.18 126.47 52.94 126.94 52.94C127.41 52.94 127.74 53.18 127.74 53.55C127.74 53.92 127.41 54.15 126.94 54.15V54.16ZM126.37 54.46H128.55V55.54H128.24V54.71H126.37V54.46ZM126.94 53.93C127.25 53.93 127.45 53.78 127.45 53.56C127.45 53.34 127.24 53.19 126.94 53.19C126.64 53.19 126.43 53.34 126.43 53.56C126.43 53.78 126.63 53.93 126.94 53.93ZM129.04 53.36H128.54V54.28H128.23V52.19H128.54V53.11H129.04V53.36Z" fill="black"/>
<path d="M132.42 53.9V54.15H131.08V54.83H130.77V54.15H129.38V53.9H132.42ZM129.57 53.41C130.16 53.33 130.71 53 130.71 52.59H129.67V52.34H132.15V52.59H131.11C131.11 53 131.65 53.33 132.24 53.41L132.13 53.66C131.58 53.58 131.09 53.31 130.91 52.92C130.73 53.31 130.23 53.58 129.69 53.66L129.57 53.41ZM130.07 55.2H132.08V55.45H129.76V54.5H130.07V55.2Z" fill="black"/>
<path d="M133.32 52.46V53.35H134.29V52.46H134.59V54.72H133.01V52.46H133.31H133.32ZM133.32 54.47H134.29V53.59H133.32V54.47ZM135.57 52.17V55.53H135.26V52.17H135.57Z" fill="black"/>
<path d="M138.15 53.82C137.77 53.69 137.46 53.4 137.31 53.05C137.16 53.44 136.85 53.74 136.46 53.88L136.3 53.64C136.8 53.46 137.15 53.02 137.15 52.53V52.28H137.46V52.53C137.46 52.99 137.81 53.41 138.31 53.58L138.16 53.82H138.15ZM139.14 55.25V55.49H136.86V54.66H138.72V54.33H136.85V54.09H139.02V54.9H137.16V55.26H139.13L139.14 55.25ZM139.02 53.92H138.71V52.18H139.02V53.92Z" fill="black"/>
<path d="M122.22 38.91V39.16H119.18V38.91H120.54V38.19H119.54V36.48H119.84V37.08H121.55V36.48H121.85V38.19H120.85V38.91H122.22ZM119.84 37.94H121.55V37.32H119.84V37.94Z" fill="black"/>
<path d="M124.37 36.49C124.37 37.35 123.76 38.01 122.81 38.32L122.68 38.07C123.45 37.82 123.97 37.34 124.04 36.74H122.85V36.49H124.37ZM125.48 39.26V39.51H123.27V38.46H123.58V39.26H125.48ZM125.08 37.27V36.24H125.39V38.71H125.08V37.52H124.35V37.27H125.08Z" fill="black"/>
<path d="M127.95 37.87C127.57 37.74 127.26 37.45 127.11 37.1C126.96 37.49 126.65 37.79 126.26 37.93L126.1 37.69C126.6 37.51 126.95 37.07 126.95 36.58V36.33H127.26V36.58C127.26 37.04 127.61 37.46 128.11 37.63L127.96 37.87H127.95ZM128.94 39.3V39.54H126.66V38.71H128.52V38.38H126.65V38.14H128.82V38.95H126.96V39.31H128.93L128.94 39.3ZM128.82 37.97H128.51V36.23H128.82V37.97Z" fill="black"/>
<path d="M118.66 6.29998V6.54998H117.31V7.19998H117V6.54998H115.61V6.29998H118.66ZM116.31 7.55998H118.33V7.80998H116.01V6.89998H116.31V7.55998ZM118.26 5.97998H116.02V4.63998H116.32V5.06998H117.95V4.63998H118.25V5.97998H118.26ZM117.96 5.29998H116.33V5.72998H117.96V5.29998Z" fill="black"/>
<path d="M119.57 6.82C120.12 6.82 120.61 6.79 121.2 6.7L121.23 6.95C120.62 7.05 120.12 7.07 119.54 7.07H119.26V5.78H120.49V5.08H119.25V4.83H120.81V6.03H119.57V6.81V6.82ZM121.82 4.53V7.89H121.51V4.53H121.82Z" fill="black"/>
<path d="M125.55 6.66998H124.18V7.87998H123.87V6.66998H122.52V6.41998H125.55V6.66998ZM125.28 6.04998C124.76 5.95998 124.26 5.66998 124.04 5.25998C123.83 5.66998 123.33 5.95998 122.8 6.04998L122.68 5.79998C123.29 5.70998 123.88 5.30998 123.88 4.82998V4.63998H124.2V4.82998C124.2 5.29998 124.8 5.70998 125.41 5.79998L125.28 6.04998Z" fill="black"/>
<path d="M127.63 4.89C127.63 5.84 127.23 6.69 126.12 7.24L125.95 7C126.85 6.56 127.27 5.92 127.32 5.13H126.1V4.88H127.63V4.89ZM128.71 4.53V7.88H128.4V6.12H127.61V5.87H128.4V4.53H128.71Z" fill="black"/>
<path d="M131.2 6.39001C130.82 6.27001 130.53 6.00001 130.39 5.67001C130.25 6.05001 129.95 6.35001 129.55 6.49001L129.39 6.25001C129.89 6.07001 130.23 5.64001 130.23 5.16001V5.03001H129.48V4.78001H131.28V5.03001H130.54V5.16001C130.54 5.60001 130.86 5.99001 131.35 6.15001L131.2 6.39001ZM132.04 7.26001C132.04 7.65001 131.62 7.88001 130.94 7.88001C130.26 7.88001 129.83 7.65001 129.83 7.26001C129.83 6.87001 130.25 6.64001 130.94 6.64001C131.63 6.64001 132.04 6.87001 132.04 7.26001ZM131.73 7.26001C131.73 7.02001 131.43 6.89001 130.93 6.89001C130.43 6.89001 130.13 7.03001 130.13 7.26001C130.13 7.49001 130.43 7.64001 130.93 7.64001C131.43 7.64001 131.73 7.50001 131.73 7.26001ZM132.5 5.38001V5.64001H132V6.56001H131.69V4.54001H132V5.38001H132.5Z" fill="black"/>
<path d="M63.51 76.53C63.36 76.71 63.12 76.82 62.83 76.82C62.33 76.82 61.97 76.49 61.97 76.02C61.97 75.55 62.34 75.23 62.83 75.23C63.11 75.23 63.35 75.34 63.51 75.51H64.37V75.03H64.68V77.02H64.37V76.54H63.51V76.53ZM62.83 76.56C63.16 76.56 63.4 76.34 63.4 76.02C63.4 75.7 63.16 75.48 62.83 75.48C62.5 75.48 62.26 75.7 62.26 76.02C62.26 76.34 62.51 76.56 62.83 76.56ZM64.69 77.73C64.69 78.14 64.26 78.37 63.57 78.37C62.88 78.37 62.46 78.13 62.46 77.73C62.46 77.33 62.89 77.09 63.57 77.09C64.25 77.09 64.69 77.33 64.69 77.73ZM64.39 77.73C64.39 77.48 64.08 77.33 63.57 77.33C63.06 77.33 62.76 77.48 62.76 77.73C62.76 77.98 63.07 78.13 63.57 78.13C64.07 78.13 64.39 77.98 64.39 77.73ZM63.65 75.76C63.68 75.84 63.69 75.92 63.69 76.02C63.69 76.12 63.68 76.2 63.65 76.28H64.37V75.76H63.65Z" fill="black"/>
<path d="M68.12 75.02V78.38H67.81V76.55H67.08C67.05 77.21 66.72 77.62 66.25 77.62C65.78 77.62 65.41 77.16 65.41 76.45C65.41 75.74 65.76 75.28 66.25 75.28C66.7 75.28 67.03 75.67 67.08 76.3H67.81V75.02H68.12ZM66.8 76.45C66.8 75.91 66.58 75.56 66.26 75.56C65.94 75.56 65.71 75.91 65.71 76.45C65.71 76.99 65.93 77.35 66.26 77.35C66.59 77.35 66.8 77 66.8 76.45Z" fill="black"/>
<path d="M71.84 77.65V77.9H68.81V77.65H69.55V76.54H69.85V77.65H70.38V76.54H70.68V77.65H71.84ZM71.18 75.61H69.12V75.36H71.48V75.73C71.48 76.16 71.48 76.59 71.36 77.22L71.06 77.18C71.18 76.58 71.18 76.14 71.18 75.73V75.61Z" fill="black"/>
<path d="M74.13 76.66C73.75 76.53 73.44 76.24 73.29 75.89C73.14 76.28 72.83 76.58 72.44 76.72L72.28 76.48C72.78 76.3 73.13 75.86 73.13 75.37V75.12H73.44V75.37C73.44 75.83 73.79 76.25 74.29 76.42L74.14 76.66H74.13ZM75.12 78.09V78.33H72.84V77.5H74.7V77.17H72.83V76.93H75V77.74H73.14V78.1H75.11L75.12 78.09ZM75 76.76H74.69V75.02H75V76.76Z" fill="black"/>
<path d="M64.98 62.24H63.61V63.45H63.3V62.24H61.95V61.99H64.98V62.24ZM64.71 61.62C64.19 61.53 63.69 61.24 63.47 60.83C63.26 61.24 62.76 61.53 62.23 61.62L62.11 61.37C62.72 61.28 63.31 60.88 63.31 60.4V60.21H63.63V60.4C63.63 60.87 64.23 61.28 64.84 61.37L64.71 61.62Z" fill="black"/>
<path d="M67.37 60.7H65.39V60.45H66.22V60.08H66.53V60.45H67.37V60.7ZM66.38 62.08C65.91 62.08 65.58 61.84 65.58 61.47C65.58 61.1 65.91 60.86 66.38 60.86C66.85 60.86 67.18 61.1 67.18 61.47C67.18 61.84 66.85 62.07 66.38 62.07V62.08ZM65.81 62.38H67.99V63.46H67.68V62.63H65.81V62.38ZM66.38 61.85C66.69 61.85 66.89 61.7 66.89 61.48C66.89 61.26 66.68 61.11 66.38 61.11C66.08 61.11 65.87 61.26 65.87 61.48C65.87 61.7 66.07 61.85 66.38 61.85ZM68.48 61.28H67.98V62.2H67.67V60.11H67.98V61.03H68.48V61.28Z" fill="black"/>
<path d="M71.86 62.73V62.98H68.83V62.73H69.57V61.62H69.87V62.73H70.4V61.62H70.7V62.73H71.86ZM71.2 60.69H69.14V60.44H71.5V60.81C71.5 61.24 71.5 61.67 71.38 62.3L71.08 62.26C71.2 61.66 71.2 61.22 71.2 60.81V60.69Z" fill="black"/>
<path d="M74.15 61.74C73.77 61.61 73.46 61.32 73.31 60.97C73.16 61.36 72.85 61.66 72.46 61.8L72.3 61.56C72.8 61.38 73.15 60.94 73.15 60.45V60.2H73.46V60.45C73.46 60.91 73.81 61.33 74.31 61.5L74.16 61.74H74.15ZM75.14 63.17V63.41H72.86V62.58H74.72V62.25H72.85V62.01H75.02V62.82H73.16V63.18H75.13L75.14 63.17ZM75.02 61.84H74.71V60.1H75.02V61.84Z" fill="black"/>
<path d="M60.37 48.24C59.99 48.11 59.68 47.83 59.53 47.48C59.39 47.86 59.08 48.16 58.68 48.31L58.52 48.07C59.03 47.89 59.37 47.46 59.37 46.98V46.8H58.6V46.55H60.44V46.8H59.68V46.98C59.68 47.43 60.03 47.84 60.52 48L60.37 48.24ZM61.32 49.29V49.54H59.06V48.49H59.37V49.29H61.32ZM61.22 48.72H60.91V46.27H61.22V48.72Z" fill="black"/>
<path d="M64.96 48.95V49.2H61.91V48.95H63.27V48.32H62.29V47.28H64.28V46.76H62.28V46.51H64.58V47.53H62.59V48.07H64.65V48.32H63.58V48.95H64.95H64.96Z" fill="black"/>
<path d="M66.34 47.29C66.34 47.82 66.61 48.38 67.06 48.62L66.88 48.85C66.55 48.67 66.32 48.33 66.19 47.92C66.07 48.35 65.84 48.72 65.51 48.92L65.33 48.69C65.78 48.42 66.04 47.83 66.04 47.28V47.12H65.42V46.87H66.04V46.37H66.34V46.87H66.96V47.12H66.34V47.28V47.29ZM67.24 46.34H67.53V49.44H67.24V47.84H66.73V47.59H67.24V46.34ZM68.21 46.26V49.61H67.91V46.26H68.21Z" fill="black"/>
<path d="M70.76 46.86H68.82V46.61H69.64V46.23H69.95V46.61H70.77V46.86H70.76ZM69.79 48.22C69.33 48.22 69.01 47.98 69.01 47.63C69.01 47.28 69.33 47.03 69.79 47.03C70.25 47.03 70.56 47.27 70.56 47.63C70.56 47.99 70.24 48.22 69.79 48.22ZM69.79 47.99C70.07 47.99 70.28 47.84 70.28 47.62C70.28 47.4 70.08 47.25 69.79 47.25C69.5 47.25 69.3 47.4 69.3 47.62C69.3 47.84 69.5 47.99 69.79 47.99ZM69.4 48.46H71.58V49.56H69.4V48.46ZM69.7 49.31H71.28V48.7H69.7V49.31ZM71.58 46.25V48.28H71.27V47.52H70.71V47.27H71.27V46.25H71.58Z" fill="black"/>
<path d="M75.29 48.89V49.14H72.26V48.89H73V47.78H73.3V48.89H73.83V47.78H74.13V48.89H75.29ZM74.63 46.85H72.57V46.6H74.93V46.97C74.93 47.4 74.93 47.83 74.81 48.46L74.51 48.42C74.63 47.82 74.63 47.38 74.63 46.97V46.85Z" fill="black"/>
<path d="M77.58 47.9C77.2 47.77 76.89 47.48 76.74 47.13C76.59 47.52 76.28 47.82 75.89 47.96L75.73 47.72C76.23 47.54 76.58 47.1 76.58 46.61V46.36H76.89V46.61C76.89 47.07 77.24 47.49 77.74 47.66L77.59 47.9H77.58ZM78.57 49.33V49.57H76.29V48.74H78.15V48.41H76.28V48.17H78.45V48.98H76.59V49.34H78.56L78.57 49.33ZM78.45 48H78.14V46.26H78.45V48Z" fill="black"/>
<path d="M68.98 35.24C69.28 35.23 69.59 35.2 69.88 35.16L69.9 35.39C69.18 35.52 68.39 35.52 67.81 35.52L67.77 35.26C68.04 35.26 68.35 35.26 68.68 35.25V34.88C68.29 34.83 68.04 34.6 68.04 34.27C68.04 33.89 68.37 33.65 68.83 33.65C69.29 33.65 69.62 33.89 69.62 34.27C69.62 34.6 69.37 34.83 68.98 34.88V35.23V35.24ZM69.82 33.45H67.82V33.21H68.67V32.81H68.98V33.21H69.82V33.45ZM68.82 34.65C69.12 34.65 69.32 34.5 69.32 34.27C69.32 34.04 69.12 33.89 68.82 33.89C68.52 33.89 68.32 34.04 68.32 34.27C68.32 34.5 68.52 34.65 68.82 34.65ZM70.9 34.48H70.38V36.15H70.07V32.8H70.38V34.22H70.9V34.48Z" fill="black"/>
<path d="M73.05 34.66C72.67 34.54 72.38 34.27 72.24 33.94C72.1 34.32 71.8 34.62 71.4 34.76L71.24 34.52C71.74 34.34 72.08 33.91 72.08 33.43V33.3H71.33V33.05H73.13V33.3H72.39V33.43C72.39 33.87 72.71 34.26 73.2 34.42L73.05 34.66ZM73.89 35.53C73.89 35.92 73.47 36.15 72.79 36.15C72.11 36.15 71.68 35.92 71.68 35.53C71.68 35.14 72.1 34.91 72.79 34.91C73.48 34.91 73.89 35.14 73.89 35.53ZM73.58 35.53C73.58 35.29 73.28 35.16 72.78 35.16C72.28 35.16 71.98 35.3 71.98 35.53C71.98 35.76 72.28 35.91 72.78 35.91C73.28 35.91 73.58 35.77 73.58 35.53ZM74.35 33.65V33.91H73.85V34.83H73.54V32.81H73.85V33.65H74.35Z" fill="black"/>
<path d="M76.57 34.44C76.19 34.31 75.88 34.02 75.73 33.67C75.58 34.06 75.27 34.36 74.88 34.5L74.72 34.26C75.22 34.08 75.57 33.64 75.57 33.15V32.9H75.88V33.15C75.88 33.61 76.23 34.03 76.73 34.2L76.58 34.44H76.57ZM77.56 35.87V36.11H75.28V35.28H77.14V34.95H75.27V34.71H77.44V35.52H75.58V35.88H77.55L77.56 35.87ZM77.44 34.54H77.13V32.8H77.44V34.54Z" fill="black"/>
<path d="M79.12 34.71C79.12 33.98 79.33 33.37 79.67 32.82L79.88 32.92C79.55 33.46 79.4 34.08 79.4 34.72C79.4 35.36 79.55 35.99 79.88 36.52L79.67 36.62C79.33 36.06 79.12 35.46 79.12 34.72V34.71Z" fill="black"/>
<path d="M83.01 32.8V36.16H82.7V34.86H81.86C81.72 35.2 81.46 35.4 81.14 35.4C80.65 35.4 80.3 34.94 80.3 34.23C80.3 33.52 80.65 33.06 81.14 33.06C81.45 33.06 81.7 33.24 81.84 33.55H82.7V32.8H83.01ZM81.69 34.23C81.69 33.69 81.46 33.34 81.14 33.34C80.82 33.34 80.59 33.69 80.59 34.23C80.59 34.77 80.81 35.13 81.14 35.13C81.47 35.13 81.69 34.78 81.69 34.23ZM82.7 34.61V33.8H81.93C81.96 33.93 81.98 34.07 81.98 34.23C81.98 34.37 81.96 34.5 81.94 34.61H82.7Z" fill="black"/>
<path d="M83.65 36.51C83.97 35.98 84.13 35.35 84.13 34.71C84.13 34.07 83.97 33.45 83.65 32.91L83.86 32.81C84.21 33.37 84.41 33.97 84.41 34.7C84.41 35.43 84.2 36.04 83.86 36.6L83.65 36.5V36.51Z" fill="black"/>
<path d="M62.3 118.11H62.91V116.07H62.42V115.85C62.66 115.81 62.84 115.74 62.99 115.66H63.25V118.12H63.8V118.4H62.3V118.12V118.11Z" fill="black"/>
<path d="M64.23 117.22H65.19V117.48H64.23V117.22Z" fill="black"/>
<path d="M65.68 118.11H66.29V116.07H65.8V115.85C66.04 115.81 66.22 115.74 66.37 115.66H66.63V118.12H67.18V118.4H65.68V118.12V118.11Z" fill="black"/>
<path d="M71.5 117.95V118.2H68.47V117.95H69.21V116.84H69.51V117.95H70.04V116.84H70.34V117.95H71.5ZM70.84 115.91H68.78V115.66H71.14V116.03C71.14 116.46 71.14 116.89 71.02 117.52L70.72 117.48C70.84 116.88 70.84 116.44 70.84 116.03V115.91Z" fill="black"/>
<path d="M73.79 116.96C73.41 116.83 73.1 116.54 72.95 116.19C72.8 116.58 72.49 116.88 72.1 117.02L71.94 116.78C72.44 116.6 72.79 116.16 72.79 115.67V115.42H73.1V115.67C73.1 116.13 73.45 116.55 73.95 116.72L73.8 116.96H73.79ZM74.78 118.39V118.63H72.5V117.8H74.36V117.47H72.49V117.23H74.66V118.04H72.8V118.4H74.77L74.78 118.39ZM74.66 117.06H74.35V115.32H74.66V117.06Z" fill="black"/>
<path d="M67.82 171.18H66.12V170.94H66.82V170.57H67.12V170.94H67.82V171.18ZM66.97 172.5C66.55 172.5 66.25 172.28 66.25 171.92C66.25 171.56 66.55 171.35 66.97 171.35C67.39 171.35 67.68 171.58 67.68 171.92C67.68 172.26 67.39 172.5 66.97 172.5ZM66.97 172.27C67.23 172.27 67.41 172.13 67.41 171.92C67.41 171.71 67.23 171.58 66.97 171.58C66.71 171.58 66.53 171.72 66.53 171.92C66.53 172.12 66.71 172.27 66.97 172.27ZM68.98 173.3C68.98 173.67 68.56 173.88 67.86 173.88C67.16 173.88 66.74 173.67 66.74 173.3C66.74 172.93 67.16 172.71 67.86 172.71C68.56 172.71 68.98 172.92 68.98 173.3ZM68.67 173.3C68.67 173.08 68.36 172.95 67.86 172.95C67.36 172.95 67.04 173.08 67.04 173.3C67.04 173.52 67.35 173.65 67.86 173.65C68.37 173.65 68.67 173.52 68.67 173.3ZM68.24 172.54H67.95V170.6H68.24V171.45H68.67V170.54H68.97V172.66H68.67V171.7H68.24V172.54Z" fill="black"/>
<path d="M71.4 172.41C71.03 172.28 70.74 172 70.59 171.66C70.45 172.05 70.14 172.36 69.75 172.51L69.59 172.27C70.09 172.09 70.43 171.63 70.43 171.15V171.03H69.68V170.78H71.47V171.03H70.73V171.15C70.73 171.58 71.06 172 71.54 172.17L71.39 172.41H71.4ZM72.35 173.27C72.35 173.67 71.92 173.89 71.24 173.89C70.56 173.89 70.12 173.66 70.12 173.27C70.12 172.88 70.55 172.65 71.24 172.65C71.93 172.65 72.35 172.88 72.35 173.27ZM72.05 173.27C72.05 173.03 71.74 172.88 71.24 172.88C70.74 172.88 70.43 173.03 70.43 173.27C70.43 173.51 70.74 173.65 71.24 173.65C71.74 173.65 72.05 173.51 72.05 173.27ZM72.03 171.41V170.54H72.34V172.54H72.03V171.66H71.37V171.41H72.03Z" fill="black"/>
<path d="M74.9 172.18C74.52 172.05 74.21 171.76 74.06 171.41C73.91 171.8 73.6 172.1 73.21 172.24L73.05 172C73.55 171.82 73.9 171.38 73.9 170.89V170.64H74.21V170.89C74.21 171.35 74.56 171.77 75.06 171.94L74.91 172.18H74.9ZM75.89 173.61V173.85H73.61V173.02H75.47V172.69H73.6V172.45H75.77V173.26H73.91V173.62H75.88L75.89 173.61ZM75.77 172.28H75.46V170.54H75.77V172.28Z" fill="black"/>
<path d="M9.15001 172.82C9.60001 172.82 9.92001 172.8 10.28 172.72L10.31 172.97C9.91001 173.06 9.57001 173.07 9.07001 173.07H8.85001V170.95H10.1V171.2H9.15001V172.82ZM11.58 170.55V173.9H11.28V172.14H10.81V173.73H10.52V170.62H10.81V171.89H11.28V170.54H11.58V170.55Z" fill="black"/>
<path d="M13.41 172.9C13.74 172.88 14.07 172.86 14.38 172.81L14.41 173.04C13.65 173.18 12.84 173.19 12.24 173.19L12.2 172.93C12.47 172.93 12.78 172.93 13.11 172.92V172.34C12.68 172.28 12.37 171.98 12.37 171.56C12.37 171.09 12.75 170.77 13.26 170.77C13.77 170.77 14.16 171.09 14.16 171.56C14.16 171.98 13.86 172.29 13.41 172.34V172.91V172.9ZM13.26 172.08C13.61 172.08 13.86 171.86 13.86 171.55C13.86 171.24 13.61 171.03 13.26 171.03C12.91 171.03 12.67 171.24 12.67 171.55C12.67 171.86 12.92 172.08 13.26 172.08ZM14.91 170.54V173.9H14.6V170.54H14.91Z" fill="black"/>
<path d="M17.5 171.13H15.62V170.88H16.42V170.51H16.73V170.88H17.5V171.13ZM16.57 172.5C16.12 172.5 15.81 172.26 15.81 171.9C15.81 171.54 16.12 171.3 16.57 171.3C17.02 171.3 17.33 171.54 17.33 171.9C17.33 172.26 17.02 172.5 16.57 172.5ZM16.57 172.27C16.85 172.27 17.04 172.12 17.04 171.9C17.04 171.68 16.85 171.53 16.57 171.53C16.29 171.53 16.1 171.68 16.1 171.9C16.1 172.12 16.29 172.27 16.57 172.27ZM18.07 172.68H18.37V173.86H16.2V172.68H16.5V173.02H18.07V172.68ZM18.07 173.26H16.5V173.62H18.07V173.26ZM18.37 170.55V172.53H18.06V172.24H17.49V171.99H18.06V171.59H17.5V171.34H18.06V170.56H18.37V170.55Z" fill="black"/>
<path d="M20.87 172.38C20.46 172.45 20.12 172.46 19.45 172.46H19.21V171.46H20.35V171H19.2V170.75H20.65V171.7H19.51V172.21C20.13 172.21 20.45 172.2 20.84 172.13L20.87 172.38ZM19.58 172.8H21.82V173.91H21.51V173.05H19.57V172.8H19.58ZM21.82 170.56V172.62H21.51V172H20.86V171.75H21.51V171.3H20.86V171.05H21.51V170.56H21.82Z" fill="black"/>
<path d="M24.39 172.19C24.01 172.06 23.7 171.77 23.55 171.42C23.4 171.81 23.09 172.11 22.7 172.25L22.54 172.01C23.04 171.83 23.39 171.39 23.39 170.9V170.65H23.7V170.9C23.7 171.36 24.05 171.78 24.55 171.95L24.4 172.19H24.39ZM25.38 173.62V173.86H23.1V173.03H24.96V172.7H23.09V172.46H25.26V173.27H23.4V173.63H25.37L25.38 173.62ZM25.26 172.29H24.95V170.55H25.26V172.29Z" fill="black"/>
<path d="M72.46 90.26H82.93" stroke="#231F20" stroke-width="0.5" stroke-miterlimit="10"/>
<path d="M72.46 94.17H82.93" stroke="#231F20" stroke-width="0.5" stroke-miterlimit="10"/>
<path d="M77.69 86.98V97.45" stroke="#231F20" stroke-width="0.5" stroke-miterlimit="10"/>
<path d="M131.55 15.68V26.15" stroke="#231F20" stroke-width="0.5" stroke-miterlimit="10"/>
<path d="M123.39 15.68V26.15" stroke="#231F20" stroke-width="0.5" stroke-miterlimit="10"/>
<path d="M138.38 20.91H116.56" stroke="#231F20" stroke-width="0.5" stroke-miterlimit="10"/>
<path d="M91.07 170.25H101.53" stroke="#231F20" stroke-width="0.5" stroke-miterlimit="10"/>
<path d="M91.07 174.17H101.53" stroke="#231F20" stroke-width="0.5" stroke-miterlimit="10"/>
<path d="M96.3 166.98V177.45" stroke="#231F20" stroke-width="0.5" stroke-miterlimit="10"/>
<path d="M142.31 30.42H105.81V45.36H142.31V30.42Z" stroke="#231F20" stroke-width="0.5" stroke-miterlimit="10"/>
<path d="M142.31 45.36H105.81V62.97H142.31V45.36Z" stroke="#231F20" stroke-width="0.5" stroke-miterlimit="10"/>
<path d="M142.31 62.98H105.81V73.66H142.31V62.98Z" stroke="#231F20" stroke-width="0.5" stroke-miterlimit="10"/>
<path d="M142.31 45.36H105.81V62.72H142.31V45.36Z" stroke="#231F20" stroke-width="0.5" stroke-miterlimit="10"/>
</svg>
