<svg width="192" height="183" viewBox="0 0 192 183" fill="none" xmlns="http://www.w3.org/2000/svg">
<path d="M86.29 92.47H67.27V75.55H86.29V20.02H49.79V1H141.8V20.02H105.31V116.66H191.1V164.7H133.07V173.72H0.5V116.66H86.29V98.62" stroke="#231F20" stroke-width="0.5" stroke-miterlimit="10"/>
<path d="M86.29 116.66H49.79V1H141.8V116.66H105.31" stroke="#231F20" stroke-width="0.5" stroke-miterlimit="10"/>
<path d="M105.31 149.89H86.29V173.72H105.31V149.89Z" stroke="#231F20" stroke-width="0.5" stroke-miterlimit="10"/>
<path d="M21.75 149.89H0.5V173.72H21.75V149.89Z" stroke="#231F20" stroke-width="0.5" stroke-miterlimit="10"/>
<path d="M41.41 149.89H21.75V173.72H41.41V149.89Z" stroke="#231F20" stroke-width="0.5" stroke-miterlimit="10"/>
<path d="M63.88 149.89H41.41V173.72H63.88V149.89Z" stroke="#231F20" stroke-width="0.5" stroke-miterlimit="10"/>
<path d="M86.29 149.89H63.82V173.72H86.29V149.89Z" stroke="#231F20" stroke-width="0.5" stroke-miterlimit="10"/>
<path d="M133.07 149.89H105.31V173.72H133.07V149.89Z" stroke="#231F20" stroke-width="0.5" stroke-miterlimit="10"/>
<path d="M163.05 164.7H133.07V182.74H163.05V164.7Z" stroke="#231F20" stroke-width="0.5" stroke-miterlimit="10"/>
<path d="M163.05 116.66H141.8V134.7H163.05V116.66Z" stroke="#231F20" stroke-width="0.5" stroke-miterlimit="10"/>
<path d="M86.29 97.47H49.79V116.66H86.29V97.47Z" stroke="#231F20" stroke-width="0.5" stroke-miterlimit="10"/>
<path d="M86.29 53.98H49.79V75.56H86.29V53.98Z" stroke="#231F20" stroke-width="0.5" stroke-miterlimit="10"/>
<path d="M86.29 31.43H49.79V53.98H86.29V31.43Z" stroke="#231F20" stroke-width="0.5" stroke-miterlimit="10"/>
<path d="M86.29 20.02H49.79V31.43H86.29V20.02Z" stroke="#231F20" stroke-width="0.5" stroke-miterlimit="10"/>
<path d="M141.81 44.7H105.31V63.25H141.81V44.7Z" stroke="#231F20" stroke-width="0.5" stroke-miterlimit="10"/>
<path d="M141.81 80.02H105.31V91.08H141.81V80.02Z" stroke="#231F20" stroke-width="0.5" stroke-miterlimit="10"/>
<path d="M141.81 91.01H105.31V116.66H141.81V91.01Z" stroke="#231F20" stroke-width="0.5" stroke-miterlimit="10"/>
<path d="M141.81 63.26H105.31V80.03H141.81V63.26Z" stroke="#231F20" stroke-width="0.5" stroke-miterlimit="10"/>
<path d="M141.81 20.02H105.31V44.7H141.81V20.02Z" stroke="#231F20" stroke-width="0.5" stroke-miterlimit="10"/>
<path d="M184.3 116.66H163.05V134.7H184.3V116.66Z" stroke="#231F20" stroke-width="0.5" stroke-miterlimit="10"/>
<path d="M191.1 116.66H184.3V134.7H191.1V116.66Z" stroke="#231F20" stroke-width="0.5" stroke-miterlimit="10"/>
<path d="M191.1 164.7H163.05V182.74H191.1V164.7Z" stroke="#231F20" stroke-width="0.5" stroke-miterlimit="10"/>
<path d="M67.27 75.55H49.79V97.46H67.27V75.55Z" stroke="#231F20" stroke-width="0.5" stroke-miterlimit="10"/>
<path d="M107.37 100.15H107.73L108.73 101.88L109.02 102.44H109.04C109.02 102.16 109 101.86 109 101.57V100.15H109.33V102.89H108.98L107.98 101.16L107.68 100.6H107.66C107.68 100.88 107.7 101.17 107.7 101.46V102.9H107.37V100.16V100.15Z" fill="black"/>
<path d="M109.92 101.53C109.92 100.64 110.44 100.11 111.13 100.11C111.46 100.11 111.72 100.28 111.88 100.45L111.69 100.67C111.55 100.52 111.36 100.41 111.13 100.41C110.61 100.41 110.27 100.84 110.27 101.52C110.27 102.2 110.6 102.65 111.12 102.65C111.38 102.65 111.58 102.53 111.76 102.34L111.95 102.56C111.73 102.81 111.46 102.95 111.11 102.95C110.43 102.95 109.92 102.42 109.92 101.53Z" fill="black"/>
<path d="M112.16 102.54L112.37 102.3C112.57 102.51 112.84 102.64 113.13 102.64C113.49 102.64 113.71 102.46 113.71 102.19C113.71 101.92 113.51 101.82 113.25 101.7L112.85 101.53C112.6 101.42 112.29 101.23 112.29 100.83C112.29 100.41 112.66 100.1 113.15 100.1C113.48 100.1 113.76 100.24 113.96 100.44L113.78 100.66C113.61 100.5 113.41 100.4 113.16 100.4C112.85 100.4 112.65 100.56 112.65 100.8C112.65 101.07 112.89 101.17 113.1 101.26L113.49 101.43C113.81 101.57 114.05 101.76 114.05 102.16C114.05 102.59 113.69 102.94 113.12 102.94C112.73 102.94 112.4 102.78 112.16 102.53V102.54Z" fill="black"/>
<path d="M118.29 101.45V101.7H115.26V101.45H118.29ZM117.95 100.54C117.95 100.94 117.5 101.18 116.77 101.18C116.04 101.18 115.59 100.94 115.59 100.54C115.59 100.14 116.05 99.9 116.77 99.9C117.49 99.9 117.95 100.14 117.95 100.54ZM117.92 102.57C117.92 102.95 117.49 103.17 116.77 103.17C116.05 103.17 115.62 102.95 115.62 102.57C115.62 102.19 116.05 101.97 116.77 101.97C117.49 101.97 117.92 102.18 117.92 102.57ZM115.91 100.54C115.91 100.79 116.24 100.94 116.77 100.94C117.3 100.94 117.63 100.79 117.63 100.54C117.63 100.29 117.3 100.14 116.77 100.14C116.24 100.14 115.91 100.29 115.91 100.54ZM115.94 102.57C115.94 102.8 116.25 102.93 116.78 102.93C117.31 102.93 117.62 102.8 117.62 102.57C117.62 102.34 117.31 102.21 116.78 102.21C116.25 102.21 115.94 102.34 115.94 102.57Z" fill="black"/>
<path d="M121.74 101.48V101.73H118.7V101.48H119.45V101.01C119.18 100.9 119.04 100.73 119.04 100.51C119.04 100.12 119.49 99.89 120.22 99.89C120.95 99.89 121.4 100.12 121.4 100.51C121.4 100.73 121.25 100.91 120.99 101.01V101.48H121.74ZM121.37 102.58C121.37 102.96 120.94 103.17 120.22 103.17C119.5 103.17 119.07 102.96 119.07 102.58C119.07 102.2 119.5 101.98 120.22 101.98C120.94 101.98 121.37 102.19 121.37 102.58ZM120.22 100.89C120.75 100.89 121.08 100.74 121.08 100.51C121.08 100.28 120.75 100.13 120.22 100.13C119.69 100.13 119.36 100.27 119.36 100.51C119.36 100.75 119.69 100.89 120.22 100.89ZM121.06 102.58C121.06 102.35 120.75 102.22 120.22 102.22C119.69 102.22 119.38 102.35 119.38 102.58C119.38 102.81 119.69 102.94 120.22 102.94C120.75 102.94 121.06 102.81 121.06 102.58ZM119.76 101.48H120.69V101.09C120.55 101.11 120.39 101.13 120.22 101.13C120.05 101.13 119.89 101.12 119.76 101.09V101.48Z" fill="black"/>
<path d="M126.24 102.49V102.74H123.2V102.49H126.24ZM123.99 100.4H123.47V100.15H125.96V100.4H125.44V101.57H125.95V101.82H123.48V101.57H123.99V100.4ZM125.13 100.4H124.3V101.57H125.13V100.4Z" fill="black"/>
<path d="M129.69 102.51V102.76H126.64V102.51H128V101.88H127.02V100.84H129.01V100.32H127.01V100.07H129.31V101.09H127.32V101.63H129.38V101.88H128.31V102.51H129.68H129.69Z" fill="black"/>
<path d="M133.13 102.43V102.68H130.1V102.43H133.13ZM132.42 100.43H130.42V100.18H132.58H132.72V100.51C132.72 100.94 132.72 101.42 132.59 102.14L132.28 102.11C132.41 101.43 132.41 100.93 132.41 100.51V100.42L132.42 100.43Z" fill="black"/>
<path d="M133.94 102.11C134.32 102.11 134.67 102.09 135.1 102.02L135.12 102.27C134.66 102.35 134.28 102.36 133.86 102.36H133.64V101.1H134.59V100.42H133.63V100.17H134.89V101.35H133.94V102.1V102.11ZM136.38 99.81V103.16H136.08V101.38H135.61V102.99H135.32V99.88H135.61V101.13H136.08V99.81H136.38Z" fill="black"/>
<path d="M138.73 100.06V101.52H137.16V100.06H138.73ZM137.46 100.31V101.28H138.43V100.31H137.46ZM139.75 102.52C139.75 102.93 139.32 103.16 138.63 103.16C137.94 103.16 137.5 102.92 137.5 102.52C137.5 102.12 137.93 101.88 138.63 101.88C139.33 101.88 139.75 102.12 139.75 102.52ZM137.81 102.52C137.81 102.77 138.12 102.92 138.63 102.92C139.14 102.92 139.44 102.77 139.44 102.52C139.44 102.27 139.13 102.12 138.63 102.12C138.13 102.12 137.81 102.27 137.81 102.52ZM139.74 99.82V101.82H139.43V99.82H139.74Z" fill="black"/>
<path d="M113.61 104.93C113.61 105.79 113.31 106.59 112.35 107.13L112.17 106.91C112.94 106.48 113.26 105.87 113.3 105.18H112.29V104.93H113.6H113.61ZM115.02 104.5V107.85H114.72V106.1H114.26V107.68H113.97V104.58H114.26V105.84H114.72V104.49H115.02V104.5Z" fill="black"/>
<path d="M117.31 106.1H115.76V104.63H116.06V105.11H117.01V104.63H117.31V106.1ZM117.01 105.35H116.06V105.85H117.01V105.35ZM116.4 107.57H118.34V107.81H116.1V106.97H117.92V106.63H116.09V106.39H118.22V107.21H116.4V107.58V107.57ZM118.72 105.22V105.47H118.22V106.23H117.91V104.5H118.22V105.22H118.72Z" fill="black"/>
<path d="M121.99 106.14C121.61 106.01 121.3 105.72 121.15 105.37C121 105.76 120.69 106.06 120.3 106.2L120.14 105.96C120.64 105.78 120.99 105.34 120.99 104.85V104.6H121.3V104.85C121.3 105.31 121.65 105.73 122.15 105.9L122 106.14H121.99ZM122.98 107.57V107.81H120.7V106.98H122.56V106.65H120.69V106.41H122.86V107.22H121V107.58H122.97L122.98 107.57ZM122.86 106.24H122.55V104.5H122.86V106.24Z" fill="black"/>
<path d="M126.59 106.03V106.28H123.55V106.03H126.59ZM126.31 105.79C125.79 105.71 125.29 105.45 125.08 105.07C124.87 105.44 124.37 105.71 123.85 105.79L123.74 105.54C124.34 105.47 124.93 105.11 124.93 104.68V104.53H125.24V104.68C125.24 105.1 125.83 105.47 126.43 105.54L126.32 105.79H126.31ZM125.89 106.5H126.19V107.8H123.94V106.5H124.24V106.89H125.89V106.5ZM125.89 107.13H124.24V107.56H125.89V107.13Z" fill="black"/>
<path d="M128.88 106.14C128.5 106.01 128.19 105.72 128.04 105.37C127.89 105.76 127.58 106.06 127.19 106.2L127.03 105.96C127.53 105.78 127.88 105.34 127.88 104.85V104.6H128.19V104.85C128.19 105.31 128.54 105.73 129.04 105.9L128.89 106.14H128.88ZM129.87 107.57V107.81H127.59V106.98H129.45V106.65H127.58V106.41H129.75V107.22H127.89V107.58H129.86L129.87 107.57ZM129.75 106.24H129.44V104.5H129.75V106.24Z" fill="black"/>
<path d="M131.27 106.2C131.27 105.25 131.6 104.79 132.13 104.79C132.66 104.79 132.98 105.25 132.98 106.2C132.98 107.15 132.65 107.63 132.13 107.63C131.61 107.63 131.27 107.16 131.27 106.2ZM132.65 106.2C132.65 105.4 132.44 105.06 132.13 105.06C131.82 105.06 131.61 105.4 131.61 106.2C131.61 107 131.82 107.36 132.13 107.36C132.44 107.36 132.65 107.01 132.65 106.2Z" fill="black"/>
<path d="M133.5 107.29H134.11V105.25H133.62V105.03C133.86 104.99 134.04 104.92 134.19 104.84H134.45V107.3H135V107.58H133.5V107.3V107.29Z" fill="black"/>
<path d="M107.37 50.3H107.73L108.73 52.03L109.02 52.59H109.04C109.02 52.31 109 52.01 109 51.72V50.3H109.33V53.04H108.98L107.98 51.31L107.68 50.75H107.66C107.68 51.03 107.7 51.32 107.7 51.61V53.05H107.37V50.31V50.3Z" fill="black"/>
<path d="M109.92 51.6699C109.92 50.7799 110.44 50.2499 111.13 50.2499C111.46 50.2499 111.72 50.4199 111.88 50.5899L111.69 50.8099C111.55 50.6599 111.36 50.5499 111.13 50.5499C110.61 50.5499 110.27 50.9799 110.27 51.6599C110.27 52.3399 110.6 52.7899 111.12 52.7899C111.38 52.7899 111.58 52.6699 111.76 52.4799L111.95 52.6999C111.73 52.9499 111.46 53.0899 111.11 53.0899C110.43 53.0899 109.92 52.5599 109.92 51.6699Z" fill="black"/>
<path d="M112.16 52.68L112.37 52.44C112.57 52.65 112.84 52.78 113.13 52.78C113.49 52.78 113.71 52.6 113.71 52.33C113.71 52.06 113.51 51.96 113.25 51.84L112.85 51.67C112.6 51.56 112.29 51.37 112.29 50.97C112.29 50.55 112.66 50.24 113.15 50.24C113.48 50.24 113.76 50.38 113.96 50.58L113.78 50.8C113.61 50.64 113.41 50.54 113.16 50.54C112.85 50.54 112.65 50.7 112.65 50.94C112.65 51.21 112.89 51.31 113.1 51.4L113.49 51.57C113.81 51.71 114.05 51.9 114.05 52.3C114.05 52.73 113.69 53.08 113.12 53.08C112.73 53.08 112.4 52.92 112.16 52.67V52.68Z" fill="black"/>
<path d="M118.29 51.59V51.84H115.26V51.59H118.29ZM117.95 50.68C117.95 51.08 117.5 51.32 116.77 51.32C116.04 51.32 115.59 51.08 115.59 50.68C115.59 50.28 116.05 50.04 116.77 50.04C117.49 50.04 117.95 50.28 117.95 50.68ZM117.92 52.71C117.92 53.09 117.49 53.31 116.77 53.31C116.05 53.31 115.62 53.09 115.62 52.71C115.62 52.33 116.05 52.11 116.77 52.11C117.49 52.11 117.92 52.32 117.92 52.71ZM115.91 50.68C115.91 50.93 116.24 51.08 116.77 51.08C117.3 51.08 117.63 50.93 117.63 50.68C117.63 50.43 117.3 50.28 116.77 50.28C116.24 50.28 115.91 50.43 115.91 50.68ZM115.94 52.71C115.94 52.94 116.25 53.07 116.78 53.07C117.31 53.07 117.62 52.94 117.62 52.71C117.62 52.48 117.31 52.35 116.78 52.35C116.25 52.35 115.94 52.48 115.94 52.71Z" fill="black"/>
<path d="M121.74 51.62V51.87H118.7V51.62H119.45V51.15C119.18 51.04 119.04 50.87 119.04 50.65C119.04 50.26 119.49 50.03 120.22 50.03C120.95 50.03 121.4 50.26 121.4 50.65C121.4 50.87 121.25 51.05 120.99 51.15V51.62H121.74ZM121.37 52.72C121.37 53.1 120.94 53.31 120.22 53.31C119.5 53.31 119.07 53.1 119.07 52.72C119.07 52.34 119.5 52.12 120.22 52.12C120.94 52.12 121.37 52.33 121.37 52.72ZM120.22 51.03C120.75 51.03 121.08 50.88 121.08 50.65C121.08 50.42 120.75 50.27 120.22 50.27C119.69 50.27 119.36 50.41 119.36 50.65C119.36 50.89 119.69 51.03 120.22 51.03ZM121.06 52.72C121.06 52.49 120.75 52.36 120.22 52.36C119.69 52.36 119.38 52.49 119.38 52.72C119.38 52.95 119.69 53.08 120.22 53.08C120.75 53.08 121.06 52.95 121.06 52.72ZM119.76 51.62H120.69V51.23C120.55 51.25 120.39 51.27 120.22 51.27C120.05 51.27 119.89 51.26 119.76 51.23V51.62Z" fill="black"/>
<path d="M126.24 52.63V52.88H123.2V52.63H126.24ZM123.99 50.54H123.47V50.29H125.96V50.54H125.44V51.71H125.95V51.96H123.48V51.71H123.99V50.54ZM125.13 50.54H124.3V51.71H125.13V50.54Z" fill="black"/>
<path d="M129.69 52.65V52.9H126.64V52.65H128V52.02H127.02V50.98H129.01V50.46H127.01V50.21H129.31V51.23H127.32V51.77H129.38V52.02H128.31V52.65H129.68H129.69Z" fill="black"/>
<path d="M133.13 52.5699V52.8199H130.1V52.5699H133.13ZM132.42 50.5699H130.42V50.3199H132.58H132.72V50.6499C132.72 51.0799 132.72 51.5599 132.59 52.2799L132.28 52.2499C132.41 51.5699 132.41 51.0699 132.41 50.6499V50.5599L132.42 50.5699Z" fill="black"/>
<path d="M133.94 52.26C134.32 52.26 134.67 52.24 135.1 52.17L135.12 52.42C134.66 52.5 134.28 52.51 133.86 52.51H133.64V51.25H134.59V50.57H133.63V50.32H134.89V51.5H133.94V52.25V52.26ZM136.38 49.96V53.31H136.08V51.53H135.61V53.14H135.32V50.03H135.61V51.28H136.08V49.96H136.38Z" fill="black"/>
<path d="M138.73 50.21V51.67H137.16V50.21H138.73ZM137.46 50.46V51.43H138.43V50.46H137.46ZM139.75 52.67C139.75 53.08 139.32 53.31 138.63 53.31C137.94 53.31 137.5 53.07 137.5 52.67C137.5 52.27 137.93 52.03 138.63 52.03C139.33 52.03 139.75 52.27 139.75 52.67ZM137.81 52.67C137.81 52.92 138.12 53.07 138.63 53.07C139.14 53.07 139.44 52.92 139.44 52.67C139.44 52.42 139.13 52.27 138.63 52.27C138.13 52.27 137.81 52.42 137.81 52.67ZM139.74 49.97V51.97H139.43V49.97H139.74Z" fill="black"/>
<path d="M113.61 55.08C113.61 55.94 113.31 56.74 112.35 57.28L112.17 57.06C112.94 56.63 113.26 56.02 113.3 55.33H112.29V55.08H113.6H113.61ZM115.02 54.65V58H114.72V56.25H114.26V57.83H113.97V54.73H114.26V55.99H114.72V54.64H115.02V54.65Z" fill="black"/>
<path d="M117.31 56.25H115.76V54.78H116.06V55.26H117.01V54.78H117.31V56.25ZM117.01 55.5H116.06V56H117.01V55.5ZM116.4 57.72H118.34V57.96H116.1V57.12H117.92V56.78H116.09V56.54H118.22V57.36H116.4V57.73V57.72ZM118.72 55.37V55.62H118.22V56.38H117.91V54.65H118.22V55.37H118.72Z" fill="black"/>
<path d="M121.99 56.28C121.61 56.15 121.3 55.86 121.15 55.51C121 55.9 120.69 56.2 120.3 56.34L120.14 56.1C120.64 55.92 120.99 55.48 120.99 54.99V54.74H121.3V54.99C121.3 55.45 121.65 55.87 122.15 56.04L122 56.28H121.99ZM122.98 57.71V57.95H120.7V57.12H122.56V56.79H120.69V56.55H122.86V57.36H121V57.72H122.97L122.98 57.71ZM122.86 56.38H122.55V54.64H122.86V56.38Z" fill="black"/>
<path d="M126.59 56.17V56.42H123.55V56.17H126.59ZM126.31 55.93C125.79 55.85 125.29 55.59 125.08 55.21C124.87 55.58 124.37 55.85 123.85 55.93L123.74 55.68C124.34 55.61 124.93 55.25 124.93 54.82V54.67H125.24V54.82C125.24 55.24 125.83 55.61 126.43 55.68L126.32 55.93H126.31ZM125.89 56.64H126.19V57.94H123.94V56.64H124.24V57.03H125.89V56.64ZM125.89 57.27H124.24V57.7H125.89V57.27Z" fill="black"/>
<path d="M128.88 56.28C128.5 56.15 128.19 55.86 128.04 55.51C127.89 55.9 127.58 56.2 127.19 56.34L127.03 56.1C127.53 55.92 127.88 55.48 127.88 54.99V54.74H128.19V54.99C128.19 55.45 128.54 55.87 129.04 56.04L128.89 56.28H128.88ZM129.87 57.71V57.95H127.59V57.12H129.45V56.79H127.58V56.55H129.75V57.36H127.89V57.72H129.86L129.87 57.71ZM129.75 56.38H129.44V54.64H129.75V56.38Z" fill="black"/>
<path d="M131.27 56.3399C131.27 55.3899 131.6 54.9299 132.13 54.9299C132.66 54.9299 132.98 55.3899 132.98 56.3399C132.98 57.2899 132.65 57.7699 132.13 57.7699C131.61 57.7699 131.27 57.2999 131.27 56.3399ZM132.65 56.3399C132.65 55.5399 132.44 55.1999 132.13 55.1999C131.82 55.1999 131.61 55.5399 131.61 56.3399C131.61 57.1399 131.82 57.4999 132.13 57.4999C132.44 57.4999 132.65 57.1499 132.65 56.3399Z" fill="black"/>
<path d="M133.28 57.3999L133.45 57.1799C133.61 57.3499 133.82 57.4899 134.13 57.4899C134.44 57.4899 134.69 57.2999 134.69 56.9799C134.69 56.6599 134.47 56.4299 133.84 56.4299V56.1699C134.4 56.1699 134.6 55.9399 134.6 55.6499C134.6 55.3799 134.42 55.2199 134.14 55.2099C133.92 55.2099 133.72 55.3299 133.57 55.4799L133.39 55.2599C133.6 55.0699 133.84 54.9299 134.16 54.9299C134.62 54.9299 134.96 55.1799 134.96 55.6199C134.96 55.9499 134.76 56.1699 134.47 56.2799V56.2999C134.8 56.3699 135.05 56.6199 135.05 56.9999C135.05 57.4899 134.66 57.7799 134.17 57.7799C133.74 57.7799 133.47 57.5999 133.29 57.4099L133.28 57.3999Z" fill="black"/>
<path d="M51.85 39.02H52.21L53.21 40.75L53.5 41.31H53.52C53.5 41.03 53.48 40.73 53.48 40.44V39.02H53.81V41.76H53.46L52.46 40.03L52.16 39.47H52.14C52.16 39.75 52.18 40.04 52.18 40.33V41.77H51.85V39.03V39.02Z" fill="black"/>
<path d="M54.4 40.39C54.4 39.5 54.92 38.97 55.61 38.97C55.94 38.97 56.2 39.14 56.36 39.31L56.17 39.53C56.03 39.38 55.84 39.27 55.61 39.27C55.09 39.27 54.75 39.7 54.75 40.38C54.75 41.06 55.08 41.51 55.6 41.51C55.86 41.51 56.06 41.39 56.24 41.2L56.43 41.42C56.21 41.67 55.94 41.81 55.59 41.81C54.91 41.81 54.4 41.28 54.4 40.39Z" fill="black"/>
<path d="M56.64 41.4L56.85 41.16C57.05 41.37 57.32 41.5 57.61 41.5C57.97 41.5 58.19 41.32 58.19 41.05C58.19 40.78 57.99 40.68 57.73 40.56L57.33 40.39C57.08 40.28 56.77 40.09 56.77 39.69C56.77 39.27 57.14 38.96 57.63 38.96C57.96 38.96 58.24 39.1 58.44 39.3L58.26 39.52C58.09 39.36 57.89 39.26 57.64 39.26C57.33 39.26 57.13 39.42 57.13 39.66C57.13 39.93 57.37 40.03 57.58 40.12L57.97 40.29C58.29 40.43 58.53 40.62 58.53 41.02C58.53 41.45 58.17 41.8 57.6 41.8C57.21 41.8 56.88 41.64 56.64 41.39V41.4Z" fill="black"/>
<path d="M62.77 40.32V40.57H59.74V40.32H62.77ZM62.43 39.41C62.43 39.81 61.98 40.05 61.25 40.05C60.52 40.05 60.07 39.81 60.07 39.41C60.07 39.01 60.53 38.77 61.25 38.77C61.97 38.77 62.43 39.01 62.43 39.41ZM62.4 41.44C62.4 41.82 61.97 42.04 61.25 42.04C60.53 42.04 60.1 41.82 60.1 41.44C60.1 41.06 60.53 40.84 61.25 40.84C61.97 40.84 62.4 41.05 62.4 41.44ZM60.39 39.41C60.39 39.66 60.72 39.81 61.25 39.81C61.78 39.81 62.11 39.66 62.11 39.41C62.11 39.16 61.78 39.01 61.25 39.01C60.72 39.01 60.39 39.16 60.39 39.41ZM60.42 41.44C60.42 41.67 60.73 41.8 61.26 41.8C61.79 41.8 62.1 41.67 62.1 41.44C62.1 41.21 61.79 41.08 61.26 41.08C60.73 41.08 60.42 41.21 60.42 41.44Z" fill="black"/>
<path d="M66.22 40.34V40.59H63.18V40.34H63.93V39.87C63.66 39.76 63.52 39.59 63.52 39.37C63.52 38.98 63.97 38.75 64.7 38.75C65.43 38.75 65.88 38.98 65.88 39.37C65.88 39.59 65.73 39.77 65.47 39.87V40.34H66.22ZM65.85 41.44C65.85 41.82 65.42 42.03 64.7 42.03C63.98 42.03 63.55 41.82 63.55 41.44C63.55 41.06 63.98 40.84 64.7 40.84C65.42 40.84 65.85 41.05 65.85 41.44ZM64.7 39.75C65.23 39.75 65.56 39.6 65.56 39.37C65.56 39.14 65.23 38.99 64.7 38.99C64.17 38.99 63.84 39.13 63.84 39.37C63.84 39.61 64.17 39.75 64.7 39.75ZM65.54 41.44C65.54 41.21 65.23 41.08 64.7 41.08C64.17 41.08 63.86 41.21 63.86 41.44C63.86 41.67 64.17 41.8 64.7 41.8C65.23 41.8 65.54 41.67 65.54 41.44ZM64.24 40.34H65.17V39.95C65.03 39.97 64.87 39.99 64.7 39.99C64.53 39.99 64.37 39.98 64.24 39.95V40.34Z" fill="black"/>
<path d="M70.72 41.35V41.6H67.68V41.35H70.72ZM68.47 39.26H67.95V39.01H70.44V39.26H69.92V40.43H70.43V40.68H67.96V40.43H68.47V39.26ZM69.61 39.26H68.78V40.43H69.61V39.26Z" fill="black"/>
<path d="M74.17 41.37V41.62H71.12V41.37H72.48V40.74H71.5V39.7H73.49V39.18H71.49V38.93H73.79V39.95H71.8V40.49H73.86V40.74H72.79V41.37H74.16H74.17Z" fill="black"/>
<path d="M77.61 41.29V41.54H74.58V41.29H77.61ZM76.9 39.29H74.9V39.04H77.06H77.2V39.37C77.2 39.8 77.2 40.28 77.07 41L76.76 40.97C76.89 40.29 76.89 39.79 76.89 39.37V39.28L76.9 39.29Z" fill="black"/>
<path d="M78.43 40.98C78.81 40.98 79.16 40.96 79.59 40.89L79.61 41.14C79.15 41.22 78.77 41.23 78.35 41.23H78.13V39.97H79.08V39.29H78.12V39.04H79.38V40.22H78.43V40.97V40.98ZM80.87 38.68V42.03H80.57V40.25H80.1V41.86H79.81V38.75H80.1V40H80.57V38.68H80.87Z" fill="black"/>
<path d="M83.21 38.93V40.39H81.64V38.93H83.21ZM81.94 39.18V40.15H82.91V39.18H81.94ZM84.23 41.39C84.23 41.8 83.8 42.03 83.11 42.03C82.42 42.03 81.98 41.79 81.98 41.39C81.98 40.99 82.41 40.75 83.11 40.75C83.81 40.75 84.23 40.99 84.23 41.39ZM82.29 41.39C82.29 41.64 82.6 41.79 83.11 41.79C83.62 41.79 83.92 41.64 83.92 41.39C83.92 41.14 83.61 40.99 83.11 40.99C82.61 40.99 82.29 41.14 82.29 41.39ZM84.22 38.69V40.69H83.91V38.69H84.22Z" fill="black"/>
<path d="M58.09 43.8C58.09 44.66 57.79 45.46 56.83 46L56.65 45.78C57.42 45.35 57.74 44.74 57.78 44.05H56.77V43.8H58.08H58.09ZM59.5 43.37V46.72H59.2V44.97H58.74V46.55H58.45V43.45H58.74V44.71H59.2V43.36H59.5V43.37Z" fill="black"/>
<path d="M61.79 44.97H60.24V43.5H60.54V43.98H61.49V43.5H61.79V44.97ZM61.49 44.22H60.54V44.72H61.49V44.22ZM60.88 46.44H62.82V46.68H60.58V45.84H62.4V45.5H60.57V45.26H62.7V46.08H60.88V46.45V46.44ZM63.2 44.09V44.34H62.7V45.1H62.39V43.37H62.7V44.09H63.2Z" fill="black"/>
<path d="M66.47 45.01C66.09 44.88 65.78 44.59 65.63 44.24C65.48 44.63 65.17 44.93 64.78 45.07L64.62 44.83C65.12 44.65 65.47 44.21 65.47 43.72V43.47H65.78V43.72C65.78 44.18 66.13 44.6 66.63 44.77L66.48 45.01H66.47ZM67.46 46.44V46.68H65.18V45.85H67.04V45.52H65.17V45.28H67.34V46.09H65.48V46.45H67.45L67.46 46.44ZM67.34 45.11H67.03V43.37H67.34V45.11Z" fill="black"/>
<path d="M71.07 44.9V45.15H68.03V44.9H71.07ZM70.79 44.66C70.27 44.58 69.77 44.32 69.56 43.94C69.35 44.31 68.85 44.58 68.33 44.66L68.22 44.41C68.82 44.34 69.41 43.98 69.41 43.55V43.4H69.72V43.55C69.72 43.97 70.31 44.34 70.91 44.41L70.8 44.66H70.79ZM70.37 45.37H70.67V46.67H68.42V45.37H68.72V45.76H70.37V45.37ZM70.37 46H68.72V46.43H70.37V46Z" fill="black"/>
<path d="M73.36 45.01C72.98 44.88 72.67 44.59 72.52 44.24C72.37 44.63 72.06 44.93 71.67 45.07L71.51 44.83C72.01 44.65 72.36 44.21 72.36 43.72V43.47H72.67V43.72C72.67 44.18 73.02 44.6 73.52 44.77L73.37 45.01H73.36ZM74.35 46.44V46.68H72.07V45.85H73.93V45.52H72.06V45.28H74.23V46.09H72.37V46.45H74.34L74.35 46.44ZM74.23 45.11H73.92V43.37H74.23V45.11Z" fill="black"/>
<path d="M75.76 45.06C75.76 44.11 76.09 43.65 76.62 43.65C77.15 43.65 77.47 44.11 77.47 45.06C77.47 46.01 77.14 46.49 76.62 46.49C76.1 46.49 75.76 46.02 75.76 45.06ZM77.14 45.06C77.14 44.26 76.93 43.92 76.62 43.92C76.31 43.92 76.1 44.26 76.1 45.06C76.1 45.86 76.31 46.22 76.62 46.22C76.93 46.22 77.14 45.87 77.14 45.06Z" fill="black"/>
<path d="M79.61 45.69H79.25V46.44H78.92V45.69H77.73V45.47L78.87 43.71H79.25V45.42H79.61V45.69ZM78.92 45.42V44.58C78.92 44.45 78.94 44.22 78.94 44.08H78.93C78.86 44.21 78.79 44.35 78.71 44.48L78.09 45.41H78.93L78.92 45.42Z" fill="black"/>
<path d="M60.84 26.25C61.14 26.24 61.45 26.21 61.74 26.17L61.76 26.4C61.04 26.53 60.25 26.53 59.67 26.53L59.63 26.27C59.9 26.27 60.21 26.27 60.54 26.26V25.89C60.15 25.84 59.9 25.61 59.9 25.28C59.9 24.9 60.23 24.66 60.69 24.66C61.15 24.66 61.48 24.9 61.48 25.28C61.48 25.61 61.23 25.84 60.84 25.89V26.24V26.25ZM61.68 24.46H59.68V24.22H60.53V23.82H60.84V24.22H61.68V24.46ZM60.68 25.66C60.98 25.66 61.18 25.51 61.18 25.28C61.18 25.05 60.98 24.9 60.68 24.9C60.38 24.9 60.18 25.05 60.18 25.28C60.18 25.51 60.38 25.66 60.68 25.66ZM62.76 25.49H62.24V27.16H61.93V23.81H62.24V25.23H62.76V25.49Z" fill="black"/>
<path d="M64.91 25.68C64.53 25.56 64.24 25.29 64.1 24.96C63.96 25.34 63.66 25.64 63.26 25.78L63.1 25.54C63.6 25.36 63.94 24.93 63.94 24.45V24.32H63.19V24.07H64.99V24.32H64.25V24.45C64.25 24.89 64.57 25.28 65.06 25.44L64.91 25.68ZM65.75 26.55C65.75 26.94 65.33 27.17 64.65 27.17C63.97 27.17 63.54 26.94 63.54 26.55C63.54 26.16 63.96 25.93 64.65 25.93C65.34 25.93 65.75 26.16 65.75 26.55ZM65.44 26.55C65.44 26.31 65.14 26.18 64.64 26.18C64.14 26.18 63.84 26.32 63.84 26.55C63.84 26.78 64.14 26.93 64.64 26.93C65.14 26.93 65.44 26.79 65.44 26.55ZM66.21 24.67V24.93H65.71V25.85H65.4V23.83H65.71V24.67H66.21Z" fill="black"/>
<path d="M68.43 25.46C68.05 25.33 67.74 25.04 67.59 24.69C67.44 25.08 67.13 25.38 66.74 25.52L66.58 25.28C67.08 25.1 67.43 24.66 67.43 24.17V23.92H67.74V24.17C67.74 24.63 68.09 25.05 68.59 25.22L68.44 25.46H68.43ZM69.42 26.89V27.13H67.14V26.3H69V25.97H67.13V25.73H69.3V26.54H67.44V26.9H69.41L69.42 26.89ZM69.3 25.56H68.99V23.82H69.3V25.56Z" fill="black"/>
<path d="M70.98 25.73C70.98 25 71.19 24.39 71.53 23.84L71.74 23.94C71.41 24.48 71.26 25.1 71.26 25.74C71.26 26.38 71.41 27.01 71.74 27.54L71.53 27.64C71.19 27.08 70.98 26.48 70.98 25.74V25.73Z" fill="black"/>
<path d="M74.87 23.82V27.18H74.56V25.88H73.72C73.58 26.22 73.32 26.42 73 26.42C72.51 26.42 72.16 25.96 72.16 25.25C72.16 24.54 72.51 24.08 73 24.08C73.31 24.08 73.56 24.26 73.7 24.57H74.56V23.82H74.87ZM73.55 25.25C73.55 24.71 73.32 24.36 73 24.36C72.68 24.36 72.45 24.71 72.45 25.25C72.45 25.79 72.67 26.15 73 26.15C73.33 26.15 73.55 25.8 73.55 25.25ZM74.56 25.63V24.82H73.79C73.82 24.95 73.84 25.09 73.84 25.25C73.84 25.39 73.82 25.52 73.8 25.63H74.56Z" fill="black"/>
<path d="M75.51 27.53C75.83 27 75.99 26.37 75.99 25.73C75.99 25.09 75.83 24.47 75.51 23.93L75.72 23.83C76.07 24.39 76.27 24.99 76.27 25.72C76.27 26.45 76.06 27.06 75.72 27.62L75.51 27.52V27.53Z" fill="black"/>
<path d="M118.33 70.29V70.54H115.29V70.29H116.64V69.47H116.95V70.29H118.33ZM118.05 69.52C117.54 69.41 117.01 69.06 116.79 68.59C116.57 69.07 116.05 69.42 115.53 69.52L115.4 69.27C115.99 69.17 116.62 68.67 116.62 68.11V67.85H116.94V68.11C116.94 68.67 117.58 69.16 118.17 69.27L118.04 69.52H118.05Z" fill="black"/>
<path d="M121.77 70.29V70.54H118.73V70.29H121.77ZM119.52 68.2H119V67.95H121.49V68.2H120.97V69.37H121.48V69.62H119.01V69.37H119.52V68.2ZM120.66 68.2H119.83V69.37H120.66V68.2Z" fill="black"/>
<path d="M125.22 70.29V70.54H122.18V70.29H125.22ZM124.87 69.68H122.57V67.92H124.84V68.17H122.88V68.67H124.76V68.91H122.88V69.44H124.87V69.69V69.68Z" fill="black"/>
<path d="M127.35 69.47C127.11 69.52 126.86 69.54 126.6 69.56V70.71H126.31V69.58C126.06 69.59 125.81 69.59 125.62 69.59L125.58 69.33C126.04 69.33 126.78 69.33 127.33 69.24L127.35 69.46V69.47ZM125.74 68.46C125.74 68.09 126.05 67.84 126.47 67.84C126.89 67.84 127.2 68.09 127.2 68.46C127.2 68.83 126.89 69.08 126.47 69.08C126.05 69.08 125.74 68.83 125.74 68.46ZM126.01 68.46C126.01 68.69 126.2 68.84 126.47 68.84C126.74 68.84 126.92 68.68 126.92 68.46C126.92 68.24 126.73 68.08 126.47 68.08C126.21 68.08 126.01 68.24 126.01 68.46ZM127.54 67.71H127.83V70.81H127.54V70.07H126.91V69.83H127.54V67.71ZM128.47 67.63V70.98H128.17V67.63H128.47Z" fill="black"/>
<path d="M131.83 67.62V70.98H131.52V69.15H130.79C130.76 69.81 130.43 70.22 129.96 70.22C129.49 70.22 129.12 69.76 129.12 69.05C129.12 68.34 129.47 67.88 129.96 67.88C130.41 67.88 130.74 68.27 130.79 68.9H131.52V67.62H131.83ZM130.51 69.05C130.51 68.51 130.29 68.16 129.97 68.16C129.65 68.16 129.42 68.51 129.42 69.05C129.42 69.59 129.64 69.95 129.97 69.95C130.3 69.95 130.51 69.6 130.51 69.05Z" fill="black"/>
<path d="M117.68 73.33C117.68 73.9 118.08 74.48 118.58 74.69L118.41 74.94C118.02 74.76 117.69 74.38 117.53 73.92C117.38 74.41 117.05 74.83 116.67 75.03L116.49 74.78C116.97 74.55 117.38 73.92 117.38 73.34V72.91H116.6V72.66H118.47V72.91H117.68V73.34V73.33ZM119.23 72.31V75.66H118.92V72.31H119.23Z" fill="black"/>
<path d="M120.88 74.09C120.55 74.11 120.23 74.11 119.95 74.11L119.91 73.86C120.53 73.86 121.36 73.86 122.07 73.76L122.1 73.98C121.81 74.02 121.49 74.06 121.19 74.08V74.74H120.88V74.09ZM120.17 73.02C120.17 72.67 120.51 72.44 121 72.44C121.49 72.44 121.83 72.67 121.83 73.02C121.83 73.37 121.49 73.61 121 73.61C120.51 73.61 120.17 73.38 120.17 73.02ZM122.75 75.33V75.58H120.38V74.6H120.69V75.32H122.75V75.33ZM120.46 73.02C120.46 73.24 120.68 73.38 120.99 73.38C121.3 73.38 121.52 73.24 121.52 73.02C121.52 72.8 121.3 72.67 120.99 72.67C120.68 72.67 120.46 72.81 120.46 73.02ZM122.36 74.28V72.3H122.67V74.85H122.36V74.51H121.68V74.28H122.36Z" fill="black"/>
<path d="M125.91 74.25C125.61 74.11 125.39 73.86 125.27 73.56C125.15 73.89 124.92 74.18 124.6 74.34L124.43 74.1C124.86 73.89 125.12 73.43 125.12 73.03V72.54H125.42V73.03C125.42 73.43 125.66 73.82 126.08 74.01L125.91 74.25ZM127.36 75.33V75.58H125.08V74.51H125.39V75.33H127.37H127.36ZM126.31 73.4H125.79V73.15H126.31V72.37H126.6V74.72H126.31V73.4ZM127.26 74.82H126.96V72.3H127.26V74.82Z" fill="black"/>
<path d="M128.33 74.6C128.94 74.6 129.32 74.58 129.78 74.5L129.81 74.75C129.32 74.84 128.92 74.85 128.28 74.85H128.02V72.6H129.57V72.85H128.33V73.54H129.43V73.79H128.33V74.59V74.6ZM130.63 72.3V75.66H130.32V73.82H129.63V73.57H130.32V72.3H130.63Z" fill="black"/>
<path d="M107.37 28.68H107.73L108.73 30.41L109.02 30.97H109.04C109.02 30.69 109 30.39 109 30.1V28.68H109.33V31.42H108.98L107.98 29.69L107.68 29.13H107.66C107.68 29.41 107.7 29.7 107.7 29.99V31.43H107.37V28.69V28.68Z" fill="black"/>
<path d="M109.92 30.0499C109.92 29.1599 110.44 28.6299 111.13 28.6299C111.46 28.6299 111.72 28.7999 111.88 28.9699L111.69 29.1899C111.55 29.0399 111.36 28.9299 111.13 28.9299C110.61 28.9299 110.27 29.3599 110.27 30.0399C110.27 30.7199 110.6 31.1699 111.12 31.1699C111.38 31.1699 111.58 31.0499 111.76 30.8599L111.95 31.0799C111.73 31.3299 111.46 31.4699 111.11 31.4699C110.43 31.4699 109.92 30.9399 109.92 30.0499Z" fill="black"/>
<path d="M112.16 31.06L112.37 30.82C112.57 31.03 112.84 31.16 113.13 31.16C113.49 31.16 113.71 30.98 113.71 30.71C113.71 30.44 113.51 30.34 113.25 30.22L112.85 30.05C112.6 29.94 112.29 29.75 112.29 29.35C112.29 28.93 112.66 28.62 113.15 28.62C113.48 28.62 113.76 28.76 113.96 28.96L113.78 29.18C113.61 29.02 113.41 28.92 113.16 28.92C112.85 28.92 112.65 29.08 112.65 29.32C112.65 29.59 112.89 29.69 113.1 29.78L113.49 29.95C113.81 30.09 114.05 30.28 114.05 30.68C114.05 31.11 113.69 31.46 113.12 31.46C112.73 31.46 112.4 31.3 112.16 31.05V31.06Z" fill="black"/>
<path d="M118.29 29.97V30.22H115.26V29.97H118.29ZM117.95 29.06C117.95 29.46 117.5 29.7 116.77 29.7C116.04 29.7 115.59 29.46 115.59 29.06C115.59 28.66 116.05 28.42 116.77 28.42C117.49 28.42 117.95 28.66 117.95 29.06ZM117.92 31.09C117.92 31.47 117.49 31.69 116.77 31.69C116.05 31.69 115.62 31.47 115.62 31.09C115.62 30.71 116.05 30.49 116.77 30.49C117.49 30.49 117.92 30.7 117.92 31.09ZM115.91 29.06C115.91 29.31 116.24 29.46 116.77 29.46C117.3 29.46 117.63 29.31 117.63 29.06C117.63 28.81 117.3 28.66 116.77 28.66C116.24 28.66 115.91 28.81 115.91 29.06ZM115.94 31.09C115.94 31.32 116.25 31.45 116.78 31.45C117.31 31.45 117.62 31.32 117.62 31.09C117.62 30.86 117.31 30.73 116.78 30.73C116.25 30.73 115.94 30.86 115.94 31.09Z" fill="black"/>
<path d="M121.74 30V30.25H118.7V30H119.45V29.53C119.18 29.42 119.04 29.25 119.04 29.03C119.04 28.64 119.49 28.41 120.22 28.41C120.95 28.41 121.4 28.64 121.4 29.03C121.4 29.25 121.25 29.43 120.99 29.53V30H121.74ZM121.37 31.1C121.37 31.48 120.94 31.69 120.22 31.69C119.5 31.69 119.07 31.48 119.07 31.1C119.07 30.72 119.5 30.5 120.22 30.5C120.94 30.5 121.37 30.71 121.37 31.1ZM120.22 29.41C120.75 29.41 121.08 29.26 121.08 29.03C121.08 28.8 120.75 28.65 120.22 28.65C119.69 28.65 119.36 28.79 119.36 29.03C119.36 29.27 119.69 29.41 120.22 29.41ZM121.06 31.1C121.06 30.87 120.75 30.74 120.22 30.74C119.69 30.74 119.38 30.87 119.38 31.1C119.38 31.33 119.69 31.46 120.22 31.46C120.75 31.46 121.06 31.33 121.06 31.1ZM119.76 30H120.69V29.61C120.55 29.63 120.39 29.65 120.22 29.65C120.05 29.65 119.89 29.64 119.76 29.61V30Z" fill="black"/>
<path d="M126.24 31.01V31.26H123.2V31.01H126.24ZM123.99 28.92H123.47V28.67H125.96V28.92H125.44V30.09H125.95V30.34H123.48V30.09H123.99V28.92ZM125.13 28.92H124.3V30.09H125.13V28.92Z" fill="black"/>
<path d="M129.69 31.03V31.28H126.64V31.03H128V30.4H127.02V29.36H129.01V28.84H127.01V28.59H129.31V29.61H127.32V30.15H129.38V30.4H128.31V31.03H129.68H129.69Z" fill="black"/>
<path d="M133.13 30.95V31.2H130.1V30.95H133.13ZM132.42 28.95H130.42V28.7H132.58H132.72V29.03C132.72 29.46 132.72 29.94 132.59 30.66L132.28 30.6299C132.41 29.9499 132.41 29.45 132.41 29.03V28.94L132.42 28.95Z" fill="black"/>
<path d="M133.94 30.64C134.32 30.64 134.67 30.62 135.1 30.55L135.12 30.8C134.66 30.88 134.28 30.89 133.86 30.89H133.64V29.63H134.59V28.95H133.63V28.7H134.89V29.88H133.94V30.63V30.64ZM136.38 28.34V31.69H136.08V29.91H135.61V31.52H135.32V28.41H135.61V29.66H136.08V28.34H136.38Z" fill="black"/>
<path d="M138.73 28.59V30.05H137.16V28.59H138.73ZM137.46 28.84V29.81H138.43V28.84H137.46ZM139.75 31.05C139.75 31.46 139.32 31.69 138.63 31.69C137.94 31.69 137.5 31.45 137.5 31.05C137.5 30.65 137.93 30.41 138.63 30.41C139.33 30.41 139.75 30.65 139.75 31.05ZM137.81 31.05C137.81 31.3 138.12 31.45 138.63 31.45C139.14 31.45 139.44 31.3 139.44 31.05C139.44 30.8 139.13 30.65 138.63 30.65C138.13 30.65 137.81 30.8 137.81 31.05ZM139.74 28.35V30.35H139.43V28.35H139.74Z" fill="black"/>
<path d="M113.61 33.46C113.61 34.32 113.31 35.12 112.35 35.66L112.17 35.44C112.94 35.01 113.26 34.4 113.3 33.71H112.29V33.46H113.6H113.61ZM115.02 33.03V36.38H114.72V34.63H114.26V36.21H113.97V33.11H114.26V34.37H114.72V33.02H115.02V33.03Z" fill="black"/>
<path d="M117.31 34.63H115.76V33.16H116.06V33.64H117.01V33.16H117.31V34.63ZM117.01 33.88H116.06V34.38H117.01V33.88ZM116.4 36.1H118.34V36.34H116.1V35.5H117.92V35.16H116.09V34.92H118.22V35.74H116.4V36.11V36.1ZM118.72 33.75V34H118.22V34.76H117.91V33.03H118.22V33.75H118.72Z" fill="black"/>
<path d="M121.99 34.67C121.61 34.54 121.3 34.25 121.15 33.9C121 34.29 120.69 34.59 120.3 34.73L120.14 34.49C120.64 34.31 120.99 33.87 120.99 33.38V33.13H121.3V33.38C121.3 33.84 121.65 34.26 122.15 34.43L122 34.67H121.99ZM122.98 36.1V36.34H120.7V35.51H122.56V35.18H120.69V34.94H122.86V35.75H121V36.11H122.97L122.98 36.1ZM122.86 34.77H122.55V33.03H122.86V34.77Z" fill="black"/>
<path d="M126.59 34.55V34.8H123.55V34.55H126.59ZM126.31 34.31C125.79 34.23 125.29 33.97 125.08 33.59C124.87 33.96 124.37 34.23 123.85 34.31L123.74 34.06C124.34 33.99 124.93 33.63 124.93 33.2V33.05H125.24V33.2C125.24 33.62 125.83 33.99 126.43 34.06L126.32 34.31H126.31ZM125.89 35.02H126.19V36.32H123.94V35.02H124.24V35.41H125.89V35.02ZM125.89 35.65H124.24V36.08H125.89V35.65Z" fill="black"/>
<path d="M128.88 34.67C128.5 34.54 128.19 34.25 128.04 33.9C127.89 34.29 127.58 34.59 127.19 34.73L127.03 34.49C127.53 34.31 127.88 33.87 127.88 33.38V33.13H128.19V33.38C128.19 33.84 128.54 34.26 129.04 34.43L128.89 34.67H128.88ZM129.87 36.1V36.34H127.59V35.51H129.45V35.18H127.58V34.94H129.75V35.75H127.89V36.11H129.86L129.87 36.1ZM129.75 34.77H129.44V33.03H129.75V34.77Z" fill="black"/>
<path d="M131.27 34.7199C131.27 33.7699 131.6 33.3099 132.13 33.3099C132.66 33.3099 132.98 33.7699 132.98 34.7199C132.98 35.6699 132.65 36.1499 132.13 36.1499C131.61 36.1499 131.27 35.6799 131.27 34.7199ZM132.65 34.7199C132.65 33.9199 132.44 33.5799 132.13 33.5799C131.82 33.5799 131.61 33.9199 131.61 34.7199C131.61 35.5199 131.82 35.8799 132.13 35.8799C132.44 35.8799 132.65 35.5299 132.65 34.7199Z" fill="black"/>
<path d="M133.27 35.79L133.44 35.57C133.6 35.73 133.79 35.87 134.11 35.87C134.43 35.87 134.69 35.62 134.69 35.22C134.69 34.82 134.47 34.6 134.12 34.6C133.94 34.6 133.82 34.66 133.66 34.76L133.48 34.65L133.57 33.37H134.9V33.66H133.86L133.79 34.45C133.91 34.38 134.03 34.34 134.2 34.34C134.66 34.34 135.03 34.61 135.03 35.21C135.03 35.81 134.6 36.15 134.13 36.15C133.7 36.15 133.44 35.97 133.26 35.79H133.27Z" fill="black"/>
<path d="M116.38 85.69V86.05C117 86.08 117.37 86.29 117.37 86.63C117.37 87.01 116.94 87.22 116.23 87.22C115.52 87.22 115.08 87.01 115.08 86.63C115.08 86.28 115.45 86.08 116.07 86.05V85.69H114.71V85.44H117.74V85.69H116.38ZM114.88 85C115.47 84.93 116 84.64 116.03 84.27H114.99V84.02H117.47V84.27H116.43C116.46 84.64 116.99 84.93 117.58 85L117.47 85.24C116.92 85.17 116.42 84.93 116.23 84.56C116.05 84.93 115.54 85.18 114.99 85.24L114.88 85ZM116.22 86.28C115.69 86.28 115.38 86.41 115.38 86.63C115.38 86.85 115.69 86.98 116.22 86.98C116.75 86.98 117.06 86.85 117.06 86.63C117.06 86.41 116.75 86.28 116.22 86.28Z" fill="black"/>
<path d="M119.1 85.65C118.59 85.65 118.22 85.33 118.22 84.86C118.22 84.39 118.59 84.07 119.1 84.07C119.61 84.07 119.97 84.39 119.97 84.86C119.97 85.33 119.6 85.65 119.1 85.65ZM119.1 85.39C119.43 85.39 119.68 85.17 119.68 84.86C119.68 84.55 119.44 84.32 119.1 84.32C118.76 84.32 118.52 84.54 118.52 84.86C118.52 85.18 118.76 85.39 119.1 85.39ZM120.8 86.59C120.8 86.99 120.37 87.22 119.7 87.22C119.03 87.22 118.59 86.99 118.59 86.59C118.59 86.19 119.02 85.96 119.7 85.96C120.38 85.96 120.8 86.19 120.8 86.59ZM120.49 86.59C120.49 86.35 120.19 86.21 119.69 86.21C119.19 86.21 118.89 86.35 118.89 86.59C118.89 86.83 119.19 86.98 119.69 86.98C120.19 86.98 120.49 86.83 120.49 86.59ZM121.26 84.71V84.97H120.76V85.86H120.45V83.87H120.76V84.7H121.26V84.71Z" fill="black"/>
<path d="M123.63 84.82C123.63 85.4 123.88 85.99 124.34 86.25L124.15 86.47C123.82 86.28 123.59 85.92 123.48 85.49C123.36 85.95 123.12 86.34 122.79 86.55L122.6 86.32C123.07 86.04 123.33 85.43 123.33 84.81V84.51H122.69V84.26H124.22V84.51H123.62V84.81L123.63 84.82ZM124.53 83.95H124.82V87.05H124.53V85.33H123.98V85.08H124.53V83.95ZM125.5 83.87V87.22H125.2V83.87H125.5Z" fill="black"/>
<path d="M128.86 83.87V87.23H128.55V85.4H127.82C127.79 86.06 127.46 86.47 126.99 86.47C126.52 86.47 126.15 86.01 126.15 85.3C126.15 84.59 126.5 84.13 126.99 84.13C127.44 84.13 127.77 84.52 127.82 85.15H128.55V83.87H128.86ZM127.54 85.3C127.54 84.76 127.32 84.41 127 84.41C126.68 84.41 126.45 84.76 126.45 85.3C126.45 85.84 126.67 86.2 127 86.2C127.33 86.2 127.54 85.85 127.54 85.3Z" fill="black"/>
<path d="M131.42 85.52C131.04 85.39 130.73 85.1 130.58 84.75C130.43 85.14 130.12 85.44 129.73 85.58L129.57 85.34C130.07 85.16 130.42 84.72 130.42 84.23V83.98H130.73V84.23C130.73 84.69 131.08 85.11 131.58 85.28L131.43 85.52H131.42ZM132.41 86.95V87.19H130.13V86.36H131.99V86.03H130.12V85.79H132.29V86.6H130.43V86.96H132.4L132.41 86.95ZM132.29 85.62H131.98V83.88H132.29V85.62Z" fill="black"/>
<path d="M51.85 103.38H52.21L53.21 105.11L53.5 105.67H53.52C53.5 105.39 53.48 105.09 53.48 104.8V103.38H53.81V106.12H53.46L52.46 104.39L52.16 103.83H52.14C52.16 104.11 52.18 104.4 52.18 104.69V106.13H51.85V103.39V103.38Z" fill="black"/>
<path d="M54.4 104.76C54.4 103.87 54.92 103.34 55.61 103.34C55.94 103.34 56.2 103.51 56.36 103.68L56.17 103.9C56.03 103.75 55.84 103.64 55.61 103.64C55.09 103.64 54.75 104.07 54.75 104.75C54.75 105.43 55.08 105.88 55.6 105.88C55.86 105.88 56.06 105.76 56.24 105.57L56.43 105.79C56.21 106.04 55.94 106.18 55.59 106.18C54.91 106.18 54.4 105.65 54.4 104.76Z" fill="black"/>
<path d="M56.64 105.77L56.85 105.53C57.05 105.74 57.32 105.87 57.61 105.87C57.97 105.87 58.19 105.69 58.19 105.42C58.19 105.15 57.99 105.05 57.73 104.93L57.33 104.76C57.08 104.65 56.77 104.46 56.77 104.06C56.77 103.64 57.14 103.33 57.63 103.33C57.96 103.33 58.24 103.47 58.44 103.67L58.26 103.89C58.09 103.73 57.89 103.63 57.64 103.63C57.33 103.63 57.13 103.79 57.13 104.03C57.13 104.3 57.37 104.4 57.58 104.49L57.97 104.66C58.29 104.8 58.53 104.99 58.53 105.39C58.53 105.82 58.17 106.17 57.6 106.17C57.21 106.17 56.88 106.01 56.64 105.76V105.77Z" fill="black"/>
<path d="M62.77 104.68V104.93H59.74V104.68H62.77ZM62.43 103.77C62.43 104.17 61.98 104.41 61.25 104.41C60.52 104.41 60.07 104.17 60.07 103.77C60.07 103.37 60.53 103.13 61.25 103.13C61.97 103.13 62.43 103.37 62.43 103.77ZM62.4 105.8C62.4 106.18 61.97 106.4 61.25 106.4C60.53 106.4 60.1 106.18 60.1 105.8C60.1 105.42 60.53 105.2 61.25 105.2C61.97 105.2 62.4 105.41 62.4 105.8ZM60.39 103.77C60.39 104.02 60.72 104.17 61.25 104.17C61.78 104.17 62.11 104.02 62.11 103.77C62.11 103.52 61.78 103.37 61.25 103.37C60.72 103.37 60.39 103.52 60.39 103.77ZM60.42 105.8C60.42 106.03 60.73 106.16 61.26 106.16C61.79 106.16 62.1 106.03 62.1 105.8C62.1 105.57 61.79 105.44 61.26 105.44C60.73 105.44 60.42 105.57 60.42 105.8Z" fill="black"/>
<path d="M66.22 104.71V104.96H63.18V104.71H63.93V104.24C63.66 104.13 63.52 103.96 63.52 103.74C63.52 103.35 63.97 103.12 64.7 103.12C65.43 103.12 65.88 103.35 65.88 103.74C65.88 103.96 65.73 104.14 65.47 104.24V104.71H66.22ZM65.85 105.81C65.85 106.19 65.42 106.4 64.7 106.4C63.98 106.4 63.55 106.19 63.55 105.81C63.55 105.43 63.98 105.21 64.7 105.21C65.42 105.21 65.85 105.42 65.85 105.81ZM64.7 104.12C65.23 104.12 65.56 103.97 65.56 103.74C65.56 103.51 65.23 103.36 64.7 103.36C64.17 103.36 63.84 103.5 63.84 103.74C63.84 103.98 64.17 104.12 64.7 104.12ZM65.54 105.81C65.54 105.58 65.23 105.45 64.7 105.45C64.17 105.45 63.86 105.58 63.86 105.81C63.86 106.04 64.17 106.17 64.7 106.17C65.23 106.17 65.54 106.04 65.54 105.81ZM64.24 104.71H65.17V104.32C65.03 104.34 64.87 104.36 64.7 104.36C64.53 104.36 64.37 104.35 64.24 104.32V104.71Z" fill="black"/>
<path d="M70.72 105.72V105.97H67.68V105.72H70.72ZM68.47 103.63H67.95V103.38H70.44V103.63H69.92V104.8H70.43V105.05H67.96V104.8H68.47V103.63ZM69.61 103.63H68.78V104.8H69.61V103.63Z" fill="black"/>
<path d="M74.17 105.74V105.99H71.12V105.74H72.48V105.11H71.5V104.07H73.49V103.55H71.49V103.3H73.79V104.32H71.8V104.86H73.86V105.11H72.79V105.74H74.16H74.17Z" fill="black"/>
<path d="M77.61 105.66V105.91H74.58V105.66H77.61ZM76.9 103.66H74.9V103.41H77.06H77.2V103.74C77.2 104.17 77.2 104.65 77.07 105.37L76.76 105.34C76.89 104.66 76.89 104.16 76.89 103.74V103.65L76.9 103.66Z" fill="black"/>
<path d="M78.43 105.34C78.81 105.34 79.16 105.32 79.59 105.25L79.61 105.5C79.15 105.58 78.77 105.59 78.35 105.59H78.13V104.33H79.08V103.65H78.12V103.4H79.38V104.58H78.43V105.33V105.34ZM80.87 103.04V106.39H80.57V104.61H80.1V106.22H79.81V103.11H80.1V104.36H80.57V103.04H80.87Z" fill="black"/>
<path d="M83.21 103.29V104.75H81.64V103.29H83.21ZM81.94 103.54V104.51H82.91V103.54H81.94ZM84.23 105.75C84.23 106.16 83.8 106.39 83.11 106.39C82.42 106.39 81.98 106.15 81.98 105.75C81.98 105.35 82.41 105.11 83.11 105.11C83.81 105.11 84.23 105.35 84.23 105.75ZM82.29 105.75C82.29 106 82.6 106.15 83.11 106.15C83.62 106.15 83.92 106 83.92 105.75C83.92 105.5 83.61 105.35 83.11 105.35C82.61 105.35 82.29 105.5 82.29 105.75ZM84.22 103.05V105.05H83.91V103.05H84.22Z" fill="black"/>
<path d="M58.09 108.16C58.09 109.02 57.79 109.82 56.83 110.36L56.65 110.14C57.42 109.71 57.74 109.1 57.78 108.41H56.77V108.16H58.08H58.09ZM59.5 107.73V111.08H59.2V109.33H58.74V110.91H58.45V107.81H58.74V109.07H59.2V107.72H59.5V107.73Z" fill="black"/>
<path d="M61.79 109.33H60.24V107.86H60.54V108.34H61.49V107.86H61.79V109.33ZM61.49 108.58H60.54V109.08H61.49V108.58ZM60.88 110.8H62.82V111.04H60.58V110.2H62.4V109.86H60.57V109.62H62.7V110.44H60.88V110.81V110.8ZM63.2 108.45V108.7H62.7V109.46H62.39V107.73H62.7V108.45H63.2Z" fill="black"/>
<path d="M66.47 109.37C66.09 109.24 65.78 108.95 65.63 108.6C65.48 108.99 65.17 109.29 64.78 109.43L64.62 109.19C65.12 109.01 65.47 108.57 65.47 108.08V107.83H65.78V108.08C65.78 108.54 66.13 108.96 66.63 109.13L66.48 109.37H66.47ZM67.46 110.8V111.04H65.18V110.21H67.04V109.88H65.17V109.64H67.34V110.45H65.48V110.81H67.45L67.46 110.8ZM67.34 109.47H67.03V107.73H67.34V109.47Z" fill="black"/>
<path d="M71.07 109.26V109.51H68.03V109.26H71.07ZM70.79 109.02C70.27 108.94 69.77 108.68 69.56 108.3C69.35 108.67 68.85 108.94 68.33 109.02L68.22 108.77C68.82 108.7 69.41 108.34 69.41 107.91V107.76H69.72V107.91C69.72 108.33 70.31 108.7 70.91 108.77L70.8 109.02H70.79ZM70.37 109.73H70.67V111.03H68.42V109.73H68.72V110.12H70.37V109.73ZM70.37 110.36H68.72V110.79H70.37V110.36Z" fill="black"/>
<path d="M73.36 109.37C72.98 109.24 72.67 108.95 72.52 108.6C72.37 108.99 72.06 109.29 71.67 109.43L71.51 109.19C72.01 109.01 72.36 108.57 72.36 108.08V107.83H72.67V108.08C72.67 108.54 73.02 108.96 73.52 109.13L73.37 109.37H73.36ZM74.35 110.8V111.04H72.07V110.21H73.93V109.88H72.06V109.64H74.23V110.45H72.37V110.81H74.34L74.35 110.8ZM74.23 109.47H73.92V107.73H74.23V109.47Z" fill="black"/>
<path d="M75.76 109.43C75.76 108.48 76.09 108.02 76.62 108.02C77.15 108.02 77.47 108.48 77.47 109.43C77.47 110.38 77.14 110.86 76.62 110.86C76.1 110.86 75.76 110.39 75.76 109.43ZM77.14 109.43C77.14 108.63 76.93 108.29 76.62 108.29C76.31 108.29 76.1 108.63 76.1 109.43C76.1 110.23 76.31 110.59 76.62 110.59C76.93 110.59 77.14 110.24 77.14 109.43Z" fill="black"/>
<path d="M77.82 110.6C78.68 109.85 79.08 109.3 79.08 108.83C79.08 108.52 78.92 108.29 78.58 108.29C78.36 108.29 78.16 108.43 78.01 108.61L77.81 108.42C78.03 108.18 78.27 108.02 78.62 108.02C79.11 108.02 79.42 108.34 79.42 108.83C79.42 109.38 78.99 109.93 78.35 110.54C78.49 110.53 78.66 110.51 78.8 110.51H79.56V110.8H77.84V110.6H77.82Z" fill="black"/>
<path d="M8.65 159.88C9.51 159.13 9.91 158.58 9.91 158.11C9.91 157.8 9.75 157.57 9.41 157.57C9.19 157.57 8.99 157.71 8.84 157.89L8.64 157.7C8.86 157.46 9.1 157.3 9.45 157.3C9.94 157.3 10.25 157.62 10.25 158.11C10.25 158.66 9.82 159.21 9.18 159.82C9.32 159.81 9.49 159.79 9.63 159.79H10.39V160.08H8.67V159.88H8.65Z" fill="black"/>
<path d="M10.74 158.91H11.7V159.17H10.74V158.91Z" fill="black"/>
<path d="M13.54 157.79C13.43 157.66 13.27 157.58 13.1 157.58C12.73 157.58 12.41 157.87 12.39 158.72C12.56 158.51 12.8 158.39 13.01 158.39C13.47 158.39 13.77 158.68 13.77 159.25C13.77 159.78 13.41 160.14 12.99 160.14C12.46 160.14 12.07 159.69 12.07 158.78C12.07 157.71 12.55 157.3 13.08 157.3C13.36 157.3 13.57 157.42 13.72 157.58L13.53 157.79H13.54ZM13.45 159.25C13.45 158.88 13.29 158.64 12.96 158.64C12.79 158.64 12.58 158.74 12.4 158.99C12.44 159.56 12.65 159.87 12.99 159.87C13.25 159.87 13.45 159.62 13.45 159.25Z" fill="black"/>
<path d="M11 165.64V165.89H7.97V165.64H8.71V164.53H9.01V165.64H9.54V164.53H9.84V165.64H11ZM10.34 163.6H8.28V163.35H10.64V163.72C10.64 164.15 10.64 164.58 10.52 165.21L10.22 165.17C10.34 164.57 10.34 164.13 10.34 163.72V163.6Z" fill="black"/>
<path d="M13.29 164.65C12.91 164.52 12.6 164.23 12.45 163.88C12.3 164.27 11.99 164.57 11.6 164.71L11.44 164.47C11.94 164.29 12.29 163.85 12.29 163.36V163.11H12.6V163.36C12.6 163.82 12.95 164.24 13.45 164.41L13.3 164.65H13.29ZM14.28 166.08V166.32H12V165.49H13.86V165.16H11.99V164.92H14.16V165.73H12.3V166.09H14.27L14.28 166.08ZM14.16 164.75H13.85V163.01H14.16V164.75Z" fill="black"/>
<path d="M29.1 159.88C29.96 159.13 30.36 158.58 30.36 158.11C30.36 157.8 30.2 157.57 29.86 157.57C29.64 157.57 29.44 157.71 29.29 157.89L29.09 157.7C29.31 157.46 29.55 157.3 29.9 157.3C30.39 157.3 30.7 157.62 30.7 158.11C30.7 158.66 30.27 159.21 29.63 159.82C29.77 159.81 29.94 159.79 30.08 159.79H30.84V160.08H29.12V159.88H29.1Z" fill="black"/>
<path d="M31.19 158.91H32.15V159.17H31.19V158.91Z" fill="black"/>
<path d="M32.42 159.77L32.59 159.55C32.75 159.71 32.94 159.85 33.26 159.85C33.58 159.85 33.84 159.6 33.84 159.2C33.84 158.8 33.62 158.58 33.27 158.58C33.09 158.58 32.97 158.64 32.81 158.74L32.63 158.63L32.72 157.35H34.05V157.64H33.01L32.94 158.43C33.06 158.36 33.18 158.32 33.35 158.32C33.81 158.32 34.18 158.59 34.18 159.19C34.18 159.79 33.75 160.13 33.28 160.13C32.85 160.13 32.59 159.95 32.41 159.77H32.42Z" fill="black"/>
<path d="M31.45 165.64V165.89H28.42V165.64H29.16V164.53H29.46V165.64H29.99V164.53H30.29V165.64H31.45ZM30.79 163.6H28.73V163.35H31.09V163.72C31.09 164.15 31.09 164.58 30.97 165.21L30.67 165.17C30.79 164.57 30.79 164.13 30.79 163.72V163.6Z" fill="black"/>
<path d="M33.74 164.65C33.36 164.52 33.05 164.23 32.9 163.88C32.75 164.27 32.44 164.57 32.05 164.71L31.89 164.47C32.39 164.29 32.74 163.85 32.74 163.36V163.11H33.05V163.36C33.05 163.82 33.4 164.24 33.9 164.41L33.75 164.65H33.74ZM34.73 166.08V166.32H32.45V165.49H34.31V165.16H32.44V164.92H34.61V165.73H32.75V166.09H34.72L34.73 166.08ZM34.61 164.75H34.3V163.01H34.61V164.75Z" fill="black"/>
<path d="M48.54 162.45H48.18V163.2H47.85V162.45H46.66V162.23L47.8 160.47H48.18V162.18H48.54V162.45ZM47.85 162.18V161.34C47.85 161.21 47.87 160.98 47.87 160.84H47.86C47.79 160.97 47.72 161.11 47.64 161.24L47.02 162.17H47.86L47.85 162.18Z" fill="black"/>
<path d="M51.89 162.76V163.01H48.86V162.76H49.6V161.65H49.9V162.76H50.43V161.65H50.73V162.76H51.89ZM51.23 160.72H49.17V160.47H51.53V160.84C51.53 161.27 51.53 161.7 51.41 162.33L51.11 162.29C51.23 161.69 51.23 161.25 51.23 160.84V160.72Z" fill="black"/>
<path d="M55.35 162.33H53.97V163.48H53.66V162.33H52.3V162.08H55.34V162.33H55.35ZM54.96 161.62H52.69V160.32H54.96V161.62ZM54.66 160.56H53V161.37H54.66V160.56Z" fill="black"/>
<path d="M57.63 161.77C57.25 161.64 56.94 161.35 56.79 161C56.64 161.39 56.33 161.69 55.94 161.83L55.78 161.59C56.28 161.41 56.63 160.97 56.63 160.48V160.23H56.94V160.48C56.94 160.94 57.29 161.36 57.79 161.53L57.64 161.77H57.63ZM58.62 163.2V163.44H56.34V162.61H58.2V162.28H56.33V162.04H58.5V162.85H56.64V163.21H58.61L58.62 163.2ZM58.5 161.87H58.19V160.13H58.5V161.87Z" fill="black"/>
<path d="M69.27 158.84C68.82 158.84 68.51 158.53 68.51 158.08C68.51 157.63 68.83 157.33 69.27 157.33C69.71 157.33 70.03 157.64 70.03 158.08C70.03 158.52 69.71 158.84 69.27 158.84ZM69.27 158.59C69.55 158.59 69.75 158.38 69.75 158.08C69.75 157.78 69.54 157.57 69.27 157.57C69 157.57 68.78 157.78 68.78 158.08C68.78 158.38 68.99 158.59 69.27 158.59ZM71 159.11H71.3V160.44H69.1V159.11H69.41V159.51H71V159.11ZM71 159.76H69.41V160.19H71V159.76ZM71.3 157.14V158.97H71V158.16H70.57V158.94H70.28V157.2H70.57V157.9H71V157.13H71.3V157.14Z" fill="black"/>
<path d="M73.74 159.02C73.36 158.9 73.07 158.66 72.92 158.34C72.78 158.7 72.48 158.97 72.08 159.11L71.93 158.87C72.43 158.72 72.76 158.31 72.76 157.86V157.79H72.02V157.54H72.76V157.12H73.07V157.54H73.81V157.79H73.07V157.86C73.07 158.27 73.4 158.64 73.89 158.78L73.74 159.02ZM74.56 159.88C74.56 160.27 74.14 160.48 73.46 160.48C72.78 160.48 72.35 160.26 72.35 159.88C72.35 159.5 72.77 159.27 73.46 159.27C74.15 159.27 74.56 159.49 74.56 159.88ZM74.25 159.88C74.25 159.65 73.95 159.51 73.45 159.51C72.95 159.51 72.65 159.64 72.65 159.88C72.65 160.12 72.95 160.25 73.45 160.25C73.95 160.25 74.25 160.12 74.25 159.88ZM75.02 158V158.25H74.52V159.18H74.21V157.12H74.52V157.99H75.02V158Z" fill="black"/>
<path d="M77.16 159.01C76.79 158.88 76.5 158.61 76.35 158.26C76.21 158.63 75.91 158.93 75.51 159.08L75.35 158.84C75.85 158.66 76.19 158.23 76.19 157.75V157.62H75.44V157.37H77.24V157.62H76.5V157.75C76.5 158.2 76.82 158.61 77.31 158.78L77.15 159.02L77.16 159.01ZM75.79 159.33H77.97V160.49H77.66V159.58H75.78V159.33H75.79ZM78.47 158.26H77.97V159.15H77.66V157.13H77.97V158.01H78.47V158.26Z" fill="black"/>
<path d="M79.27 159.43C79.88 159.43 80.26 159.41 80.72 159.33L80.75 159.58C80.26 159.67 79.86 159.68 79.22 159.68H78.96V157.43H80.51V157.68H79.27V158.37H80.37V158.62H79.27V159.42V159.43ZM81.57 157.13V160.49H81.26V158.65H80.57V158.4H81.26V157.13H81.57Z" fill="black"/>
<path d="M69.47 164.08C69.47 164.62 69.72 165.19 70.16 165.46L69.98 165.7C69.66 165.51 69.44 165.15 69.32 164.74C69.2 165.18 68.96 165.57 68.62 165.77L68.43 165.54C68.89 165.27 69.17 164.67 69.17 164.09V163.45H69.46V164.08H69.47ZM70.35 163.21H70.64V166.32H70.35V164.59H69.8V164.34H70.35V163.21ZM71.32 163.13V166.48H71.03V163.13H71.32Z" fill="black"/>
<path d="M73.65 163.46V165.64H72.11V163.46H73.65ZM72.41 163.71V165.4H73.35V163.71H72.41ZM74.66 163.13V166.49H74.35V163.13H74.66Z" fill="black"/>
<path d="M75.8 165.38C76.28 165.38 76.78 165.34 77.32 165.23L77.36 165.48C76.79 165.6 76.28 165.63 75.76 165.63H75.49V163.45H75.79V165.37L75.8 165.38ZM78.48 164.73H77.94V166.49H77.63V163.14H77.94V164.48H78.48V164.73Z" fill="black"/>
<path d="M80.69 164.78C80.31 164.65 80 164.36 79.85 164.01C79.7 164.4 79.39 164.7 79 164.84L78.84 164.6C79.34 164.42 79.69 163.98 79.69 163.49V163.24H80V163.49C80 163.95 80.35 164.37 80.85 164.54L80.7 164.78H80.69ZM81.68 166.21V166.45H79.4V165.62H81.26V165.29H79.39V165.05H81.56V165.86H79.7V166.22H81.67L81.68 166.21ZM81.56 164.88H81.25V163.14H81.56V164.88Z" fill="black"/>
<path d="M115.81 161.89H114.26V160.35H114.56V160.85H115.51V160.35H115.81V161.89ZM116.76 162.86C116.76 163.26 116.34 163.48 115.66 163.48C114.98 163.48 114.55 163.25 114.55 162.86C114.55 162.47 114.97 162.24 115.66 162.24C116.35 162.24 116.76 162.47 116.76 162.86ZM115.51 161.09H114.56V161.64H115.51V161.09ZM116.45 162.86C116.45 162.62 116.15 162.48 115.65 162.48C115.15 162.48 114.85 162.62 114.85 162.86C114.85 163.1 115.15 163.24 115.65 163.24C116.15 163.24 116.45 163.1 116.45 162.86ZM117.22 160.98V161.23H116.72V162.15H116.41V160.13H116.72V160.98H117.22Z" fill="black"/>
<path d="M120.6 161.79V162.04H117.57V161.79H118.93V161.3H119.24V161.79H120.6ZM120.3 161.47C119.79 161.38 119.29 161.12 119.08 160.74C118.87 161.12 118.38 161.39 117.86 161.47L117.74 161.23C118.34 161.15 118.91 160.77 118.91 160.33V160.18H119.22V160.33C119.22 160.78 119.8 161.15 120.4 161.23L120.28 161.47H120.3ZM120.23 162.89C120.23 163.26 119.8 163.47 119.08 163.47C118.36 163.47 117.93 163.26 117.93 162.89C117.93 162.52 118.36 162.31 119.08 162.31C119.8 162.31 120.23 162.52 120.23 162.89ZM119.92 162.89C119.92 162.67 119.61 162.55 119.08 162.55C118.55 162.55 118.24 162.67 118.24 162.89C118.24 163.11 118.55 163.23 119.08 163.23C119.61 163.23 119.92 163.11 119.92 162.89Z" fill="black"/>
<path d="M122.7 162.03H121.15V160.37H121.45V160.93H122.4V160.37H122.7V162.03ZM122.4 161.17H121.45V161.78H122.4V161.17ZM121.83 163.16H123.76V163.41H121.52V162.36H121.83V163.16ZM124.11 161.15V161.41H123.61V162.6H123.3V160.14H123.61V161.15H124.11Z" fill="black"/>
<path d="M145.32 126.21C145.62 126.2 145.93 126.17 146.22 126.13L146.24 126.36C145.52 126.49 144.73 126.49 144.15 126.49L144.11 126.23C144.38 126.23 144.69 126.23 145.02 126.22V125.85C144.63 125.8 144.38 125.57 144.38 125.24C144.38 124.86 144.71 124.62 145.17 124.62C145.63 124.62 145.96 124.86 145.96 125.24C145.96 125.57 145.71 125.8 145.32 125.85V126.2V126.21ZM146.16 124.42H144.16V124.18H145.01V123.78H145.32V124.18H146.16V124.42ZM145.16 125.62C145.46 125.62 145.66 125.47 145.66 125.24C145.66 125.01 145.46 124.86 145.16 124.86C144.86 124.86 144.66 125.01 144.66 125.24C144.66 125.47 144.86 125.62 145.16 125.62ZM147.24 125.45H146.72V127.12H146.41V123.77H146.72V125.19H147.24V125.45Z" fill="black"/>
<path d="M149.38 125.64C149 125.52 148.71 125.25 148.57 124.92C148.43 125.3 148.13 125.6 147.73 125.74L147.57 125.5C148.07 125.32 148.41 124.89 148.41 124.41V124.28H147.66V124.03H149.46V124.28H148.72V124.41C148.72 124.85 149.04 125.24 149.53 125.4L149.38 125.64ZM150.22 126.51C150.22 126.9 149.8 127.13 149.12 127.13C148.44 127.13 148.01 126.9 148.01 126.51C148.01 126.12 148.43 125.89 149.12 125.89C149.81 125.89 150.22 126.12 150.22 126.51ZM149.91 126.51C149.91 126.27 149.61 126.14 149.11 126.14C148.61 126.14 148.31 126.28 148.31 126.51C148.31 126.74 148.61 126.89 149.11 126.89C149.61 126.89 149.91 126.75 149.91 126.51ZM150.68 124.63V124.89H150.18V125.81H149.87V123.79H150.18V124.63H150.68Z" fill="black"/>
<path d="M152.91 125.42C152.53 125.29 152.22 125 152.07 124.65C151.92 125.04 151.61 125.34 151.22 125.48L151.06 125.24C151.56 125.06 151.91 124.62 151.91 124.13V123.88H152.22V124.13C152.22 124.59 152.57 125.01 153.07 125.18L152.92 125.42H152.91ZM153.9 126.85V127.09H151.62V126.26H153.48V125.93H151.61V125.69H153.78V126.5H151.92V126.86H153.89L153.9 126.85ZM153.78 125.52H153.47V123.78H153.78V125.52Z" fill="black"/>
<path d="M155.46 125.69C155.46 124.96 155.67 124.35 156.01 123.8L156.22 123.9C155.89 124.44 155.74 125.06 155.74 125.7C155.74 126.34 155.89 126.97 156.22 127.5L156.01 127.6C155.67 127.04 155.46 126.44 155.46 125.7V125.69Z" fill="black"/>
<path d="M159.35 123.78V127.14H159.04V125.84H158.2C158.06 126.18 157.8 126.38 157.48 126.38C156.99 126.38 156.64 125.92 156.64 125.21C156.64 124.5 156.99 124.04 157.48 124.04C157.79 124.04 158.04 124.22 158.18 124.53H159.04V123.78H159.35ZM158.03 125.21C158.03 124.67 157.8 124.32 157.48 124.32C157.16 124.32 156.93 124.67 156.93 125.21C156.93 125.75 157.15 126.11 157.48 126.11C157.81 126.11 158.03 125.76 158.03 125.21ZM159.04 125.59V124.78H158.27C158.3 124.91 158.32 125.05 158.32 125.21C158.32 125.35 158.3 125.48 158.28 125.59H159.04Z" fill="black"/>
<path d="M159.99 127.49C160.31 126.96 160.47 126.33 160.47 125.69C160.47 125.05 160.31 124.43 159.99 123.89L160.2 123.79C160.55 124.35 160.75 124.95 160.75 125.68C160.75 126.41 160.54 127.02 160.2 127.58L159.99 127.48V127.49Z" fill="black"/>
<path d="M166.57 126.21C166.87 126.2 167.18 126.17 167.47 126.13L167.49 126.36C166.77 126.49 165.98 126.49 165.4 126.49L165.36 126.23C165.63 126.23 165.94 126.23 166.27 126.22V125.85C165.88 125.8 165.63 125.57 165.63 125.24C165.63 124.86 165.96 124.62 166.42 124.62C166.88 124.62 167.21 124.86 167.21 125.24C167.21 125.57 166.96 125.8 166.57 125.85V126.2V126.21ZM167.41 124.42H165.41V124.18H166.26V123.78H166.57V124.18H167.41V124.42ZM166.41 125.62C166.71 125.62 166.91 125.47 166.91 125.24C166.91 125.01 166.71 124.86 166.41 124.86C166.11 124.86 165.91 125.01 165.91 125.24C165.91 125.47 166.11 125.62 166.41 125.62ZM168.49 125.45H167.97V127.12H167.66V123.77H167.97V125.19H168.49V125.45Z" fill="black"/>
<path d="M170.63 125.64C170.25 125.52 169.96 125.25 169.82 124.92C169.68 125.3 169.38 125.6 168.98 125.74L168.82 125.5C169.32 125.32 169.66 124.89 169.66 124.41V124.28H168.91V124.03H170.71V124.28H169.97V124.41C169.97 124.85 170.29 125.24 170.78 125.4L170.63 125.64ZM171.47 126.51C171.47 126.9 171.05 127.13 170.37 127.13C169.69 127.13 169.26 126.9 169.26 126.51C169.26 126.12 169.68 125.89 170.37 125.89C171.06 125.89 171.47 126.12 171.47 126.51ZM171.16 126.51C171.16 126.27 170.86 126.14 170.36 126.14C169.86 126.14 169.56 126.28 169.56 126.51C169.56 126.74 169.86 126.89 170.36 126.89C170.86 126.89 171.16 126.75 171.16 126.51ZM171.93 124.63V124.89H171.43V125.81H171.12V123.79H171.43V124.63H171.93Z" fill="black"/>
<path d="M174.16 125.42C173.78 125.29 173.47 125 173.32 124.65C173.17 125.04 172.86 125.34 172.47 125.48L172.31 125.24C172.81 125.06 173.16 124.62 173.16 124.13V123.88H173.47V124.13C173.47 124.59 173.82 125.01 174.32 125.18L174.17 125.42H174.16ZM175.15 126.85V127.09H172.87V126.26H174.73V125.93H172.86V125.69H175.03V126.5H173.17V126.86H175.14L175.15 126.85ZM175.03 125.52H174.72V123.78H175.03V125.52Z" fill="black"/>
<path d="M176.71 125.69C176.71 124.96 176.92 124.35 177.26 123.8L177.47 123.9C177.14 124.44 176.99 125.06 176.99 125.7C176.99 126.34 177.14 126.97 177.47 127.5L177.26 127.6C176.92 127.04 176.71 126.44 176.71 125.7V125.69Z" fill="black"/>
<path d="M179.83 125.27C179.27 125.38 178.76 125.42 178.26 125.42H178V123.95H178.3V125.16C178.77 125.16 179.25 125.12 179.79 125.02L179.83 125.27ZM178.33 125.86H180.44V127.09H178.33V125.86ZM178.63 126.84H180.14V126.11H178.63V126.84ZM180.94 124.81H180.44V125.68H180.13V123.78H180.44V124.55H180.94V124.8V124.81Z" fill="black"/>
<path d="M181.24 127.49C181.56 126.96 181.72 126.33 181.72 125.69C181.72 125.05 181.56 124.43 181.24 123.89L181.45 123.79C181.8 124.35 182 124.95 182 125.68C182 126.41 181.79 127.02 181.45 127.58L181.24 127.48V127.49Z" fill="black"/>
<path d="M142.1 174.81L142.27 174.59C142.43 174.75 142.62 174.89 142.94 174.89C143.26 174.89 143.52 174.64 143.52 174.24C143.52 173.84 143.3 173.62 142.95 173.62C142.77 173.62 142.65 173.68 142.49 173.78L142.31 173.67L142.4 172.39H143.73V172.68H142.69L142.62 173.47C142.74 173.4 142.86 173.36 143.03 173.36C143.49 173.36 143.86 173.63 143.86 174.23C143.86 174.83 143.43 175.17 142.96 175.17C142.53 175.17 142.27 174.99 142.09 174.81H142.1Z" fill="black"/>
<path d="M147.3 174.68V174.93H144.27V174.68H145.01V173.57H145.31V174.68H145.84V173.57H146.14V174.68H147.3ZM146.64 172.64H144.58V172.39H146.94V172.76C146.94 173.19 146.94 173.62 146.82 174.25L146.52 174.21C146.64 173.61 146.64 173.17 146.64 172.76V172.64Z" fill="black"/>
<path d="M150.75 174.24H149.37V175.39H149.06V174.24H147.7V173.99H150.74V174.24H150.75ZM150.36 173.53H148.09V172.23H150.36V173.53ZM150.06 172.47H148.4V173.28H150.06V172.47Z" fill="black"/>
<path d="M153.04 173.68C152.66 173.55 152.35 173.26 152.2 172.91C152.05 173.3 151.74 173.6 151.35 173.74L151.19 173.5C151.69 173.32 152.04 172.88 152.04 172.39V172.14H152.35V172.39C152.35 172.85 152.7 173.27 153.2 173.44L153.05 173.68H153.04ZM154.03 175.11V175.35H151.75V174.52H153.61V174.19H151.74V173.95H153.91V174.76H152.05V175.12H154.02L154.03 175.11ZM153.91 173.78H153.6V172.04H153.91V173.78Z" fill="black"/>
<path d="M171.78 174.68V174.93H168.75V174.68H169.49V173.57H169.79V174.68H170.32V173.57H170.62V174.68H171.78ZM171.12 172.64H169.06V172.39H171.42V172.76C171.42 173.19 171.42 173.62 171.3 174.25L171 174.21C171.12 173.61 171.12 173.17 171.12 172.76V172.64Z" fill="black"/>
<path d="M172.67 174.26C172.99 174.26 173.35 174.23 173.75 174.15L173.78 174.42C173.33 174.51 172.94 174.52 172.58 174.52H172.37V172.45H172.68V174.26H172.67ZM175.04 172.04V175.39H174.74V173.66H174.27V175.22H173.98V172.11H174.27V173.4H174.74V172.03H175.04V172.04Z" fill="black"/>
<path d="M177.41 172.41C177.41 173.38 176.97 174.23 175.85 174.78L175.69 174.53C176.59 174.1 177.04 173.46 177.1 172.66H175.84V172.41H177.41ZM178.39 172.05V175.4H178.08V172.05H178.39Z" fill="black"/>
<path d="M181.85 172.05V173.85H181.54V173.1H180.86C180.8 173.5 180.46 173.76 180 173.76C179.5 173.76 179.14 173.45 179.14 172.98C179.14 172.51 179.5 172.21 180 172.21C180.45 172.21 180.79 172.46 180.85 172.85H181.53V172.05H181.84H181.85ZM180.58 172.98C180.58 172.67 180.34 172.46 180.01 172.46C179.68 172.46 179.44 172.67 179.44 172.98C179.44 173.29 179.68 173.5 180.01 173.5C180.34 173.5 180.58 173.28 180.58 172.98ZM181.55 174.02H181.86V175.36H179.71V174.02H180.01V174.44H181.55V174.02ZM181.55 174.68H180.01V175.11H181.55V174.68Z" fill="black"/>
<path d="M184.41 173.68C184.03 173.55 183.72 173.26 183.57 172.91C183.42 173.3 183.11 173.6 182.72 173.74L182.56 173.5C183.06 173.32 183.41 172.88 183.41 172.39V172.14H183.72V172.39C183.72 172.85 184.07 173.27 184.57 173.44L184.42 173.68H184.41ZM185.4 175.11V175.35H183.12V174.52H184.98V174.19H183.11V173.95H185.28V174.76H183.42V175.12H185.39L185.4 175.11ZM185.28 173.78H184.97V172.04H185.28V173.78Z" fill="black"/>
<path d="M55.64 86.88H54.64L54.37 87.72H54.02L54.95 84.98H55.34L56.27 87.72H55.9L55.64 86.88ZM55.55 86.6L55.42 86.18C55.32 85.87 55.23 85.57 55.14 85.25H55.12C55.03 85.57 54.94 85.87 54.85 86.18L54.72 86.6H55.55Z" fill="black"/>
<path d="M57.44 84.75H57.69L56.57 88.38H56.32L57.44 84.75Z" fill="black"/>
<path d="M57.92 87.36L58.13 87.12C58.33 87.33 58.6 87.46 58.89 87.46C59.25 87.46 59.47 87.28 59.47 87.01C59.47 86.74 59.27 86.64 59.01 86.52L58.61 86.35C58.36 86.24 58.05 86.05 58.05 85.65C58.05 85.23 58.42 84.92 58.91 84.92C59.24 84.92 59.52 85.06 59.72 85.26L59.54 85.48C59.37 85.32 59.17 85.22 58.92 85.22C58.61 85.22 58.41 85.38 58.41 85.62C58.41 85.89 58.65 85.99 58.86 86.08L59.25 86.25C59.57 86.39 59.81 86.58 59.81 86.98C59.81 87.41 59.45 87.76 58.88 87.76C58.49 87.76 58.16 87.6 57.92 87.35V87.36Z" fill="black"/>
<path d="M62.06 86.28C61.68 86.15 61.37 85.86 61.22 85.51C61.07 85.9 60.76 86.2 60.37 86.34L60.21 86.1C60.71 85.92 61.06 85.48 61.06 84.99V84.74H61.37V84.99C61.37 85.45 61.72 85.87 62.22 86.04L62.07 86.28H62.06ZM63.05 87.71V87.95H60.77V87.12H62.63V86.79H60.76V86.55H62.93V87.36H61.07V87.72H63.04L63.05 87.71ZM62.93 86.38H62.62V84.64H62.93V86.38Z" fill="black"/>
<path d="M62.81 63.42V63.67H59.77V63.42H61.12V62.6H61.43V63.42H62.81ZM62.53 62.65C62.02 62.54 61.49 62.19 61.27 61.72C61.05 62.2 60.53 62.55 60.01 62.65L59.88 62.4C60.47 62.3 61.1 61.8 61.1 61.24V60.98H61.42V61.24C61.42 61.8 62.06 62.29 62.65 62.4L62.52 62.65H62.53Z" fill="black"/>
<path d="M66.25 63.42V63.67H63.21V63.42H66.25ZM64 61.33H63.48V61.08H65.97V61.33H65.45V62.5H65.96V62.75H63.49V62.5H64V61.33ZM65.14 61.33H64.31V62.5H65.14V61.33Z" fill="black"/>
<path d="M69.7 63.42V63.67H66.66V63.42H69.7ZM69.35 62.81H67.05V61.05H69.32V61.3H67.36V61.8H69.24V62.04H67.36V62.57H69.35V62.82V62.81Z" fill="black"/>
<path d="M71.83 62.6C71.59 62.65 71.34 62.67 71.08 62.69V63.84H70.79V62.71C70.54 62.72 70.29 62.72 70.1 62.72L70.06 62.46C70.52 62.46 71.26 62.46 71.81 62.37L71.83 62.59V62.6ZM70.22 61.59C70.22 61.22 70.53 60.97 70.95 60.97C71.37 60.97 71.68 61.22 71.68 61.59C71.68 61.96 71.37 62.21 70.95 62.21C70.53 62.21 70.22 61.96 70.22 61.59ZM70.49 61.59C70.49 61.82 70.68 61.97 70.95 61.97C71.22 61.97 71.4 61.81 71.4 61.59C71.4 61.37 71.21 61.21 70.95 61.21C70.69 61.21 70.49 61.37 70.49 61.59ZM72.02 60.84H72.31V63.94H72.02V63.2H71.39V62.96H72.02V60.84ZM72.95 60.76V64.11H72.65V60.76H72.95Z" fill="black"/>
<path d="M76.31 60.75V64.11H76V62.28H75.27C75.24 62.94 74.91 63.35 74.44 63.35C73.97 63.35 73.6 62.89 73.6 62.18C73.6 61.47 73.95 61.01 74.44 61.01C74.89 61.01 75.22 61.4 75.27 62.03H76V60.75H76.31ZM74.99 62.18C74.99 61.64 74.77 61.29 74.45 61.29C74.13 61.29 73.9 61.64 73.9 62.18C73.9 62.72 74.12 63.08 74.45 63.08C74.78 63.08 74.99 62.73 74.99 62.18Z" fill="black"/>
<path d="M65.19 66.22H63.21V65.97H64.05V65.47H64.36V65.97H65.19V66.22ZM64.99 67.26C64.99 67.72 64.66 68.03 64.21 68.03C63.76 68.03 63.42 67.71 63.42 67.26C63.42 66.81 63.75 66.49 64.21 66.49C64.67 66.49 64.99 66.81 64.99 67.26ZM64.71 67.26C64.71 66.96 64.49 66.75 64.21 66.75C63.93 66.75 63.71 66.96 63.71 67.26C63.71 67.56 63.93 67.78 64.21 67.78C64.49 67.78 64.71 67.57 64.71 67.26ZM65.98 65.43V68.78H65.67V67.08H65.12V66.83H65.67V65.43H65.98Z" fill="black"/>
<path d="M69.7 68.09V68.34H66.66V68.09H69.7ZM67.32 65.68V66.29H69.03V65.68H69.33V67.43H67.02V65.68H67.32ZM67.32 67.18H69.03V66.54H67.32V67.18Z" fill="black"/>
<path d="M71.98 67.07C71.6 66.94 71.29 66.65 71.14 66.3C70.99 66.69 70.68 66.99 70.29 67.13L70.13 66.89C70.63 66.71 70.98 66.27 70.98 65.78V65.53H71.29V65.78C71.29 66.24 71.64 66.66 72.14 66.83L71.99 67.07H71.98ZM72.97 68.5V68.74H70.69V67.91H72.55V67.58H70.68V67.34H72.85V68.15H70.99V68.51H72.96L72.97 68.5ZM72.85 67.17H72.54V65.43H72.85V67.17Z" fill="black"/>
<path d="M71.96 81.55H82.43" stroke="#231F20" stroke-width="0.5" stroke-miterlimit="10"/>
<path d="M71.96 85.47H82.43" stroke="#231F20" stroke-width="0.5" stroke-miterlimit="10"/>
<path d="M77.19 78.28V88.74" stroke="#231F20" stroke-width="0.5" stroke-miterlimit="10"/>
<path d="M90.57 159.85H101.03" stroke="#231F20" stroke-width="0.5" stroke-miterlimit="10"/>
<path d="M90.57 163.76H101.03" stroke="#231F20" stroke-width="0.5" stroke-miterlimit="10"/>
<path d="M95.8 156.57V167.04" stroke="#231F20" stroke-width="0.5" stroke-miterlimit="10"/>
<path d="M131.05 5.28003V15.74" stroke="#231F20" stroke-width="0.5" stroke-miterlimit="10"/>
<path d="M122.89 5.28003V15.74" stroke="#231F20" stroke-width="0.5" stroke-miterlimit="10"/>
<path d="M137.88 10.51H116.06" stroke="#231F20" stroke-width="0.5" stroke-miterlimit="10"/>
</svg>
