<svg width="192" height="182" viewBox="0 0 192 182" fill="none" xmlns="http://www.w3.org/2000/svg">
<path d="M163.44 159.55H136.2V181.01H163.44V159.55Z" stroke="#231F20" stroke-width="0.5" stroke-miterlimit="10"/>
<path d="M86.79 89.94H67.77V73.26H86.79V30.62H50.29V0.5H142.3V19.52H105.81V116.16H150.39V127.22H177.3V116.16H191.6V159.55H136.2V173.22H1V116.16H86.79V95.99" stroke="#231F20" stroke-width="0.5" stroke-miterlimit="10"/>
<path d="M86.79 116.16H50.29V0.5H142.3V116.16H105.81" stroke="#231F20" stroke-width="0.5" stroke-miterlimit="10"/>
<path d="M105.52 149.39H86.79V173.22H105.52V149.39Z" stroke="#231F20" stroke-width="0.5" stroke-miterlimit="10"/>
<path d="M33.22 116.16H1V173.22H33.22V116.16Z" stroke="#231F20" stroke-width="0.5" stroke-miterlimit="10"/>
<path d="M60.02 149.39H33.22V173.22H60.02V149.39Z" stroke="#231F20" stroke-width="0.5" stroke-miterlimit="10"/>
<path d="M86.82 149.39H60.02V173.22H86.82V149.39Z" stroke="#231F20" stroke-width="0.5" stroke-miterlimit="10"/>
<path d="M136.2 149.39H105.52V173.22H136.2V149.39Z" stroke="#231F20" stroke-width="0.5" stroke-miterlimit="10"/>
<path d="M191.6 159.55H163.44V181.01H191.6V159.55Z" stroke="#231F20" stroke-width="0.5" stroke-miterlimit="10"/>
<path d="M177.3 107.93H150.39V127.22H177.3V107.93Z" stroke="#231F20" stroke-width="0.5" stroke-miterlimit="10"/>
<path d="M86.79 95.99H50.29V116.16H86.79V95.99Z" stroke="#231F20" stroke-width="0.5" stroke-miterlimit="10"/>
<path d="M86.79 30.63H50.29V51.95H86.79V30.63Z" stroke="#231F20" stroke-width="0.5" stroke-miterlimit="10"/>
<path d="M86.79 52.1H50.29V73.42H86.79V52.1Z" stroke="#231F20" stroke-width="0.5" stroke-miterlimit="10"/>
<path d="M86.79 0.5H50.29V16.57H86.79V0.5Z" stroke="#231F20" stroke-width="0.5" stroke-miterlimit="10"/>
<path d="M142.31 19.52H105.81V34.62H142.31V19.52Z" stroke="#231F20" stroke-width="0.5" stroke-miterlimit="10"/>
<path d="M142.31 34.62H105.81V49.72H142.31V34.62Z" stroke="#231F20" stroke-width="0.5" stroke-miterlimit="10"/>
<path d="M142.31 49.71H105.81V66.61H142.31V49.71Z" stroke="#231F20" stroke-width="0.5" stroke-miterlimit="10"/>
<path d="M142.31 66.62H105.81V90.76H142.31V66.62Z" stroke="#231F20" stroke-width="0.5" stroke-miterlimit="10"/>
<path d="M67.77 73.27H50.29V89.94H67.77V73.27Z" stroke="#231F20" stroke-width="0.5" stroke-miterlimit="10"/>
<path d="M67.77 89.93H50.29V95.98H67.77V89.93Z" stroke="#231F20" stroke-width="0.5" stroke-miterlimit="10"/>
<path d="M13.89 134.66H14.25L15.24 136.38L15.53 136.94H15.55C15.53 136.66 15.51 136.36 15.51 136.08V134.66H15.84V137.39H15.49L14.5 135.67L14.21 135.11H14.2C14.21 135.39 14.24 135.68 14.24 135.96V137.39H13.91V134.66H13.89Z" fill="black"/>
<path d="M16.42 136.03C16.42 135.15 16.94 134.61 17.63 134.61C17.96 134.61 18.22 134.77 18.38 134.95L18.19 135.17C18.05 135.02 17.87 134.91 17.63 134.91C17.11 134.91 16.77 135.33 16.77 136.02C16.77 136.71 17.1 137.14 17.62 137.14C17.88 137.14 18.08 137.02 18.25 136.83L18.44 137.05C18.22 137.3 17.96 137.44 17.6 137.44C16.92 137.44 16.41 136.91 16.41 136.03H16.42Z" fill="black"/>
<path d="M18.66 137.04L18.87 136.81C19.07 137.01 19.34 137.15 19.63 137.15C19.99 137.15 20.2 136.97 20.2 136.7C20.2 136.43 20 136.33 19.75 136.22L19.35 136.05C19.1 135.94 18.8 135.75 18.8 135.35C18.8 134.93 19.17 134.62 19.66 134.62C19.98 134.62 20.27 134.76 20.46 134.96L20.28 135.18C20.11 135.02 19.91 134.92 19.66 134.92C19.35 134.92 19.15 135.08 19.15 135.32C19.15 135.58 19.39 135.68 19.6 135.77L19.99 135.94C20.31 136.08 20.55 136.26 20.55 136.67C20.55 137.1 20.19 137.44 19.62 137.44C19.23 137.44 18.9 137.28 18.66 137.03V137.04Z" fill="black"/>
<path d="M16.9 140.61V140.86H13.88V140.61H16.9ZM16.57 139.71C16.57 140.11 16.12 140.34 15.4 140.34C14.68 140.34 14.23 140.11 14.23 139.71C14.23 139.31 14.68 139.07 15.4 139.07C16.12 139.07 16.57 139.3 16.57 139.71ZM16.54 141.73C16.54 142.11 16.11 142.33 15.4 142.33C14.69 142.33 14.26 142.11 14.26 141.73C14.26 141.35 14.69 141.13 15.4 141.13C16.11 141.13 16.54 141.34 16.54 141.73ZM14.54 139.71C14.54 139.96 14.87 140.1 15.4 140.1C15.93 140.1 16.26 139.95 16.26 139.71C16.26 139.47 15.93 139.31 15.4 139.31C14.87 139.31 14.54 139.46 14.54 139.71ZM14.57 141.73C14.57 141.96 14.88 142.09 15.4 142.09C15.92 142.09 16.23 141.96 16.23 141.73C16.23 141.5 15.92 141.37 15.4 141.37C14.88 141.37 14.57 141.5 14.57 141.73Z" fill="black"/>
<path d="M20.33 140.64V140.89H17.31V140.64H18.06V140.17C17.8 140.06 17.65 139.89 17.65 139.67C17.65 139.28 18.1 139.05 18.82 139.05C19.54 139.05 19.99 139.28 19.99 139.67C19.99 139.89 19.84 140.06 19.58 140.17V140.64H20.32H20.33ZM19.96 141.73C19.96 142.11 19.54 142.32 18.82 142.32C18.1 142.32 17.68 142.11 17.68 141.73C17.68 141.35 18.11 141.13 18.82 141.13C19.53 141.13 19.96 141.34 19.96 141.73ZM18.82 140.05C19.35 140.05 19.68 139.9 19.68 139.67C19.68 139.44 19.35 139.29 18.82 139.29C18.29 139.29 17.96 139.43 17.96 139.67C17.96 139.91 18.29 140.05 18.82 140.05ZM19.65 141.73C19.65 141.5 19.34 141.37 18.82 141.37C18.3 141.37 17.99 141.5 17.99 141.73C17.99 141.96 18.3 142.09 18.82 142.09C19.34 142.09 19.65 141.96 19.65 141.73ZM18.35 140.64H19.28V140.25C19.14 140.27 18.99 140.29 18.81 140.29C18.63 140.29 18.49 140.28 18.35 140.25V140.64Z" fill="black"/>
<path d="M11.77 146.3V146.55H8.74001V146.3H11.77ZM9.53001 144.22H9.01001V143.97H11.49V144.22H10.97V145.38H11.48V145.63H9.02001V145.38H9.53001V144.22ZM10.67 144.22H9.84001V145.38H10.67V144.22Z" fill="black"/>
<path d="M15.2 146.32V146.57H12.17V146.32H13.53V145.69H12.55V144.66H14.53V144.14H12.54V143.89H14.83V144.91H12.85V145.45H14.91V145.7H13.84V146.33H15.21L15.2 146.32Z" fill="black"/>
<path d="M18.62 146.24V146.49H15.6V146.24H18.62ZM17.91 144.24H15.92V143.99H18.07H18.21V144.32C18.21 144.74 18.21 145.22 18.08 145.95L17.77 145.92C17.9 145.24 17.9 144.74 17.9 144.33V144.24H17.91Z" fill="black"/>
<path d="M19.43 145.93C19.81 145.93 20.16 145.91 20.58 145.84L20.6 146.09C20.14 146.17 19.76 146.18 19.35 146.18H19.13V144.93H20.08V144.26H19.12V144.01H20.37V145.18H19.42V145.93H19.43ZM21.86 143.64V146.98H21.57V145.21H21.1V146.81H20.81V143.72H21.1V144.96H21.57V143.64H21.86Z" fill="black"/>
<path d="M24.19 143.89V145.35H22.63V143.89H24.19ZM22.93 144.14V145.1H23.89V144.14H22.93ZM25.21 146.34C25.21 146.75 24.78 146.98 24.09 146.98C23.4 146.98 22.97 146.75 22.97 146.34C22.97 145.93 23.4 145.7 24.09 145.7C24.78 145.7 25.21 145.93 25.21 146.34ZM23.27 146.34C23.27 146.59 23.58 146.74 24.09 146.74C24.6 146.74 24.9 146.59 24.9 146.34C24.9 146.09 24.59 145.94 24.09 145.94C23.59 145.94 23.27 146.09 23.27 146.34ZM25.19 143.65V145.65H24.88V143.65H25.19Z" fill="black"/>
<path d="M9.65 148.73C9.65 149.59 9.35 150.39 8.4 150.92L8.22 150.7C8.99 150.27 9.3 149.67 9.35 148.98H8.35V148.73H9.65ZM11.05 148.3V151.64H10.76V149.89H10.31V151.47H10.02V148.39H10.31V149.64H10.76V148.3H11.05Z" fill="black"/>
<path d="M13.33 149.9H11.78V148.44H12.08V148.92H13.03V148.44H13.33V149.9ZM13.03 149.15H12.08V149.65H13.03V149.15ZM12.42 151.36H14.36V151.6H12.13V150.77H13.94V150.43H12.12V150.19H14.24V151H12.43V151.36H12.42ZM14.73 149.02V149.27H14.23V150.03H13.92V148.31H14.23V149.02H14.73Z" fill="black"/>
<path d="M17.99 149.93C17.61 149.8 17.3 149.52 17.15 149.16C17 149.54 16.7 149.85 16.3 149.99L16.14 149.75C16.64 149.58 16.99 149.13 16.99 148.64V148.39H17.3V148.64C17.3 149.1 17.65 149.52 18.15 149.68L18 149.92L17.99 149.93ZM18.97 151.36V151.6H16.7V150.77H18.55V150.44H16.69V150.2H18.85V151H17V151.36H18.97ZM18.85 150.03H18.54V148.3H18.85V150.03Z" fill="black"/>
<path d="M22.56 149.82V150.07H19.54V149.82H22.56ZM22.28 149.58C21.76 149.5 21.27 149.24 21.05 148.87C20.84 149.24 20.34 149.5 19.82 149.58L19.71 149.33C20.31 149.26 20.89 148.9 20.89 148.47V148.32H21.2V148.47C21.2 148.88 21.79 149.25 22.38 149.33L22.27 149.58H22.28ZM21.87 150.29H22.17V151.58H19.92V150.29H20.22V150.68H21.86V150.29H21.87ZM21.87 150.91H20.23V151.33H21.87V150.91Z" fill="black"/>
<path d="M24.84 149.93C24.46 149.8 24.15 149.52 24 149.16C23.85 149.54 23.55 149.85 23.15 149.99L22.99 149.75C23.49 149.58 23.84 149.13 23.84 148.64V148.39H24.15V148.64C24.15 149.1 24.5 149.52 24.99 149.68L24.84 149.92V149.93ZM25.82 151.36V151.6H23.55V150.77H25.4V150.44H23.54V150.2H25.7V151H23.85V151.36H25.82ZM25.7 150.03H25.39V148.3H25.7V150.03Z" fill="black"/>
<path d="M43.4 155.35H43.76L44.75 157.07L45.04 157.63H45.06C45.04 157.35 45.02 157.05 45.02 156.77V155.35H45.35V158.08H45L44.01 156.36L43.72 155.8H43.71C43.72 156.08 43.75 156.37 43.75 156.65V158.08H43.42V155.35H43.4Z" fill="black"/>
<path d="M45.93 156.72C45.93 155.84 46.45 155.3 47.14 155.3C47.47 155.3 47.73 155.46 47.89 155.64L47.7 155.86C47.56 155.71 47.38 155.6 47.14 155.6C46.62 155.6 46.28 156.02 46.28 156.71C46.28 157.4 46.61 157.83 47.13 157.83C47.39 157.83 47.59 157.71 47.76 157.52L47.95 157.74C47.73 157.99 47.47 158.13 47.11 158.13C46.43 158.13 45.92 157.6 45.92 156.72H45.93Z" fill="black"/>
<path d="M48.17 157.73L48.38 157.5C48.58 157.7 48.85 157.84 49.14 157.84C49.5 157.84 49.71 157.66 49.71 157.39C49.71 157.12 49.51 157.02 49.26 156.91L48.86 156.74C48.61 156.63 48.31 156.44 48.31 156.04C48.31 155.62 48.68 155.31 49.17 155.31C49.49 155.31 49.78 155.45 49.97 155.65L49.79 155.87C49.62 155.71 49.42 155.61 49.17 155.61C48.86 155.61 48.66 155.77 48.66 156.01C48.66 156.27 48.9 156.37 49.11 156.46L49.5 156.63C49.82 156.77 50.06 156.95 50.06 157.36C50.06 157.79 49.7 158.13 49.13 158.13C48.74 158.13 48.41 157.97 48.17 157.72V157.73Z" fill="black"/>
<path d="M40.35 161.4C39.66 161.51 38.87 161.53 38.27 161.53L38.24 161.28C38.45 161.28 38.7 161.28 38.95 161.28V160.62H39.25V161.27C39.61 161.26 39.99 161.23 40.33 161.19L40.35 161.41V161.4ZM39.71 160.94C39.79 160.59 39.8 160.33 39.8 160.12H38.45V159.87H40.1V160.05C40.1 160.26 40.1 160.56 40.01 160.96L39.71 160.93V160.94ZM40.89 162.4C40.89 162.79 40.47 163.01 39.78 163.01C39.09 163.01 38.67 162.79 38.67 162.4C38.67 162.01 39.09 161.8 39.78 161.8C40.47 161.8 40.89 162.02 40.89 162.4ZM40.58 162.4C40.58 162.17 40.27 162.04 39.78 162.04C39.29 162.04 38.98 162.17 38.98 162.4C38.98 162.63 39.29 162.77 39.78 162.77C40.27 162.77 40.58 162.64 40.58 162.4ZM41.33 160.59V160.84H40.85V161.76H40.54V159.68H40.85V160.6H41.33V160.59Z" fill="black"/>
<path d="M44.7 162.3V162.55H41.68V162.3H42.85V161.11H43.16V162.3H44.7ZM44.03 160.26H41.99V160.01H44.33V160.34C44.33 160.75 44.33 161.21 44.2 161.88L43.89 161.85C44.02 161.21 44.02 160.74 44.02 160.34V160.26H44.03Z" fill="black"/>
<path d="M48.12 161.45V161.7H45.11V161.45H46.33V160.97H46.64V161.45H48.12ZM47.45 160.45C47.45 160.33 47.45 160.23 47.45 160.13V160.09H45.46V159.84H47.75V160.13C47.75 160.44 47.75 160.77 47.66 161.23L47.36 161.21C47.4 161.01 47.42 160.84 47.43 160.69L45.42 160.78L45.38 160.52L47.45 160.45ZM45.8 162.72H47.83V162.97H45.5V161.99H45.81V162.72H45.8Z" fill="black"/>
<path d="M50.13 161.54C49.75 161.61 49.43 161.63 48.9 161.63H48.69V159.96H49.95V160.21H48.98V160.67H49.81V160.91H48.98V161.39C49.45 161.39 49.75 161.37 50.1 161.3L50.13 161.55V161.54ZM51.45 162.69V162.94H49.18V161.9H49.49V162.69H51.45ZM50.41 160.87H49.97V160.62H50.41V159.74H50.7V162.09H50.41V160.87ZM51.35 162.18H51.06V159.68H51.35V162.18Z" fill="black"/>
<path d="M54.99 162.34V162.59H51.96V162.34H54.99ZM52.14 161.53C52.78 161.42 53.32 161 53.32 160.46H52.24V160.21H53.32V159.76H53.63V160.21H54.7V160.46H53.63C53.63 161.01 54.17 161.42 54.81 161.53L54.69 161.78C54.16 161.67 53.69 161.39 53.48 160.96C53.27 161.39 52.8 161.67 52.27 161.78L52.15 161.53H52.14Z" fill="black"/>
<path d="M38.71 165.27C38.71 165.85 38.96 166.43 39.42 166.69L39.23 166.91C38.91 166.72 38.67 166.36 38.56 165.93C38.44 166.39 38.2 166.78 37.87 166.99L37.68 166.76C38.15 166.48 38.41 165.87 38.41 165.26V164.96H37.78V164.71H39.3V164.96H38.7V165.26L38.71 165.27ZM39.6 164.4H39.89V167.49H39.6V165.77H39.05V165.52H39.6V164.4ZM40.56 164.32V167.66H40.27V164.32H40.56Z" fill="black"/>
<path d="M42.94 166.2C42.57 166.07 42.28 165.8 42.14 165.45C42 165.82 41.7 166.12 41.31 166.26L41.15 166.02C41.65 165.85 41.99 165.41 41.99 164.94V164.81H41.24V164.56H43.03V164.81H42.29V164.94C42.29 165.38 42.61 165.8 43.1 165.96L42.94 166.2ZM41.57 166.52H43.74V167.67H43.43V166.76H41.56V166.51L41.57 166.52ZM44.24 165.46H43.74V166.34H43.43V164.33H43.74V165.21H44.24V165.46Z" fill="black"/>
<path d="M47.5 165.97C47.12 165.84 46.81 165.56 46.66 165.2C46.51 165.58 46.21 165.89 45.81 166.03L45.65 165.79C46.15 165.62 46.5 165.17 46.5 164.68V164.43H46.81V164.68C46.81 165.14 47.16 165.56 47.66 165.72L47.51 165.96L47.5 165.97ZM48.48 167.4V167.64H46.21V166.81H48.06V166.48H46.2V166.24H48.36V167.04H46.51V167.4H48.48ZM48.36 166.07H48.05V164.34H48.36V166.07Z" fill="black"/>
<path d="M52.07 165.85V166.1H49.05V165.85H52.07ZM51.79 165.61C51.27 165.53 50.78 165.27 50.56 164.9C50.35 165.27 49.85 165.53 49.33 165.61L49.22 165.36C49.82 165.29 50.4 164.93 50.4 164.5V164.35H50.71V164.5C50.71 164.91 51.3 165.28 51.89 165.36L51.78 165.61H51.79ZM51.38 166.32H51.68V167.61H49.43V166.32H49.73V166.71H51.37V166.32H51.38ZM51.38 166.94H49.74V167.36H51.38V166.94Z" fill="black"/>
<path d="M54.35 165.97C53.97 165.84 53.66 165.56 53.51 165.2C53.36 165.58 53.06 165.89 52.66 166.03L52.5 165.79C53 165.62 53.35 165.17 53.35 164.68V164.43H53.66V164.68C53.66 165.14 54.01 165.56 54.5 165.72L54.35 165.96V165.97ZM55.33 167.4V167.64H53.06V166.81H54.91V166.48H53.05V166.24H55.21V167.04H53.36V167.4H55.33ZM55.21 166.07H54.9V164.34H55.21V166.07Z" fill="black"/>
<path d="M73.22 159.54H71.85V160.69H71.54V159.54H70.18V159.29H73.21V159.54H73.22ZM72.83 158.84H70.57V157.54H72.83V158.84ZM72.53 157.79H70.87V158.6H72.53V157.79Z" fill="black"/>
<path d="M75.6 158H73.63V157.75H74.46V157.34H74.77V157.75H75.6V158ZM74.61 159.43C74.14 159.43 73.81 159.18 73.81 158.81C73.81 158.44 74.13 158.19 74.61 158.19C75.09 158.19 75.41 158.44 75.41 158.81C75.41 159.18 75.08 159.43 74.61 159.43ZM74.61 159.19C74.91 159.19 75.12 159.04 75.12 158.81C75.12 158.58 74.91 158.43 74.61 158.43C74.31 158.43 74.1 158.58 74.1 158.81C74.1 159.04 74.3 159.19 74.61 159.19ZM74.44 160.36H76.36V160.61H74.13V159.65H74.44V160.36ZM76.71 158.45V158.71H76.21V159.86H75.9V157.36H76.21V158.46H76.71V158.45Z" fill="black"/>
<path d="M68.01 163.81C67.65 163.68 67.36 163.4 67.21 163.06C67.07 163.45 66.77 163.76 66.38 163.91L66.22 163.67C66.73 163.49 67.05 163.03 67.05 162.52V162.18H67.36V162.55C67.36 163 67.69 163.42 68.17 163.58L68.01 163.82V163.81ZM68.87 164.73C68.87 165.12 68.45 165.34 67.77 165.34C67.09 165.34 66.67 165.12 66.67 164.73C66.67 164.34 67.09 164.12 67.77 164.12C68.45 164.12 68.87 164.34 68.87 164.73ZM68.56 164.73C68.56 164.5 68.26 164.36 67.77 164.36C67.28 164.36 66.97 164.5 66.97 164.73C66.97 164.96 67.27 165.1 67.77 165.1C68.27 165.1 68.56 164.96 68.56 164.73ZM69.32 162.86V163.11H68.82V164.02H68.51V162H68.82V162.86H69.32Z" fill="black"/>
<path d="M71.44 163.81C71.08 163.68 70.79 163.4 70.64 163.06C70.5 163.45 70.2 163.76 69.81 163.91L69.65 163.67C70.16 163.49 70.48 163.03 70.48 162.52V162.18H70.79V162.55C70.79 163 71.12 163.42 71.6 163.58L71.44 163.82V163.81ZM72.3 164.73C72.3 165.12 71.88 165.34 71.2 165.34C70.52 165.34 70.1 165.12 70.1 164.73C70.1 164.34 70.52 164.12 71.2 164.12C71.88 164.12 72.3 164.34 72.3 164.73ZM71.99 164.73C71.99 164.5 71.69 164.36 71.2 164.36C70.71 164.36 70.4 164.5 70.4 164.73C70.4 164.96 70.7 165.1 71.2 165.1C71.7 165.1 71.99 164.96 71.99 164.73ZM72.75 162.86V163.11H72.25V164.02H71.94V162H72.25V162.86H72.75Z" fill="black"/>
<path d="M75.86 162.35C75.86 163.32 75.53 164.2 74.34 164.8L74.17 164.56C74.79 164.26 75.16 163.88 75.36 163.43L74.24 163.54L74.19 163.27L75.46 163.18C75.52 162.99 75.55 162.8 75.56 162.6H74.36V162.35H75.87H75.86ZM77.24 163.61H76.7V165.34H76.39V162H76.7V163.36H77.24V163.61Z" fill="black"/>
<path d="M78.85 164.22C78.97 164.21 79.09 164.2 79.2 164.18L79.22 164.4C78.7 164.5 78 164.51 77.57 164.51L77.54 164.26C77.64 164.26 77.75 164.26 77.88 164.26V162.67H77.6V162.42H79.13V162.67H78.85V164.22ZM78.15 164.25C78.29 164.25 78.43 164.25 78.57 164.24V162.67H78.15V164.25ZM79.48 162.08H79.77V165.16H79.48V163.54H79.03V163.27H79.48V162.08ZM80.42 162V165.34H80.13V162H80.42Z" fill="black"/>
<path d="M114.63 162.46H115.24V160.42H114.76V160.2C115 160.16 115.18 160.09 115.33 160.01H115.59V162.46H116.14V162.74H114.64V162.46H114.63Z" fill="black"/>
<path d="M116.54 161.57H117.49V161.83H116.54V161.57Z" fill="black"/>
<path d="M117.77 162.43L117.94 162.21C118.1 162.37 118.29 162.51 118.61 162.51C118.93 162.51 119.19 162.26 119.19 161.87C119.19 161.48 118.97 161.25 118.62 161.25C118.44 161.25 118.32 161.31 118.17 161.41L117.99 161.3L118.08 160.02H119.41V160.31H118.38L118.31 161.1C118.43 161.03 118.55 160.99 118.72 160.99C119.17 160.99 119.54 161.26 119.54 161.86C119.54 162.46 119.11 162.8 118.65 162.8C118.23 162.8 117.96 162.62 117.78 162.44L117.77 162.43Z" fill="black"/>
<path d="M123.78 162.3V162.55H120.76V162.3H121.5V161.19H121.8V162.3H122.32V161.19H122.62V162.3H123.77H123.78ZM123.12 160.26H121.07V160.01H123.42V160.38C123.42 160.8 123.42 161.24 123.3 161.87L123 161.83C123.12 161.23 123.12 160.79 123.12 160.38V160.26Z" fill="black"/>
<path d="M126.06 161.31C125.68 161.18 125.37 160.9 125.22 160.54C125.07 160.92 124.77 161.23 124.37 161.37L124.21 161.13C124.71 160.96 125.06 160.51 125.06 160.02V159.77H125.37V160.02C125.37 160.48 125.72 160.9 126.21 161.06L126.06 161.3V161.31ZM127.04 162.74V162.98H124.77V162.15H126.62V161.82H124.76V161.58H126.92V162.38H125.07V162.74H127.04ZM126.92 161.41H126.61V159.68H126.92V161.41Z" fill="black"/>
<path d="M117.84 103.74H118.45V101.7H117.97V101.48C118.21 101.44 118.39 101.37 118.54 101.29H118.8V103.74H119.35V104.02H117.85V103.74H117.84Z" fill="black"/>
<path d="M119.75 102.85H120.7V103.11H119.75V102.85Z" fill="black"/>
<path d="M121.03 103.82C121.89 103.07 122.28 102.53 122.28 102.06C122.28 101.75 122.12 101.52 121.78 101.52C121.56 101.52 121.36 101.66 121.21 101.84L121.01 101.65C121.23 101.41 121.47 101.25 121.81 101.25C122.3 101.25 122.6 101.57 122.6 102.06C122.6 102.6 122.17 103.16 121.53 103.77C121.67 103.76 121.84 103.74 121.98 103.74H122.74V104.03H121.02V103.83L121.03 103.82Z" fill="black"/>
<path d="M126.99 103.58V103.83H123.97V103.58H124.71V102.47H125.01V103.58H125.54V102.47H125.84V103.58H126.99ZM126.33 101.54H124.28V101.29H126.63V101.66C126.63 102.08 126.63 102.52 126.51 103.15L126.21 103.11C126.33 102.51 126.33 102.07 126.33 101.66V101.54Z" fill="black"/>
<path d="M129.27 102.59C128.89 102.46 128.58 102.18 128.43 101.82C128.28 102.2 127.98 102.51 127.58 102.65L127.42 102.41C127.92 102.24 128.27 101.79 128.27 101.3V101.05H128.58V101.3C128.58 101.76 128.93 102.18 129.42 102.34L129.27 102.58V102.59ZM130.25 104.02V104.26H127.98V103.43H129.83V103.1H127.97V102.86H130.13V103.66H128.28V104.02H130.25ZM130.13 102.69H129.82V100.96H130.13V102.69Z" fill="black"/>
<path d="M159.69 118.32C159.99 118.31 160.3 118.28 160.59 118.24L160.61 118.47C159.9 118.6 159.11 118.6 158.53 118.6L158.49 118.34C158.76 118.34 159.07 118.34 159.39 118.33V117.97C159.01 117.92 158.75 117.69 158.75 117.36C158.75 116.98 159.07 116.74 159.54 116.74C160.01 116.74 160.33 116.98 160.33 117.36C160.33 117.69 160.08 117.92 159.69 117.97V118.32ZM160.53 116.54H158.53V116.3H159.38V115.9H159.69V116.3H160.53V116.54ZM159.54 117.73C159.84 117.73 160.04 117.58 160.04 117.35C160.04 117.12 159.84 116.97 159.54 116.97C159.24 116.97 159.04 117.12 159.04 117.35C159.04 117.58 159.24 117.73 159.54 117.73ZM161.61 117.56H161.09V119.22H160.78V115.88H161.09V117.3H161.61V117.56Z" fill="black"/>
<path d="M163.74 117.75C163.36 117.63 163.07 117.36 162.93 117.03C162.79 117.41 162.49 117.71 162.09 117.85L161.93 117.61C162.43 117.44 162.77 117 162.77 116.52V116.39H162.02V116.14H163.81V116.39H163.07V116.52C163.07 116.96 163.39 117.35 163.88 117.51L163.73 117.75H163.74ZM164.58 118.61C164.58 119 164.16 119.23 163.48 119.23C162.8 119.23 162.38 119 162.38 118.61C162.38 118.22 162.8 118 163.48 118C164.16 118 164.58 118.23 164.58 118.61ZM164.27 118.61C164.27 118.38 163.97 118.24 163.48 118.24C162.99 118.24 162.68 118.38 162.68 118.61C162.68 118.84 162.98 118.99 163.48 118.99C163.98 118.99 164.27 118.85 164.27 118.61ZM165.03 116.74V117H164.53V117.92H164.22V115.91H164.53V116.75H165.03V116.74Z" fill="black"/>
<path d="M167.24 117.53C166.86 117.4 166.55 117.12 166.4 116.76C166.25 117.14 165.95 117.45 165.55 117.59L165.39 117.35C165.89 117.18 166.24 116.73 166.24 116.24V115.99H166.55V116.24C166.55 116.7 166.9 117.12 167.4 117.28L167.25 117.52L167.24 117.53ZM168.22 118.96V119.2H165.95V118.37H167.8V118.04H165.94V117.8H168.1V118.6H166.25V118.96H168.22ZM168.1 117.63H167.79V115.9H168.1V117.63Z" fill="black"/>
<path d="M64.77 8.94C65.07 8.93 65.38 8.9 65.67 8.86L65.69 9.09C64.98 9.22 64.19 9.22 63.61 9.22L63.57 8.96C63.84 8.96 64.15 8.96 64.47 8.95V8.59C64.09 8.54 63.83 8.31 63.83 7.98C63.83 7.6 64.15 7.36 64.62 7.36C65.09 7.36 65.41 7.6 65.41 7.98C65.41 8.31 65.16 8.54 64.77 8.59V8.94ZM65.61 7.16H63.61V6.92H64.46V6.52H64.77V6.92H65.61V7.16ZM64.62 8.35C64.92 8.35 65.12 8.2 65.12 7.97C65.12 7.74 64.92 7.59 64.62 7.59C64.32 7.59 64.12 7.74 64.12 7.97C64.12 8.2 64.32 8.35 64.62 8.35ZM66.69 8.18H66.17V9.84H65.86V6.5H66.17V7.92H66.69V8.18Z" fill="black"/>
<path d="M68.82 8.37003C68.44 8.25003 68.15 7.98003 68.01 7.65003C67.87 8.03003 67.57 8.33003 67.17 8.47003L67.01 8.23003C67.51 8.06003 67.85 7.62003 67.85 7.14003V7.01003H67.1V6.76003H68.89V7.01003H68.15V7.14003C68.15 7.58003 68.47 7.97003 68.96 8.13003L68.81 8.37003H68.82ZM69.66 9.23003C69.66 9.62003 69.24 9.85003 68.56 9.85003C67.88 9.85003 67.46 9.62003 67.46 9.23003C67.46 8.84003 67.88 8.62003 68.56 8.62003C69.24 8.62003 69.66 8.85003 69.66 9.23003ZM69.35 9.23003C69.35 9.00003 69.05 8.86003 68.56 8.86003C68.07 8.86003 67.76 9.00003 67.76 9.23003C67.76 9.46003 68.06 9.61003 68.56 9.61003C69.06 9.61003 69.35 9.47003 69.35 9.23003ZM70.11 7.36003V7.62003H69.61V8.54003H69.3V6.53003H69.61V7.37003H70.11V7.36003Z" fill="black"/>
<path d="M72.32 8.15002C71.94 8.02002 71.63 7.74002 71.48 7.38002C71.33 7.76002 71.03 8.07002 70.63 8.21002L70.47 7.97002C70.97 7.80002 71.32 7.35002 71.32 6.86002V6.61002H71.63V6.86002C71.63 7.32002 71.98 7.74002 72.48 7.90002L72.33 8.14002L72.32 8.15002ZM73.3 9.58002V9.82002H71.03V8.99002H72.88V8.66002H71.02V8.42002H73.18V9.22002H71.33V9.58002H73.3ZM73.18 8.25002H72.87V6.52002H73.18V8.25002Z" fill="black"/>
<path d="M117.84 79.01H118.45V76.97H117.97V76.75C118.21 76.71 118.39 76.64 118.54 76.56H118.8V79.01H119.35V79.29H117.85V79.01H117.84Z" fill="black"/>
<path d="M119.75 78.12H120.7V78.38H119.75V78.12Z" fill="black"/>
<path d="M120.98 78.97L121.15 78.75C121.31 78.92 121.52 79.06 121.83 79.06C122.15 79.06 122.38 78.87 122.38 78.55C122.38 78.23 122.16 78 121.53 78V77.74C122.09 77.74 122.29 77.51 122.29 77.22C122.29 76.96 122.11 76.79 121.83 76.78C121.61 76.78 121.42 76.9 121.26 77.05L121.08 76.83C121.28 76.64 121.53 76.5 121.84 76.5C122.3 76.5 122.63 76.75 122.63 77.19C122.63 77.52 122.43 77.74 122.14 77.85V77.87C122.46 77.94 122.72 78.19 122.72 78.56C122.72 79.05 122.33 79.34 121.84 79.34C121.41 79.34 121.14 79.16 120.96 78.97H120.98Z" fill="black"/>
<path d="M126.99 78.85V79.1H123.97V78.85H124.71V77.74H125.01V78.85H125.54V77.74H125.84V78.85H126.99ZM126.33 76.81H124.28V76.56H126.63V76.93C126.63 77.35 126.63 77.79 126.51 78.42L126.21 78.38C126.33 77.78 126.33 77.34 126.33 76.93V76.81Z" fill="black"/>
<path d="M129.27 77.86C128.89 77.73 128.58 77.45 128.43 77.09C128.28 77.47 127.98 77.78 127.58 77.92L127.42 77.68C127.92 77.51 128.27 77.06 128.27 76.57V76.32H128.58V76.57C128.58 77.03 128.93 77.45 129.42 77.61L129.27 77.85V77.86ZM130.25 79.29V79.53H127.98V78.7H129.83V78.37H127.97V78.13H130.13V78.93H128.28V79.29H130.25ZM130.13 77.96H129.82V76.23H130.13V77.96Z" fill="black"/>
<path d="M117.84 58.93H118.45V56.89H117.97V56.67C118.21 56.63 118.39 56.56 118.54 56.48H118.8V58.93H119.35V59.21H117.85V58.93H117.84Z" fill="black"/>
<path d="M119.75 58.04H120.7V58.3H119.75V58.04Z" fill="black"/>
<path d="M122.82 58.46H122.46V59.21H122.14V58.46H120.95V58.2401L122.08 56.4901H122.46V58.2001H122.82V58.4701V58.46ZM122.14 58.19V57.35C122.14 57.22 122.15 57 122.16 56.85H122.14C122.07 56.98 122 57.12 121.92 57.25L121.3 58.18H122.13L122.14 58.19Z" fill="black"/>
<path d="M126.99 58.77V59.02H123.97V58.77H124.71V57.66H125.01V58.77H125.54V57.66H125.84V58.77H126.99ZM126.33 56.73H124.28V56.48H126.63V56.85C126.63 57.27 126.63 57.71 126.51 58.34L126.21 58.3C126.33 57.7 126.33 57.26 126.33 56.85V56.73Z" fill="black"/>
<path d="M129.27 57.78C128.89 57.65 128.58 57.37 128.43 57.01C128.28 57.39 127.98 57.7 127.58 57.84L127.42 57.6C127.92 57.43 128.27 56.98 128.27 56.49V56.24H128.58V56.49C128.58 56.95 128.93 57.37 129.42 57.53L129.27 57.77V57.78ZM130.25 59.21V59.45H127.98V58.62H129.83V58.29H127.97V58.05H130.13V58.85H128.28V59.21H130.25ZM130.13 57.88H129.82V56.15H130.13V57.88Z" fill="black"/>
<path d="M117.67 43.29C118.53 42.54 118.92 42 118.92 41.53C118.92 41.22 118.76 40.99 118.42 40.99C118.2 40.99 118 41.13 117.85 41.31L117.65 41.12C117.87 40.88 118.11 40.72 118.45 40.72C118.94 40.72 119.24 41.04 119.24 41.53C119.24 42.07 118.81 42.63 118.17 43.24C118.31 43.23 118.48 43.21 118.62 43.21H119.38V43.5H117.66V43.3L117.67 43.29Z" fill="black"/>
<path d="M119.75 42.32H120.7V42.58H119.75V42.32Z" fill="black"/>
<path d="M121.2 43.21H121.81V41.17H121.33V40.95C121.57 40.91 121.75 40.84 121.9 40.76H122.16V43.21H122.71V43.49H121.21V43.21H121.2Z" fill="black"/>
<path d="M126.99 43.05V43.3H123.97V43.05H124.71V41.94H125.01V43.05H125.54V41.94H125.84V43.05H126.99ZM126.33 41.01H124.28V40.76H126.63V41.13C126.63 41.55 126.63 41.99 126.51 42.62L126.21 42.58C126.33 41.98 126.33 41.54 126.33 41.13V41.01Z" fill="black"/>
<path d="M129.27 42.06C128.89 41.93 128.58 41.65 128.43 41.29C128.28 41.67 127.98 41.98 127.58 42.12L127.42 41.88C127.92 41.71 128.27 41.26 128.27 40.77V40.52H128.58V40.77C128.58 41.23 128.93 41.65 129.42 41.81L129.27 42.05V42.06ZM130.25 43.49V43.73H127.98V42.9H129.83V42.57H127.97V42.33H130.13V43.13H128.28V43.49H130.25ZM130.13 42.16H129.82V40.43H130.13V42.16Z" fill="black"/>
<path d="M117.67 28.44C118.53 27.69 118.92 27.15 118.92 26.68C118.92 26.37 118.76 26.14 118.42 26.14C118.2 26.14 118 26.28 117.85 26.46L117.65 26.27C117.87 26.03 118.11 25.87 118.45 25.87C118.94 25.87 119.24 26.19 119.24 26.68C119.24 27.22 118.81 27.78 118.17 28.39C118.31 28.38 118.48 28.36 118.62 28.36H119.38V28.65H117.66V28.45L117.67 28.44Z" fill="black"/>
<path d="M119.75 27.47H120.7V27.73H119.75V27.47Z" fill="black"/>
<path d="M121.03 28.44C121.89 27.69 122.28 27.15 122.28 26.68C122.28 26.37 122.12 26.14 121.78 26.14C121.56 26.14 121.36 26.28 121.21 26.46L121.01 26.27C121.23 26.03 121.47 25.87 121.81 25.87C122.3 25.87 122.6 26.19 122.6 26.68C122.6 27.22 122.17 27.78 121.53 28.39C121.67 28.38 121.84 28.36 121.98 28.36H122.74V28.65H121.02V28.45L121.03 28.44Z" fill="black"/>
<path d="M126.99 28.2V28.45H123.97V28.2H124.71V27.09H125.01V28.2H125.54V27.09H125.84V28.2H126.99ZM126.33 26.16H124.28V25.91H126.63V26.28C126.63 26.7 126.63 27.14 126.51 27.77L126.21 27.73C126.33 27.13 126.33 26.69 126.33 26.28V26.16Z" fill="black"/>
<path d="M129.27 27.22C128.89 27.09 128.58 26.81 128.43 26.45C128.28 26.83 127.98 27.14 127.58 27.28L127.42 27.04C127.92 26.87 128.27 26.42 128.27 25.93V25.68H128.58V25.93C128.58 26.39 128.93 26.81 129.42 26.97L129.27 27.21V27.22ZM130.25 28.65V28.89H127.98V28.06H129.83V27.73H127.97V27.49H130.13V28.29H128.28V28.65H130.25ZM130.13 27.32H129.82V25.59H130.13V27.32Z" fill="black"/>
<path d="M62.06 42.73C62.92 41.98 63.31 41.44 63.31 40.97C63.31 40.66 63.15 40.43 62.81 40.43C62.59 40.43 62.39 40.57 62.24 40.75L62.04 40.56C62.26 40.32 62.5 40.16 62.84 40.16C63.33 40.16 63.63 40.48 63.63 40.97C63.63 41.51 63.2 42.07 62.56 42.68C62.7 42.67 62.87 42.65 63.01 42.65H63.77V42.94H62.05V42.74L62.06 42.73Z" fill="black"/>
<path d="M64.14 41.76H65.09V42.02H64.14V41.76Z" fill="black"/>
<path d="M67.21 42.18H66.85V42.93H66.53V42.18H65.34V41.96L66.48 40.21H66.86V41.92H67.22V42.19L67.21 42.18ZM66.52 41.91V41.07C66.52 40.94 66.53 40.72 66.54 40.57H66.52C66.45 40.7 66.38 40.84 66.3 40.97L65.68 41.9H66.51L66.52 41.91Z" fill="black"/>
<path d="M71.38 42.49V42.74H68.36V42.49H69.1V41.38H69.4V42.49H69.92V41.38H70.22V42.49H71.37H71.38ZM70.72 40.45H68.67V40.2H71.02V40.57C71.02 40.99 71.02 41.43 70.9 42.06L70.6 42.02C70.72 41.42 70.72 40.98 70.72 40.57V40.45Z" fill="black"/>
<path d="M73.65 41.5C73.27 41.37 72.96 41.09 72.81 40.73C72.66 41.11 72.36 41.42 71.96 41.56L71.8 41.32C72.3 41.15 72.65 40.7 72.65 40.21V39.96H72.96V40.21C72.96 40.67 73.31 41.09 73.8 41.25L73.65 41.49V41.5ZM74.63 42.93V43.17H72.36V42.34H74.21V42.01H72.35V41.77H74.51V42.57H72.66V42.93H74.63ZM74.51 41.6H74.2V39.87H74.51V41.6Z" fill="black"/>
<path d="M62.06 64.0001C62.92 63.2501 63.31 62.7101 63.31 62.2401C63.31 61.9301 63.15 61.7001 62.81 61.7001C62.59 61.7001 62.39 61.8401 62.24 62.0201L62.04 61.8301C62.26 61.5901 62.5 61.4301 62.84 61.4301C63.33 61.4301 63.63 61.7501 63.63 62.2401C63.63 62.7801 63.2 63.3401 62.56 63.9501C62.7 63.9401 62.87 63.9201 63.01 63.9201H63.77V64.2101H62.05V64.0101L62.06 64.0001Z" fill="black"/>
<path d="M64.14 63.03H65.09V63.29H64.14V63.03Z" fill="black"/>
<path d="M65.37 63.88L65.54 63.66C65.7 63.83 65.91 63.97 66.22 63.97C66.53 63.97 66.77 63.78 66.77 63.46C66.77 63.14 66.55 62.91 65.92 62.91V62.65C66.48 62.65 66.68 62.42 66.68 62.13C66.68 61.87 66.5 61.7 66.22 61.69C66 61.69 65.81 61.81 65.65 61.96L65.47 61.74C65.67 61.55 65.92 61.41 66.23 61.41C66.69 61.41 67.02 61.66 67.02 62.1C67.02 62.43 66.82 62.65 66.53 62.76V62.78C66.85 62.85 67.11 63.1 67.11 63.47C67.11 63.96 66.72 64.25 66.23 64.25C65.8 64.25 65.53 64.07 65.35 63.88H65.37Z" fill="black"/>
<path d="M71.38 63.76V64.01H68.36V63.76H69.1V62.65H69.4V63.76H69.92V62.65H70.22V63.76H71.37H71.38ZM70.72 61.72H68.67V61.47H71.02V61.84C71.02 62.26 71.02 62.7 70.9 63.33L70.6 63.29C70.72 62.69 70.72 62.25 70.72 61.84V61.72Z" fill="black"/>
<path d="M73.65 62.78C73.27 62.65 72.96 62.37 72.81 62.01C72.66 62.39 72.36 62.7 71.96 62.84L71.8 62.6C72.3 62.43 72.65 61.98 72.65 61.49V61.24H72.96V61.49C72.96 61.95 73.31 62.37 73.8 62.53L73.65 62.77V62.78ZM74.63 64.21V64.45H72.36V63.62H74.21V63.29H72.35V63.05H74.51V63.85H72.66V64.21H74.63ZM74.51 62.88H74.2V61.15H74.51V62.88Z" fill="black"/>
<path d="M62.23 107.41H62.84V105.37H62.36V105.15C62.6 105.11 62.78 105.04 62.93 104.96H63.19V107.41H63.74V107.69H62.24V107.41H62.23Z" fill="black"/>
<path d="M64.14 106.52H65.09V106.78H64.14V106.52Z" fill="black"/>
<path d="M65.59 107.41H66.2V105.37H65.72V105.15C65.96 105.11 66.14 105.04 66.29 104.96H66.55V107.41H67.1V107.69H65.6V107.41H65.59Z" fill="black"/>
<path d="M71.38 107.25V107.5H68.36V107.25H69.1V106.14H69.4V107.25H69.92V106.14H70.22V107.25H71.37H71.38ZM70.72 105.21H68.67V104.96H71.02V105.33C71.02 105.75 71.02 106.19 70.9 106.82L70.6 106.78C70.72 106.18 70.72 105.74 70.72 105.33V105.21Z" fill="black"/>
<path d="M73.65 106.27C73.27 106.14 72.96 105.86 72.81 105.5C72.66 105.88 72.36 106.19 71.96 106.33L71.8 106.09C72.3 105.92 72.65 105.47 72.65 104.98V104.73H72.96V104.98C72.96 105.44 73.31 105.86 73.8 106.02L73.65 106.26V106.27ZM74.63 107.7V107.94H72.36V107.11H74.21V106.78H72.35V106.54H74.51V107.34H72.66V107.7H74.63ZM74.51 106.37H74.2V104.64H74.51V106.37Z" fill="black"/>
<path d="M57.61 93.2C57.23 93.08 56.94 92.84 56.79 92.52C56.65 92.87 56.35 93.15 55.96 93.28L55.81 93.04C56.31 92.89 56.64 92.49 56.64 92.04V91.97H55.9V91.72H56.64V91.3H56.95V91.72H57.69V91.97H56.95V92.04C56.95 92.45 57.27 92.81 57.77 92.96L57.62 93.2H57.61ZM58.43 94.06C58.43 94.44 58.01 94.66 57.33 94.66C56.65 94.66 56.23 94.44 56.23 94.06C56.23 93.68 56.64 93.46 57.33 93.46C58.02 93.46 58.43 93.68 58.43 94.06ZM58.12 94.06C58.12 93.83 57.82 93.69 57.33 93.69C56.84 93.69 56.53 93.82 56.53 94.06C56.53 94.3 56.83 94.42 57.33 94.42C57.83 94.42 58.12 94.29 58.12 94.06ZM58.88 92.19V92.44H58.38V93.37H58.07V91.32H58.38V92.18H58.88V92.19Z" fill="black"/>
<path d="M62.25 93.94V94.19H59.23V93.94H60.4V92.75H60.71V93.94H62.25ZM61.58 91.9H59.54V91.65H61.88V91.98C61.88 92.39 61.88 92.85 61.75 93.52L61.44 93.49C61.57 92.85 61.57 92.38 61.57 91.98V91.9H61.58Z" fill="black"/>
<path d="M143.59 171.35H144.2V169.31H143.72V169.09C143.96 169.05 144.14 168.98 144.29 168.9H144.55V171.35H145.1V171.63H143.6V171.35H143.59Z" fill="black"/>
<path d="M145.5 170.46H146.45V170.72H145.5V170.46Z" fill="black"/>
<path d="M148.29 169.34C148.18 169.21 148.02 169.13 147.85 169.13C147.48 169.13 147.16 169.42 147.15 170.27C147.32 170.06 147.56 169.94 147.77 169.94C148.23 169.94 148.53 170.23 148.53 170.8C148.53 171.33 148.17 171.69 147.75 171.69C147.23 171.69 146.84 171.24 146.84 170.34C146.84 169.27 147.32 168.86 147.85 168.86C148.13 168.86 148.34 168.98 148.49 169.14L148.3 169.35L148.29 169.34ZM148.2 170.79C148.2 170.42 148.04 170.19 147.71 170.19C147.54 170.19 147.33 170.29 147.15 170.54C147.19 171.11 147.4 171.42 147.74 171.42C148 171.42 148.2 171.17 148.2 170.8V170.79Z" fill="black"/>
<path d="M152.74 171.19V171.44H149.72V171.19H150.46V170.08H150.76V171.19H151.28V170.08H151.58V171.19H152.73H152.74ZM152.08 169.15H150.03V168.9H152.38V169.27C152.38 169.69 152.38 170.13 152.26 170.76L151.96 170.72C152.08 170.12 152.08 169.68 152.08 169.27V169.15Z" fill="black"/>
<path d="M155.02 170.2C154.64 170.07 154.33 169.79 154.18 169.43C154.03 169.81 153.73 170.12 153.33 170.26L153.17 170.02C153.67 169.85 154.02 169.4 154.02 168.91V168.66H154.33V168.91C154.33 169.37 154.68 169.79 155.17 169.95L155.02 170.19V170.2ZM156 171.63V171.87H153.73V171.04H155.58V170.71H153.72V170.47H155.88V171.27H154.03V171.63H156ZM155.88 170.3H155.57V168.57H155.88V170.3Z" fill="black"/>
<path d="M174.3 161.82H174.66L175.65 163.54L175.94 164.1H175.96C175.94 163.82 175.92 163.52 175.92 163.24V161.82H176.25V164.55H175.9L174.91 162.83L174.62 162.27H174.61C174.62 162.55 174.65 162.84 174.65 163.12V164.55H174.32V161.82H174.3Z" fill="black"/>
<path d="M176.83 163.19C176.83 162.31 177.35 161.77 178.04 161.77C178.37 161.77 178.63 161.93 178.79 162.11L178.6 162.33C178.46 162.18 178.28 162.07 178.04 162.07C177.52 162.07 177.18 162.49 177.18 163.18C177.18 163.87 177.51 164.3 178.03 164.3C178.29 164.3 178.49 164.18 178.66 163.99L178.85 164.21C178.63 164.46 178.37 164.6 178.01 164.6C177.33 164.6 176.82 164.07 176.82 163.19H176.83Z" fill="black"/>
<path d="M179.07 164.19L179.28 163.96C179.48 164.16 179.75 164.3 180.04 164.3C180.4 164.3 180.61 164.12 180.61 163.85C180.61 163.58 180.41 163.48 180.16 163.37L179.76 163.2C179.51 163.09 179.21 162.9 179.21 162.5C179.21 162.08 179.58 161.77 180.07 161.77C180.39 161.77 180.68 161.91 180.87 162.11L180.69 162.33C180.52 162.17 180.32 162.07 180.07 162.07C179.76 162.07 179.56 162.23 179.56 162.47C179.56 162.73 179.8 162.83 180.01 162.92L180.4 163.09C180.72 163.23 180.96 163.41 180.96 163.82C180.96 164.25 180.6 164.59 180.03 164.59C179.64 164.59 179.31 164.43 179.07 164.18V164.19Z" fill="black"/>
<path d="M172.18 168.78V169.03H169.15V168.78H172.18ZM171.89 168.07C171.38 167.95 170.86 167.6 170.65 167.11C170.44 167.6 169.92 167.95 169.41 168.07L169.27 167.82C169.85 167.7 170.48 167.2 170.48 166.63V166.37H170.8V166.63C170.8 167.2 171.43 167.71 172.02 167.82L171.88 168.07H171.89Z" fill="black"/>
<path d="M172.71 166.47H174.24V168.63H172.71V166.47ZM173.01 168.38H173.94V166.72H173.01V168.38ZM175.7 167.72H175.15V169.47H174.84V166.13H175.15V167.46H175.7V167.72Z" fill="black"/>
<path d="M179.03 168.8V169.05H176V168.8H179.03ZM178.68 168.19H176.39V166.43H178.65V166.68H176.7V167.18H178.58V167.42H176.7V167.95H178.68V168.2V168.19Z" fill="black"/>
<path d="M182.46 167.85V168.1H181.12V168.77H180.81V168.1H179.42V167.85H182.45H182.46ZM180.12 169.16H182.12V169.41H179.81V168.46H180.12V169.16ZM182.07 167.47H179.82V166.3H182.07V167.47ZM181.77 166.54H180.12V167.22H181.77V166.54Z" fill="black"/>
<path d="M184.03 168.57C184.33 168.56 184.64 168.53 184.93 168.49L184.95 168.72C184.24 168.85 183.45 168.85 182.87 168.85L182.83 168.59C183.1 168.59 183.41 168.59 183.73 168.58V168.22C183.35 168.17 183.09 167.94 183.09 167.61C183.09 167.23 183.41 166.99 183.88 166.99C184.35 166.99 184.67 167.23 184.67 167.61C184.67 167.94 184.42 168.17 184.03 168.22V168.57ZM184.87 166.79H182.87V166.55H183.72V166.15H184.03V166.55H184.87V166.79ZM183.88 167.98C184.18 167.98 184.38 167.83 184.38 167.6C184.38 167.37 184.18 167.22 183.88 167.22C183.58 167.22 183.38 167.37 183.38 167.6C183.38 167.83 183.58 167.98 183.88 167.98ZM185.95 167.81H185.43V169.47H185.12V166.13H185.43V167.55H185.95V167.81Z" fill="black"/>
<path d="M175.18 172.57V172.82H172.17V172.57H173.39V172.09H173.7V172.57H175.18ZM174.51 171.57C174.51 171.45 174.51 171.35 174.51 171.25V171.21H172.52V170.96H174.81V171.25C174.81 171.56 174.81 171.89 174.72 172.35L174.42 172.33C174.46 172.13 174.48 171.96 174.49 171.81L172.48 171.9L172.44 171.64L174.51 171.57ZM172.86 173.84H174.89V174.09H172.56V173.11H172.87V173.84H172.86Z" fill="black"/>
<path d="M177.18 172.66C176.8 172.73 176.48 172.75 175.95 172.75H175.74V171.08H177V171.33H176.03V171.79H176.86V172.03H176.03V172.51C176.5 172.51 176.8 172.49 177.15 172.42L177.18 172.67V172.66ZM178.5 173.81V174.06H176.23V173.02H176.54V173.81H178.5ZM177.47 171.99H177.03V171.74H177.47V170.86H177.76V173.21H177.47V171.99ZM178.41 173.3H178.12V170.8H178.41V173.3Z" fill="black"/>
<path d="M182.04 173.46V173.71H179.01V173.46H182.04ZM179.19 172.65C179.83 172.54 180.37 172.12 180.37 171.58H179.29V171.33H180.37V170.88H180.68V171.33H181.75V171.58H180.68C180.68 172.13 181.22 172.54 181.86 172.65L181.74 172.9C181.21 172.79 180.74 172.51 180.53 172.08C180.32 172.51 179.85 172.79 179.32 172.9L179.2 172.65H179.19Z" fill="black"/>
<path d="M169.61 176.39C169.61 176.97 169.86 177.55 170.32 177.81L170.13 178.03C169.81 177.84 169.57 177.48 169.46 177.05C169.34 177.51 169.1 177.9 168.77 178.11L168.58 177.88C169.05 177.6 169.31 176.99 169.31 176.38V176.08H168.68V175.83H170.2V176.08H169.6V176.38L169.61 176.39ZM170.5 175.52H170.79V178.61H170.5V176.89H169.95V176.64H170.5V175.52ZM171.46 175.44V178.78H171.17V175.44H171.46Z" fill="black"/>
<path d="M173.84 177.32C173.47 177.19 173.18 176.92 173.04 176.57C172.9 176.94 172.6 177.24 172.21 177.38L172.05 177.14C172.55 176.97 172.89 176.53 172.89 176.06V175.93H172.14V175.68H173.93V175.93H173.19V176.06C173.19 176.5 173.51 176.92 174 177.08L173.84 177.32ZM172.47 177.64H174.64V178.79H174.33V177.88H172.46V177.63L172.47 177.64ZM175.14 176.58H174.64V177.46H174.33V175.45H174.64V176.33H175.14V176.58Z" fill="black"/>
<path d="M178.39 177.09C178.01 176.96 177.7 176.68 177.55 176.32C177.4 176.7 177.1 177.01 176.7 177.15L176.54 176.91C177.04 176.74 177.39 176.29 177.39 175.8V175.55H177.7V175.8C177.7 176.26 178.05 176.68 178.55 176.84L178.4 177.08L178.39 177.09ZM179.37 178.52V178.76H177.1V177.93H178.95V177.6H177.09V177.36H179.25V178.16H177.4V178.52H179.37ZM179.25 177.19H178.94V175.46H179.25V177.19Z" fill="black"/>
<path d="M182.97 176.98V177.23H179.95V176.98H182.97ZM182.69 176.74C182.17 176.66 181.68 176.4 181.46 176.03C181.25 176.4 180.75 176.66 180.23 176.74L180.12 176.49C180.72 176.42 181.3 176.06 181.3 175.63V175.48H181.61V175.63C181.61 176.04 182.2 176.41 182.79 176.49L182.68 176.74H182.69ZM182.28 177.45H182.58V178.74H180.33V177.45H180.63V177.84H182.27V177.45H182.28ZM182.28 178.07H180.64V178.49H182.28V178.07Z" fill="black"/>
<path d="M185.25 177.09C184.87 176.96 184.56 176.68 184.41 176.32C184.26 176.7 183.96 177.01 183.56 177.15L183.4 176.91C183.9 176.74 184.25 176.29 184.25 175.8V175.55H184.56V175.8C184.56 176.26 184.91 176.68 185.4 176.84L185.25 177.08V177.09ZM186.23 178.52V178.76H183.96V177.93H185.81V177.6H183.95V177.36H186.11V178.16H184.26V178.52H186.23ZM186.11 177.19H185.8V175.46H186.11V177.19Z" fill="black"/>
<path d="M55.35 82.44C55.65 82.43 55.96 82.4 56.25 82.36L56.27 82.59C55.55 82.72 54.76 82.72 54.18 82.72L54.14 82.46C54.41 82.46 54.72 82.46 55.05 82.45V82.08C54.66 82.03 54.41 81.8 54.41 81.47C54.41 81.09 54.74 80.85 55.2 80.85C55.66 80.85 55.99 81.09 55.99 81.47C55.99 81.8 55.74 82.03 55.35 82.08V82.43V82.44ZM56.19 80.65H54.19V80.41H55.04V80.01H55.35V80.41H56.19V80.65ZM55.19 81.85C55.49 81.85 55.69 81.7 55.69 81.47C55.69 81.24 55.49 81.09 55.19 81.09C54.89 81.09 54.69 81.24 54.69 81.47C54.69 81.7 54.89 81.85 55.19 81.85ZM57.27 81.68H56.75V83.35H56.44V80H56.75V81.42H57.27V81.68Z" fill="black"/>
<path d="M59.42 81.86C59.04 81.74 58.75 81.47 58.61 81.14C58.47 81.52 58.17 81.82 57.77 81.96L57.61 81.72C58.11 81.54 58.45 81.11 58.45 80.63V80.5H57.7V80.25H59.5V80.5H58.76V80.63C58.76 81.07 59.08 81.46 59.57 81.62L59.42 81.86ZM60.26 82.73C60.26 83.12 59.84 83.35 59.16 83.35C58.48 83.35 58.05 83.12 58.05 82.73C58.05 82.34 58.47 82.11 59.16 82.11C59.85 82.11 60.26 82.34 60.26 82.73ZM59.95 82.73C59.95 82.49 59.65 82.36 59.15 82.36C58.65 82.36 58.35 82.5 58.35 82.73C58.35 82.96 58.65 83.11 59.15 83.11C59.65 83.11 59.95 82.97 59.95 82.73ZM60.72 80.85V81.11H60.22V82.03H59.91V80.01H60.22V80.85H60.72Z" fill="black"/>
<path d="M62.94 81.64C62.56 81.51 62.25 81.22 62.1 80.87C61.95 81.26 61.64 81.56 61.25 81.7L61.09 81.46C61.59 81.28 61.94 80.84 61.94 80.35V80.1H62.25V80.35C62.25 80.81 62.6 81.23 63.1 81.4L62.95 81.64H62.94ZM63.93 83.07V83.31H61.65V82.48H63.51V82.15H61.64V81.91H63.81V82.72H61.95V83.08H63.92L63.93 83.07ZM63.81 81.74H63.5V80H63.81V81.74Z" fill="black"/>
<path d="M131.55 4.97998V15.44" stroke="#231F20" stroke-width="0.5" stroke-miterlimit="10"/>
<path d="M123.39 4.97998V15.44" stroke="#231F20" stroke-width="0.5" stroke-miterlimit="10"/>
<path d="M138.38 10.21H116.56" stroke="#231F20" stroke-width="0.5" stroke-miterlimit="10"/>
<path d="M91.07 159.35H101.53" stroke="#231F20" stroke-width="0.5" stroke-miterlimit="10"/>
<path d="M91.07 163.26H101.53" stroke="#231F20" stroke-width="0.5" stroke-miterlimit="10"/>
<path d="M96.3 156.07V166.54" stroke="#231F20" stroke-width="0.5" stroke-miterlimit="10"/>
</svg>
