<svg width="193" height="131" viewBox="0 0 193 131" fill="none" xmlns="http://www.w3.org/2000/svg">
<path d="M139.68 51.93H153.85" stroke="black" stroke-width="0.5" stroke-miterlimit="10"/>
<path d="M139.68 59.41H153.85" stroke="black" stroke-width="0.5" stroke-miterlimit="10"/>
<path d="M146.76 46.08V65.49" stroke="black" stroke-width="0.5" stroke-miterlimit="10"/>
<path d="M30.21 66.75V1H192.6V129.98H30.21V98.48" stroke="black" stroke-width="0.5" stroke-miterlimit="10"/>
<path d="M192.6 1H159.67V129.97H192.6V1Z" stroke="black" stroke-width="0.5" stroke-miterlimit="10"/>
<path d="M133.85 66.76H159.67V1.01001H133.85V66.76Z" stroke="black" stroke-width="0.5" stroke-miterlimit="10"/>
<path d="M133.86 1H119.17V66.75H133.86V1Z" stroke="black" stroke-width="0.5" stroke-miterlimit="10"/>
<path d="M30.21 66.76L119.17 66.76L119.17 1.01001L30.21 1.01001L30.21 66.76Z" stroke="black" stroke-width="0.5" stroke-miterlimit="10"/>
<path d="M30.22 129.98H73.37V98.48H30.22L30.22 129.98Z" stroke="black" stroke-width="0.5" stroke-miterlimit="10"/>
<path d="M73.37 129.98H116.52V98.48H73.37V129.98Z" stroke="black" stroke-width="0.5" stroke-miterlimit="10"/>
<path d="M116.52 129.98H159.67V98.48H116.52V129.98Z" stroke="black" stroke-width="0.5" stroke-miterlimit="10"/>
<path d="M30.21 33.88L119.17 33.88V1.00001L30.21 1.00001V33.88Z" stroke="black" stroke-width="0.5" stroke-miterlimit="10"/>
<path d="M30.21 98.48V129.98H1V66.75H30.21" stroke="black" stroke-width="0.5" stroke-miterlimit="10"/>
<path d="M8.51999 104.6H22.69" stroke="black" stroke-width="0.5" stroke-miterlimit="10"/>
<path d="M8.51999 112.09H22.69" stroke="black" stroke-width="0.5" stroke-miterlimit="10"/>
<path d="M15.75 96.91V120.46" stroke="black" stroke-width="0.5" stroke-miterlimit="10"/>
<path d="M45.46 114.96H44.46L44.2 115.79H43.85L44.78 113.06H45.16L46.09 115.79H45.72L45.46 114.96ZM45.37 114.68L45.24 114.26C45.14 113.95 45.05 113.65 44.96 113.34H44.95C44.86 113.66 44.77 113.95 44.68 114.26L44.55 114.68H45.38H45.37Z" fill="black"/>
<path d="M46.47 113.07H46.82V115.8H46.47V113.07Z" fill="black"/>
<path d="M48.4 113.07H48.75V115.51H49.94V115.8H48.4V113.07Z" fill="black"/>
<path d="M51.68 114.96H50.68L50.42 115.79H50.07L51 113.06H51.38L52.31 115.79H51.94L51.68 114.96ZM51.59 114.68L51.46 114.26C51.36 113.95 51.27 113.65 51.18 113.34H51.17C51.08 113.66 50.99 113.95 50.9 114.26L50.77 114.68H51.6H51.59Z" fill="black"/>
<path d="M52.69 113.07H53.5C54.05 113.07 54.44 113.26 54.44 113.74C54.44 114.01 54.29 114.25 54.04 114.33V114.35C54.37 114.41 54.6 114.63 54.6 115C54.6 115.54 54.18 115.8 53.56 115.8H52.69V113.07ZM53.44 114.23C53.91 114.23 54.1 114.06 54.1 113.78C54.1 113.46 53.88 113.34 53.46 113.34H53.04V114.23H53.45H53.44ZM53.51 115.52C53.98 115.52 54.25 115.35 54.25 114.98C54.25 114.64 53.98 114.49 53.51 114.49H53.03V115.52H53.51Z" fill="black"/>
<path d="M55.78 114.42C55.78 113.47 56.11 113.01 56.63 113.01C57.15 113.01 57.48 113.47 57.48 114.42C57.48 115.37 57.15 115.84 56.63 115.84C56.11 115.84 55.78 115.37 55.78 114.42ZM57.15 114.42C57.15 113.62 56.94 113.29 56.63 113.29C56.32 113.29 56.11 113.62 56.11 114.42C56.11 115.22 56.32 115.57 56.63 115.57C56.94 115.57 57.15 115.22 57.15 114.42Z" fill="black"/>
<path d="M58 115.51H58.61V113.47H58.13V113.25C58.37 113.21 58.55 113.14 58.7 113.06H58.96V115.51H59.51V115.79H58.01V115.51H58Z" fill="black"/>
<path d="M88.62 114.96H87.62L87.36 115.79H87.01L87.94 113.06H88.32L89.25 115.79H88.88L88.62 114.96ZM88.53 114.68L88.4 114.26C88.3 113.95 88.21 113.65 88.12 113.34H88.11C88.02 113.66 87.93 113.95 87.84 114.26L87.71 114.68H88.54H88.53Z" fill="black"/>
<path d="M89.63 113.07H89.98V115.8H89.63V113.07Z" fill="black"/>
<path d="M91.55 113.07H91.9V115.51H93.09V115.8H91.55V113.07Z" fill="black"/>
<path d="M94.83 114.96H93.83L93.57 115.79H93.22L94.15 113.06H94.53L95.46 115.79H95.09L94.83 114.96ZM94.74 114.68L94.61 114.26C94.51 113.95 94.42 113.65 94.33 113.34H94.32C94.23 113.66 94.14 113.95 94.05 114.26L93.92 114.68H94.75H94.74Z" fill="black"/>
<path d="M95.85 113.07H96.66C97.21 113.07 97.6 113.26 97.6 113.74C97.6 114.01 97.45 114.25 97.2 114.33V114.35C97.53 114.41 97.76 114.63 97.76 115C97.76 115.54 97.34 115.8 96.72 115.8H95.85V113.07ZM96.6 114.23C97.07 114.23 97.26 114.06 97.26 113.78C97.26 113.46 97.04 113.34 96.62 113.34H96.2V114.23H96.61H96.6ZM96.67 115.52C97.14 115.52 97.41 115.35 97.41 114.98C97.41 114.64 97.14 114.49 96.67 114.49H96.19V115.52H96.67Z" fill="black"/>
<path d="M98.94 114.42C98.94 113.47 99.27 113.01 99.79 113.01C100.31 113.01 100.64 113.47 100.64 114.42C100.64 115.37 100.31 115.84 99.79 115.84C99.27 115.84 98.94 115.37 98.94 114.42ZM100.31 114.42C100.31 113.62 100.1 113.29 99.79 113.29C99.48 113.29 99.27 113.62 99.27 114.42C99.27 115.22 99.48 115.57 99.79 115.57C100.1 115.57 100.31 115.22 100.31 114.42Z" fill="black"/>
<path d="M100.98 115.59C101.84 114.84 102.23 114.3 102.23 113.83C102.23 113.52 102.07 113.29 101.73 113.29C101.51 113.29 101.31 113.43 101.16 113.61L100.96 113.42C101.18 113.18 101.42 113.02 101.76 113.02C102.25 113.02 102.55 113.34 102.55 113.83C102.55 114.37 102.12 114.93 101.48 115.54C101.62 115.53 101.79 115.51 101.93 115.51H102.69V115.8H100.97V115.6L100.98 115.59Z" fill="black"/>
<path d="M62.64 50.81C62.27 50.68 61.98 50.4 61.84 50.05C61.69 50.43 61.39 50.74 61 50.88L60.84 50.64C61.34 50.46 61.68 50.02 61.68 49.55V49.38H60.94V49.13H62.72V49.38H61.99V49.54C61.99 49.98 62.32 50.39 62.8 50.56L62.65 50.8L62.64 50.81ZM63.67 51.88V52.13H61.44V51.1H61.75V51.88H63.67ZM63.27 49.79V48.87H63.58V51.32H63.27V50.04H62.6V49.79H63.27Z" fill="black"/>
<path d="M67.26 50.42V50.67H64.26V50.42H65.49V49.78H65.8V50.42H67.27H67.26ZM66.91 51.59C66.91 51.97 66.46 52.2 65.74 52.2C65.02 52.2 64.58 51.97 64.58 51.59C64.58 51.21 65.03 50.98 65.74 50.98C66.45 50.98 66.91 51.21 66.91 51.59ZM66.58 49.28H64.61V49.03H66.88V49.31C66.88 49.58 66.88 49.85 66.79 50.19L66.49 50.16C66.58 49.82 66.58 49.57 66.58 49.31V49.27V49.28ZM66.6 51.59C66.6 51.35 66.26 51.21 65.74 51.21C65.22 51.21 64.88 51.35 64.88 51.59C64.88 51.83 65.21 51.96 65.74 51.96C66.27 51.96 66.6 51.82 66.6 51.59Z" fill="black"/>
<path d="M69.55 50.62C69.17 50.49 68.86 50.2 68.71 49.84C68.56 50.23 68.26 50.54 67.86 50.68L67.7 50.44C68.21 50.26 68.55 49.81 68.55 49.32V49H68.86V49.32C68.86 49.79 69.21 50.21 69.71 50.37L69.56 50.61L69.55 50.62ZM68.26 50.96H70.42V52.16H68.26V50.96ZM68.56 51.92H70.12V51.21H68.56V51.92ZM70.42 48.87V50.77H70.11V48.87H70.42Z" fill="black"/>
<path d="M72.28 51.29C72.58 51.28 72.89 51.25 73.18 51.21L73.2 51.44C72.49 51.57 71.7 51.57 71.12 51.57L71.08 51.31C71.35 51.31 71.66 51.31 71.98 51.3V50.94C71.6 50.89 71.34 50.66 71.34 50.33C71.34 49.95 71.66 49.71 72.13 49.71C72.6 49.71 72.92 49.95 72.92 50.33C72.92 50.66 72.67 50.89 72.28 50.94V51.29ZM73.12 49.51H71.12V49.27H71.97V48.87H72.28V49.27H73.12V49.51ZM72.13 50.7C72.43 50.7 72.63 50.55 72.63 50.32C72.63 50.09 72.43 49.94 72.13 49.94C71.83 49.94 71.63 50.09 71.63 50.32C71.63 50.55 71.83 50.7 72.13 50.7ZM74.2 50.53H73.68V52.19H73.37V48.85H73.68V50.27H74.2V50.53Z" fill="black"/>
<path d="M77.56 50.5099V50.7599H74.54V50.5099H75.9V50.1199H74.92V49.0099H77.19V49.2599H75.23V49.88H77.21V50.13H76.2V50.52H77.56V50.5099ZM77.19 51.6C77.19 51.99 76.76 52.2 76.05 52.2C75.34 52.2 74.9 51.98 74.9 51.6C74.9 51.22 75.33 50.9999 76.05 50.9999C76.77 50.9999 77.19 51.22 77.19 51.6ZM76.88 51.6C76.88 51.36 76.57 51.2299 76.05 51.2299C75.53 51.2299 75.21 51.36 75.21 51.6C75.21 51.84 75.52 51.9599 76.05 51.9599C76.58 51.9599 76.88 51.83 76.88 51.6Z" fill="black"/>
<path d="M79.69 50.29C79.69 51 79.34 51.46 78.85 51.46C78.36 51.46 78.01 51.01 78.01 50.29C78.01 49.57 78.36 49.12 78.85 49.12C79.34 49.12 79.69 49.58 79.69 50.29ZM79.4 50.29C79.4 49.75 79.17 49.4 78.85 49.4C78.53 49.4 78.3 49.75 78.3 50.29C78.3 50.83 78.53 51.18 78.85 51.18C79.17 51.18 79.4 50.83 79.4 50.29ZM81.08 50.46H80.53V52.21H80.22V48.87H80.53V50.2H81.08V50.46Z" fill="black"/>
<path d="M81.89 51.14C82.44 51.14 82.93 51.11 83.51 51.02L83.54 51.27C82.94 51.37 82.43 51.39 81.86 51.39H81.58V50.11H82.81V49.41H81.57V49.16H83.12V50.36H81.89V51.14ZM84.13 48.85V52.2H83.82V48.85H84.13Z" fill="black"/>
<path d="M84.8 50.55C84.8 49.6 85.13 49.14 85.65 49.14C86.17 49.14 86.5 49.6 86.5 50.55C86.5 51.5 86.17 51.97 85.65 51.97C85.13 51.97 84.8 51.5 84.8 50.55ZM86.17 50.55C86.17 49.75 85.96 49.42 85.65 49.42C85.34 49.42 85.13 49.75 85.13 50.55C85.13 51.35 85.34 51.7 85.65 51.7C85.96 51.7 86.17 51.35 86.17 50.55Z" fill="black"/>
<path d="M86.85 51.73C87.71 50.98 88.1 50.44 88.1 49.97C88.1 49.66 87.94 49.43 87.6 49.43C87.38 49.43 87.18 49.57 87.03 49.75L86.83 49.56C87.05 49.32 87.29 49.16 87.63 49.16C88.12 49.16 88.42 49.48 88.42 49.97C88.42 50.51 87.99 51.07 87.35 51.68C87.49 51.67 87.66 51.65 87.8 51.65H88.56V51.94H86.84V51.74L86.85 51.73Z" fill="black"/>
<path d="M62.64 17.7501C62.27 17.6201 61.98 17.3401 61.84 16.9901C61.69 17.3701 61.39 17.6801 61 17.8201L60.84 17.5801C61.34 17.4001 61.68 16.9601 61.68 16.4901V16.3201H60.94V16.0701H62.72V16.3201H61.99V16.4801C61.99 16.9201 62.32 17.3301 62.8 17.5001L62.65 17.7401L62.64 17.7501ZM63.67 18.8201V19.0701H61.44V18.0401H61.75V18.8201H63.67ZM63.27 16.7301V15.8101H63.58V18.2601H63.27V16.9801H62.6V16.7301H63.27Z" fill="black"/>
<path d="M67.26 17.3601V17.6101H64.26V17.3601H65.49V16.7201H65.8V17.3601H67.27H67.26ZM66.91 18.5301C66.91 18.9101 66.46 19.1401 65.74 19.1401C65.02 19.1401 64.58 18.9101 64.58 18.5301C64.58 18.1501 65.03 17.9201 65.74 17.9201C66.45 17.9201 66.91 18.1501 66.91 18.5301ZM66.58 16.2201H64.61V15.9701H66.88V16.2501C66.88 16.5201 66.88 16.7901 66.79 17.1301L66.49 17.1001C66.58 16.7601 66.58 16.5101 66.58 16.2501V16.2101V16.2201ZM66.6 18.5301C66.6 18.2901 66.26 18.1501 65.74 18.1501C65.22 18.1501 64.88 18.2901 64.88 18.5301C64.88 18.7701 65.21 18.9001 65.74 18.9001C66.27 18.9001 66.6 18.7601 66.6 18.5301Z" fill="black"/>
<path d="M69.55 17.55C69.17 17.42 68.86 17.1301 68.71 16.7701C68.56 17.1601 68.26 17.4701 67.86 17.6101L67.7 17.37C68.21 17.19 68.55 16.74 68.55 16.25V15.93H68.86V16.25C68.86 16.72 69.21 17.14 69.71 17.3L69.56 17.54L69.55 17.55ZM68.26 17.89H70.42V19.09H68.26V17.89ZM68.56 18.85H70.12V18.14H68.56V18.85ZM70.42 15.8V17.7001H70.11V15.8H70.42Z" fill="black"/>
<path d="M72.28 18.23C72.58 18.22 72.89 18.19 73.18 18.15L73.2 18.38C72.49 18.51 71.7 18.51 71.12 18.51L71.08 18.25C71.35 18.25 71.66 18.25 71.98 18.24V17.88C71.6 17.83 71.34 17.6 71.34 17.27C71.34 16.89 71.66 16.65 72.13 16.65C72.6 16.65 72.92 16.89 72.92 17.27C72.92 17.6 72.67 17.83 72.28 17.88V18.23ZM73.12 16.45H71.12V16.21H71.97V15.81H72.28V16.21H73.12V16.45ZM72.13 17.64C72.43 17.64 72.63 17.49 72.63 17.26C72.63 17.03 72.43 16.88 72.13 16.88C71.83 16.88 71.63 17.03 71.63 17.26C71.63 17.49 71.83 17.64 72.13 17.64ZM74.2 17.47H73.68V19.13H73.37V15.79H73.68V17.21H74.2V17.47Z" fill="black"/>
<path d="M77.56 17.4501V17.7001H74.54V17.4501H75.9V17.0601H74.92V15.9501H77.19V16.2001H75.23V16.8201H77.21V17.0701H76.2V17.4601H77.56V17.4501ZM77.19 18.5401C77.19 18.9301 76.76 19.1401 76.05 19.1401C75.34 19.1401 74.9 18.9201 74.9 18.5401C74.9 18.1601 75.33 17.9401 76.05 17.9401C76.77 17.9401 77.19 18.1601 77.19 18.5401ZM76.88 18.5401C76.88 18.3001 76.57 18.1701 76.05 18.1701C75.53 18.1701 75.21 18.3001 75.21 18.5401C75.21 18.7801 75.52 18.9001 76.05 18.9001C76.58 18.9001 76.88 18.7701 76.88 18.5401Z" fill="black"/>
<path d="M79.69 17.22C79.69 17.93 79.34 18.39 78.85 18.39C78.36 18.39 78.01 17.94 78.01 17.22C78.01 16.5 78.36 16.05 78.85 16.05C79.34 16.05 79.69 16.51 79.69 17.22ZM79.4 17.22C79.4 16.68 79.17 16.33 78.85 16.33C78.53 16.33 78.3 16.68 78.3 17.22C78.3 17.76 78.53 18.1101 78.85 18.1101C79.17 18.1101 79.4 17.76 79.4 17.22ZM81.08 17.39H80.53V19.14H80.22V15.8H80.53V17.13H81.08V17.39Z" fill="black"/>
<path d="M81.89 18.08C82.44 18.08 82.93 18.05 83.51 17.96L83.54 18.21C82.94 18.31 82.43 18.33 81.86 18.33H81.58V17.05H82.81V16.35H81.57V16.1H83.12V17.3H81.89V18.08ZM84.13 15.79V19.14H83.82V15.79H84.13Z" fill="black"/>
<path d="M84.8 17.4901C84.8 16.5401 85.13 16.0801 85.65 16.0801C86.17 16.0801 86.5 16.5401 86.5 17.4901C86.5 18.4401 86.17 18.9101 85.65 18.9101C85.13 18.9101 84.8 18.4401 84.8 17.4901ZM86.17 17.4901C86.17 16.6901 85.96 16.3601 85.65 16.3601C85.34 16.3601 85.13 16.6901 85.13 17.4901C85.13 18.2901 85.34 18.6401 85.65 18.6401C85.96 18.6401 86.17 18.2901 86.17 17.4901Z" fill="black"/>
<path d="M87.01 18.58H87.62V16.54H87.14V16.32C87.38 16.28 87.56 16.21 87.71 16.13H87.97V18.58H88.52V18.86H87.02V18.58H87.01Z" fill="black"/>
<path d="M129.7 113.08C129.7 114.05 129.36 114.93 128.19 115.53L128.02 115.29C128.63 114.99 129 114.61 129.2 114.17L128.09 114.27L128.03 114.01L129.29 113.93C129.35 113.74 129.38 113.55 129.4 113.34H128.2V113.09H129.7V113.08ZM130.76 112.74V116.08H130.45V114.33H129.68V114.08H130.45V112.74H130.76Z" fill="black"/>
<path d="M134.47 114.91H133.7V116.09H133.39V114.91H132.51V116.09H132.2V114.91H131.43V114.66H134.46V114.91H134.47ZM134.08 114.21H131.82V112.91H134.08V114.21ZM133.78 113.15H132.12V113.96H133.78V113.15Z" fill="black"/>
<path d="M135.38 114.95C135.88 114.95 136.4 114.91 136.96 114.79L136.99 115.05C136.41 115.17 135.88 115.21 135.35 115.21H135.07V113.06H135.38V114.95ZM137.6 112.73V116.07H137.29V112.73H137.6Z" fill="black"/>
<path d="M138.81 115.02C139.42 115.02 139.85 115 140.35 114.91L140.38 115.16C139.86 115.25 139.41 115.27 138.78 115.27H138.52V113.04H140.14V113.29H138.82V113.98H140.02V114.23H138.82V115.03L138.81 115.02ZM141.04 112.73V116.07H140.73V112.73H141.04Z" fill="black"/>
<path d="M143.2 114.67C142.9 114.53 142.68 114.28 142.57 113.98C142.45 114.31 142.22 114.6 141.91 114.75L141.74 114.52C142.17 114.31 142.43 113.85 142.43 113.46V112.97H142.72V113.46C142.72 113.85 142.96 114.25 143.38 114.44L143.21 114.68L143.2 114.67ZM144.64 115.75V116H142.37V114.93H142.68V115.75H144.65H144.64ZM143.6 113.83H143.08V113.58H143.6V112.81H143.89V115.15H143.6V113.83ZM144.55 115.25H144.26V112.74H144.55V115.25Z" fill="black"/>
<path d="M145.61 115.02C146.21 115.02 146.6 115 147.05 114.92L147.08 115.17C146.6 115.25 146.19 115.27 145.55 115.27H145.29V113.03H146.83V113.28H145.59V113.97H146.68V114.22H145.59V115.02H145.61ZM147.9 112.73V116.08H147.59V114.25H146.9V114H147.59V112.74H147.9V112.73Z" fill="black"/>
</svg>
