<svg width="193" height="108" viewBox="0 0 193 108" fill="none" xmlns="http://www.w3.org/2000/svg">
<path d="M32.66 106.84V52.38V106.84ZM32.66 106.84H192.6V1H32.66V22.73H1V106.84" stroke="black" stroke-width="0.5" stroke-miterlimit="10"/>
<path d="M9.98001 74.89H23.84" stroke="black" stroke-width="0.5" stroke-miterlimit="10"/>
<path d="M9.98001 81.53H23.84" stroke="black" stroke-width="0.5" stroke-miterlimit="10"/>
<path d="M16.91 67.27V88.71" stroke="black" stroke-width="0.5" stroke-miterlimit="10"/>
<path d="M111.26 54.6C110.88 54.46 110.57 54.18 110.43 53.81C110.28 54.2 109.98 54.51 109.59 54.66L109.43 54.42C109.93 54.24 110.27 53.77 110.27 53.27V52.94H110.58V53.27C110.58 53.75 110.92 54.19 111.42 54.36L111.27 54.6H111.26ZM109.9 54.97H112.13V56.13H111.82V55.21H109.89V54.96L109.9 54.97ZM112.13 52.79V54.8H111.82V52.79H112.13Z" fill="black"/>
<path d="M114.8 54.39C114.34 54.48 113.94 54.51 113.24 54.51H112.98V53.05H114.45V53.3H113.28V54.27C113.94 54.27 114.33 54.25 114.77 54.15L114.8 54.4V54.39ZM115.46 55.48C115.46 55.88 115.04 56.12 114.36 56.12C113.68 56.12 113.26 55.88 113.26 55.48C113.26 55.08 113.68 54.84 114.36 54.84C115.04 54.84 115.46 55.08 115.46 55.48ZM115.16 55.48C115.16 55.23 114.85 55.08 114.36 55.08C113.87 55.08 113.56 55.23 113.56 55.48C113.56 55.73 113.87 55.87 114.36 55.87C114.85 55.87 115.16 55.72 115.16 55.48ZM115.92 53.65V53.9H115.43V54.77H115.12V52.78H115.43V53.65H115.92Z" fill="black"/>
</svg>
