<svg width="194" height="105" viewBox="0 0 194 105" fill="none" xmlns="http://www.w3.org/2000/svg">
<path d="M192.91 1H169.01V94.63H192.91V1Z" stroke="black" stroke-width="0.5" stroke-miterlimit="10"/>
<path d="M114.95 16.48H79.91V42.55H114.95V16.48Z" stroke="black" stroke-width="0.5" stroke-miterlimit="10"/>
<path d="M132.47 16.48H114.95V30.47H132.47V16.48Z" stroke="black" stroke-width="0.5" stroke-miterlimit="10"/>
<path d="M92.54 69.99V94.63H75.02V69.99" stroke="black" stroke-width="0.5" stroke-miterlimit="10"/>
<path d="M118.03 69.99H92.54V94.62H118.03V69.99Z" stroke="black" stroke-width="0.5" stroke-miterlimit="10"/>
<path d="M143.52 69.99H118.03V94.62H143.52V69.99Z" stroke="black" stroke-width="0.5" stroke-miterlimit="10"/>
<path d="M169.01 69.99H143.52V94.62H169.01V69.99Z" stroke="black" stroke-width="0.5" stroke-miterlimit="10"/>
<path d="M132.47 30.5H114.95V42.55H132.47V30.5Z" stroke="black" stroke-width="0.5" stroke-miterlimit="10"/>
<path d="M114.95 1V16.48H79.91V42.56H54.11H41.2L30 49.48H1V104.36H30V74.68L41.2 68.57L54.11 68.59V94.63H79.91H114.95H169.01V1H114.95Z" stroke="black" stroke-width="0.5" stroke-miterlimit="10"/>
<path d="M114.95 16.48H169.01" stroke="black" stroke-width="0.5" stroke-miterlimit="10"/>
<path d="M30 74.68H13.22V104.36" stroke="black" stroke-width="0.5" stroke-miterlimit="10"/>
<path d="M59.44 76.21H69.73" stroke="black" stroke-width="0.5" stroke-miterlimit="10"/>
<path d="M59.44 81.64H69.73" stroke="black" stroke-width="0.5" stroke-miterlimit="10"/>
<path d="M154.49 34.82H164.78" stroke="black" stroke-width="0.5" stroke-miterlimit="10"/>
<path d="M154.49 40.25H164.78" stroke="black" stroke-width="0.5" stroke-miterlimit="10"/>
<path d="M64.53 70.62V87.72" stroke="black" stroke-width="0.5" stroke-miterlimit="10"/>
<path d="M159.64 30.57V44.66" stroke="black" stroke-width="0.5" stroke-miterlimit="10"/>
<path d="M150.27 16.48V44.66H169.01" stroke="black" stroke-width="0.5" stroke-miterlimit="10"/>
<path d="M102.68 80.93L102.85 80.71C103.01 80.88 103.22 81.02 103.53 81.02C103.84 81.02 104.08 80.83 104.08 80.51C104.08 80.19 103.86 79.96 103.23 79.96V79.7C103.79 79.7 103.99 79.47 103.99 79.18C103.99 78.92 103.81 78.75 103.53 78.74C103.31 78.74 103.12 78.86 102.96 79.01L102.78 78.79C102.98 78.6 103.23 78.46 103.54 78.46C104 78.46 104.33 78.71 104.33 79.15C104.33 79.48 104.13 79.7 103.84 79.81V79.83C104.16 79.9 104.42 80.15 104.42 80.52C104.42 81.01 104.03 81.3 103.54 81.3C103.11 81.3 102.84 81.12 102.66 80.93H102.68Z" fill="black"/>
<path d="M104.81 80.08H105.76V80.34H104.81V80.08Z" fill="black"/>
<path d="M106.04 80.94L106.21 80.72C106.37 80.88 106.56 81.02 106.88 81.02C107.2 81.02 107.46 80.77 107.46 80.38C107.46 79.99 107.24 79.76 106.89 79.76C106.71 79.76 106.59 79.82 106.44 79.92L106.26 79.81L106.35 78.53H107.68V78.82H106.65L106.58 79.61C106.7 79.54 106.82 79.5 106.99 79.5C107.44 79.5 107.81 79.77 107.81 80.37C107.81 80.97 107.38 81.31 106.92 81.31C106.5 81.31 106.23 81.13 106.05 80.95L106.04 80.94Z" fill="black"/>
<path d="M105.08 85.47V85.72H102.06V85.47H102.8V84.36H103.1V85.47H103.62V84.36H103.92V85.47H105.07H105.08ZM104.42 83.43H102.37V83.18H104.72V83.55C104.72 83.97 104.72 84.41 104.6 85.04L104.3 85C104.42 84.4 104.42 83.96 104.42 83.55V83.43Z" fill="black"/>
<path d="M107.35 84.48C106.97 84.35 106.66 84.07 106.51 83.71C106.36 84.09 106.06 84.4 105.66 84.54L105.5 84.3C106 84.13 106.35 83.68 106.35 83.19V82.94H106.66V83.19C106.66 83.65 107.01 84.07 107.5 84.23L107.35 84.47V84.48ZM108.33 85.91V86.15H106.06V85.32H107.91V84.99H106.05V84.75H108.21V85.55H106.36V85.91H108.33ZM108.21 84.58H107.9V82.85H108.21V84.58Z" fill="black"/>
<path d="M128.17 80.93L128.34 80.71C128.5 80.88 128.71 81.02 129.02 81.02C129.33 81.02 129.57 80.83 129.57 80.51C129.57 80.19 129.35 79.96 128.72 79.96V79.7C129.28 79.7 129.48 79.47 129.48 79.18C129.48 78.92 129.3 78.75 129.02 78.74C128.8 78.74 128.61 78.86 128.45 79.01L128.27 78.79C128.47 78.6 128.72 78.46 129.03 78.46C129.49 78.46 129.82 78.71 129.82 79.15C129.82 79.48 129.62 79.7 129.33 79.81V79.83C129.65 79.9 129.91 80.15 129.91 80.52C129.91 81.01 129.52 81.3 129.03 81.3C128.6 81.3 128.33 81.12 128.15 80.93H128.17Z" fill="black"/>
<path d="M130.3 80.08H131.25V80.34H130.3V80.08Z" fill="black"/>
<path d="M133.09 78.97C132.98 78.84 132.82 78.76 132.65 78.76C132.28 78.76 131.96 79.05 131.95 79.9C132.12 79.69 132.36 79.57 132.57 79.57C133.03 79.57 133.33 79.86 133.33 80.43C133.33 80.96 132.97 81.32 132.55 81.32C132.03 81.32 131.64 80.87 131.64 79.97C131.64 78.9 132.12 78.49 132.65 78.49C132.93 78.49 133.14 78.61 133.29 78.77L133.1 78.98L133.09 78.97ZM133 80.42C133 80.05 132.84 79.82 132.51 79.82C132.34 79.82 132.13 79.92 131.95 80.17C131.99 80.74 132.2 81.05 132.54 81.05C132.8 81.05 133 80.8 133 80.43V80.42Z" fill="black"/>
<path d="M130.57 85.47V85.72H127.55V85.47H128.29V84.36H128.59V85.47H129.11V84.36H129.41V85.47H130.56H130.57ZM129.91 83.43H127.86V83.18H130.21V83.55C130.21 83.97 130.21 84.41 130.09 85.04L129.79 85C129.91 84.4 129.91 83.96 129.91 83.55V83.43Z" fill="black"/>
<path d="M132.84 84.48C132.46 84.35 132.15 84.07 132 83.71C131.85 84.09 131.55 84.4 131.15 84.54L130.99 84.3C131.49 84.13 131.84 83.68 131.84 83.19V82.94H132.15V83.19C132.15 83.65 132.5 84.07 132.99 84.23L132.84 84.47V84.48ZM133.82 85.91V86.15H131.55V85.32H133.4V84.99H131.54V84.75H133.7V85.55H131.85V85.91H133.82ZM133.7 84.58H133.39V82.85H133.7V84.58Z" fill="black"/>
<path d="M153.66 80.93L153.83 80.71C153.99 80.88 154.2 81.02 154.51 81.02C154.82 81.02 155.06 80.83 155.06 80.51C155.06 80.19 154.84 79.96 154.21 79.96V79.7C154.77 79.7 154.97 79.47 154.97 79.18C154.97 78.92 154.79 78.75 154.51 78.74C154.29 78.74 154.1 78.86 153.94 79.01L153.76 78.79C153.96 78.6 154.21 78.46 154.52 78.46C154.98 78.46 155.31 78.71 155.31 79.15C155.31 79.48 155.11 79.7 154.82 79.81V79.83C155.14 79.9 155.4 80.15 155.4 80.52C155.4 81.01 155.01 81.3 154.52 81.3C154.09 81.3 153.82 81.12 153.64 80.93H153.66Z" fill="black"/>
<path d="M155.79 80.08H156.74V80.34H155.79V80.08Z" fill="black"/>
<path d="M158.86 80.5H158.5V81.25H158.18V80.5H156.99V80.28L158.13 78.53H158.51V80.24H158.87V80.51L158.86 80.5ZM158.17 80.23V79.39C158.17 79.26 158.18 79.04 158.19 78.89H158.17C158.1 79.02 158.03 79.16 157.95 79.29L157.33 80.22H158.16L158.17 80.23Z" fill="black"/>
<path d="M156.06 85.47V85.72H153.04V85.47H153.78V84.36H154.08V85.47H154.6V84.36H154.9V85.47H156.05H156.06ZM155.4 83.43H153.35V83.18H155.7V83.55C155.7 83.97 155.7 84.41 155.58 85.04L155.28 85C155.4 84.4 155.4 83.96 155.4 83.55V83.43Z" fill="black"/>
<path d="M158.33 84.48C157.95 84.35 157.64 84.07 157.49 83.71C157.34 84.09 157.04 84.4 156.64 84.54L156.48 84.3C156.98 84.13 157.33 83.68 157.33 83.19V82.94H157.64V83.19C157.64 83.65 157.99 84.07 158.48 84.23L158.33 84.47V84.48ZM159.31 85.91V86.15H157.04V85.32H158.89V84.99H157.03V84.75H159.19V85.55H157.34V85.91H159.31ZM159.19 84.58H158.88V82.85H159.19V84.58Z" fill="black"/>
<path d="M119.94 24.25C120.24 24.24 120.55 24.21 120.84 24.17L120.86 24.4C120.15 24.53 119.36 24.53 118.78 24.53L118.74 24.27C119.01 24.27 119.32 24.27 119.64 24.26V23.9C119.26 23.85 119 23.62 119 23.29C119 22.91 119.32 22.67 119.79 22.67C120.26 22.67 120.58 22.91 120.58 23.29C120.58 23.62 120.33 23.85 119.94 23.9V24.25ZM120.78 22.47H118.78V22.23H119.63V21.83H119.94V22.23H120.78V22.47ZM119.79 23.66C120.09 23.66 120.29 23.51 120.29 23.28C120.29 23.05 120.09 22.9 119.79 22.9C119.49 22.9 119.29 23.05 119.29 23.28C119.29 23.51 119.49 23.66 119.79 23.66ZM121.86 23.49H121.34V25.15H121.03V21.81H121.34V23.23H121.86V23.49Z" fill="black"/>
<path d="M123.99 23.68C123.61 23.56 123.32 23.29 123.18 22.96C123.04 23.34 122.74 23.64 122.34 23.78L122.18 23.54C122.68 23.37 123.02 22.93 123.02 22.45V22.32H122.27V22.07H124.06V22.32H123.32V22.45C123.32 22.89 123.64 23.28 124.13 23.44L123.98 23.68H123.99ZM124.83 24.54C124.83 24.93 124.41 25.16 123.73 25.16C123.05 25.16 122.63 24.93 122.63 24.54C122.63 24.15 123.05 23.93 123.73 23.93C124.41 23.93 124.83 24.16 124.83 24.54ZM124.52 24.54C124.52 24.31 124.22 24.17 123.73 24.17C123.24 24.17 122.93 24.31 122.93 24.54C122.93 24.77 123.23 24.92 123.73 24.92C124.23 24.92 124.52 24.78 124.52 24.54ZM125.28 22.67V22.93H124.78V23.85H124.47V21.84H124.78V22.68H125.28V22.67Z" fill="black"/>
<path d="M127.49 23.46C127.11 23.33 126.8 23.05 126.65 22.69C126.5 23.07 126.2 23.38 125.8 23.52L125.64 23.28C126.14 23.11 126.49 22.66 126.49 22.17V21.92H126.8V22.17C126.8 22.63 127.15 23.05 127.65 23.21L127.5 23.45L127.49 23.46ZM128.47 24.89V25.13H126.2V24.3H128.05V23.97H126.19V23.73H128.35V24.53H126.5V24.89H128.47ZM128.35 23.56H128.04V21.83H128.35V23.56Z" fill="black"/>
<path d="M95.51 26.45V26.7H92.49V26.45H93.67V25.58H93.98V26.45H95.52H95.51ZM94.84 24.94C94.84 24.77 94.84 24.61 94.84 24.45V24.38H92.84V24.13H95.14V24.45C95.14 24.86 95.14 25.32 95 26L94.7 25.96C94.76 25.66 94.8 25.4 94.82 25.17L92.8 25.28L92.76 25.02L94.84 24.93V24.94Z" fill="black"/>
<path d="M98.12 25.69C97.79 25.74 97.46 25.77 97.13 25.79V27.04H96.82V25.8C96.5 25.81 96.2 25.81 95.94 25.81L95.9 25.55C96.53 25.55 97.37 25.55 98.1 25.44L98.12 25.67V25.69ZM96.15 24.63C96.15 24.24 96.49 23.97 96.99 23.97C97.49 23.97 97.83 24.23 97.83 24.63C97.83 25.03 97.49 25.29 96.99 25.29C96.49 25.29 96.15 25.03 96.15 24.63ZM96.44 24.63C96.44 24.89 96.67 25.05 96.99 25.05C97.31 25.05 97.54 24.88 97.54 24.63C97.54 24.38 97.31 24.21 96.99 24.21C96.67 24.21 96.44 24.38 96.44 24.63ZM98.66 23.81V27.15H98.35V26.33H97.59V26.09H98.35V23.81H98.66Z" fill="black"/>
<path d="M101.1 24.04C101.1 24.9 100.62 25.52 99.55 25.83L99.43 25.59C99.99 25.43 100.36 25.18 100.57 24.88L99.46 24.96L99.41 24.71L100.69 24.65C100.73 24.53 100.76 24.41 100.78 24.28H99.58V24.03H101.1V24.04ZM102.09 26.51C102.09 26.92 101.66 27.15 100.97 27.15C100.28 27.15 99.85 26.92 99.85 26.51C99.85 26.1 100.28 25.87 100.97 25.87C101.66 25.87 102.09 26.1 102.09 26.51ZM101.78 26.51C101.78 26.26 101.47 26.11 100.97 26.11C100.47 26.11 100.15 26.26 100.15 26.51C100.15 26.76 100.46 26.91 100.97 26.91C101.48 26.91 101.78 26.76 101.78 26.51ZM102.07 25.82H101.76V23.81H102.07V25.82Z" fill="black"/>
<path d="M93.8 31.11V31.36H90.77V31.11H93.8ZM93.51 30.4C93 30.28 92.48 29.93 92.27 29.44C92.06 29.93 91.54 30.28 91.03 30.4L90.89 30.15C91.47 30.03 92.1 29.53 92.1 28.96V28.7H92.42V28.96C92.42 29.53 93.05 30.04 93.64 30.15L93.5 30.4H93.51Z" fill="black"/>
<path d="M95.48 30.69C95.6 30.68 95.72 30.67 95.83 30.65L95.85 30.87C95.33 30.97 94.63 30.98 94.2 30.98L94.17 30.73C94.27 30.73 94.38 30.73 94.51 30.73V29.14H94.23V28.89H95.76V29.14H95.48V30.69ZM94.78 30.72C94.92 30.72 95.06 30.72 95.2 30.71V29.14H94.78V30.72ZM96.11 28.55H96.4V31.63H96.11V30.01H95.66V29.74H96.11V28.55ZM97.05 28.47V31.81H96.76V28.47H97.05Z" fill="black"/>
<path d="M99.45 29.89C99.45 30.6 99.1 31.06 98.6 31.06C98.1 31.06 97.75 30.61 97.75 29.89C97.75 29.17 98.1 28.72 98.6 28.72C99.1 28.72 99.45 29.18 99.45 29.89ZM98.04 29.89C98.04 30.43 98.27 30.78 98.6 30.78C98.93 30.78 99.15 30.43 99.15 29.89C99.15 29.35 98.92 29 98.6 29C98.28 29 98.04 29.35 98.04 29.89ZM100.36 28.47V31.82H100.05V28.47H100.36Z" fill="black"/>
<path d="M104.08 31.11V31.36H101.05V31.11H104.08ZM103.79 30.4C103.28 30.28 102.76 29.93 102.55 29.44C102.34 29.93 101.82 30.28 101.31 30.4L101.17 30.15C101.75 30.03 102.38 29.53 102.38 28.96V28.7H102.7V28.96C102.7 29.53 103.33 30.04 103.92 30.15L103.78 30.4H103.79Z" fill="black"/>
<path d="M119.46 8.47005C119.46 9.18005 119.11 9.64005 118.62 9.64005C118.13 9.64005 117.78 9.19005 117.78 8.47005C117.78 7.75005 118.13 7.30005 118.62 7.30005C119.11 7.30005 119.46 7.76005 119.46 8.47005ZM119.17 8.47005C119.17 7.93005 118.94 7.58005 118.62 7.58005C118.3 7.58005 118.07 7.93005 118.07 8.47005C118.07 9.01005 118.3 9.36005 118.62 9.36005C118.94 9.36005 119.17 9.01005 119.17 8.47005ZM120.85 8.64005H120.3V10.39H119.99V7.05005H120.3V8.38005H120.85V8.64005Z" fill="black"/>
<path d="M124.18 9.71009V9.96009H121.15V9.71009H124.18ZM123.83 9.10009H121.54V7.34009H123.8V7.59009H121.85V8.09009H123.73V8.33009H121.85V8.86009H123.83V9.11009V9.10009Z" fill="black"/>
<path d="M127.61 9.69003V9.94003H124.58V9.69003H127.61ZM127.32 8.98003C126.81 8.86003 126.29 8.51003 126.08 8.02003C125.87 8.51003 125.35 8.86003 124.84 8.98003L124.7 8.73003C125.28 8.61003 125.91 8.11003 125.91 7.54003V7.28003H126.23V7.54003C126.23 8.11003 126.86 8.62003 127.45 8.73003L127.31 8.98003H127.32Z" fill="black"/>
<path d="M131.03 9.31007H130.24V10.3801H129.93V9.31007H129.09V10.3801H128.78V9.31007H127.99V9.06007H131.02V9.31007H131.03ZM130.69 8.72007H128.4V7.20007H130.65V7.45007H128.71V7.83007H130.58V8.07007H128.71V8.48007H130.69V8.73007V8.72007Z" fill="black"/>
<path d="M131.95 9.30004C132.59 9.30004 133.01 9.28004 133.51 9.19004L133.54 9.45004C133.03 9.54004 132.59 9.57004 131.92 9.57004H131.65V7.37004H133.23V7.63004H131.95V9.31004V9.30004ZM134.17 7.04004V10.39H133.86V7.04004H134.17Z" fill="black"/>
<path d="M137.89 9.71001V9.96001H134.86V9.71001H136.22V9.01001C135.6 8.97001 135.16 8.63001 135.16 8.14001C135.16 7.61001 135.67 7.26001 136.38 7.26001C137.09 7.26001 137.59 7.60001 137.59 8.14001C137.59 8.63001 137.15 8.96001 136.53 9.01001V9.71001H137.9H137.89ZM136.37 8.78001C136.9 8.78001 137.29 8.53001 137.29 8.15001C137.29 7.77001 136.9 7.52001 136.37 7.52001C135.84 7.52001 135.45 7.77001 135.45 8.15001C135.45 8.53001 135.84 8.78001 136.37 8.78001Z" fill="black"/>
<path d="M147.83 7.40004C147.83 8.35004 147.39 9.21004 146.31 9.75004L146.14 9.51004C146.99 9.08004 147.45 8.44004 147.52 7.65004H146.29V7.40004H147.82H147.83ZM149.23 8.65004H148.69V10.38H148.38V7.04004H148.69V8.40004H149.23V8.65004Z" fill="black"/>
<path d="M150.67 7.94005C150.67 8.53005 151.05 9.14005 151.52 9.37005L151.33 9.61005C150.98 9.42005 150.67 9.03005 150.52 8.57005C150.37 9.06005 150.07 9.47005 149.69 9.68005L149.51 9.43005C149.99 9.18005 150.37 8.54005 150.37 7.94005V7.34005H150.67V7.94005ZM152.67 8.66005H152.12V10.39H151.81V7.05005H152.12V8.40005H152.67V8.65005V8.66005Z" fill="black"/>
<path d="M154.85 8.68005C154.47 8.55005 154.16 8.27005 154.01 7.91005C153.86 8.29005 153.56 8.60005 153.16 8.74005L153 8.50005C153.5 8.33005 153.85 7.88005 153.85 7.39005V7.14005H154.16V7.39005C154.16 7.85005 154.51 8.27005 155.01 8.43005L154.86 8.67005L154.85 8.68005ZM155.83 10.1101V10.35H153.56V9.52005H155.41V9.19005H153.55V8.95005H155.71V9.75005H153.86V10.1101H155.83ZM155.71 8.78005H155.4V7.05005H155.71V8.78005Z" fill="black"/>
<path d="M159.42 8.57007V8.82007H156.4V8.57007H159.42ZM159.14 8.33007C158.62 8.25007 158.13 7.99007 157.91 7.62007C157.7 7.99007 157.2 8.25007 156.68 8.33007L156.57 8.08007C157.17 8.01007 157.75 7.65007 157.75 7.22007V7.07007H158.06V7.22007C158.06 7.63007 158.65 8.00007 159.24 8.08007L159.13 8.33007H159.14ZM158.73 9.04007H159.03V10.3301H156.78V9.04007H157.08V9.43007H158.72V9.04007H158.73ZM158.73 9.66007H157.09V10.0801H158.73V9.66007Z" fill="black"/>
<path d="M161.7 8.68005C161.32 8.55005 161.01 8.27005 160.86 7.91005C160.71 8.29005 160.41 8.60005 160.01 8.74005L159.85 8.50005C160.35 8.33005 160.7 7.88005 160.7 7.39005V7.14005H161.01V7.39005C161.01 7.85005 161.36 8.27005 161.85 8.43005L161.7 8.67005V8.68005ZM162.68 10.1101V10.35H160.41V9.52005H162.26V9.19005H160.4V8.95005H162.56V9.75005H160.71V10.1101H162.68ZM162.56 8.78005H162.25V7.05005H162.56V8.78005Z" fill="black"/>
<path d="M179.42 46.68C179.42 47.53 178.83 48.15 177.86 48.44L177.74 48.19C178.53 47.95 179.04 47.5 179.09 46.92H177.88V46.67H179.42V46.68ZM180.36 49.12C180.36 49.52 179.93 49.77 179.27 49.77C178.61 49.77 178.18 49.52 178.18 49.12C178.18 48.72 178.61 48.47 179.27 48.47C179.93 48.47 180.36 48.71 180.36 49.12ZM180.06 49.12C180.06 48.86 179.75 48.71 179.27 48.71C178.79 48.71 178.48 48.86 178.48 49.12C178.48 49.38 178.79 49.53 179.27 49.53C179.75 49.53 180.06 49.38 180.06 49.12ZM180.82 47.3V47.55H180.32V48.43H180.01V46.43H180.32V47.29H180.82V47.3Z" fill="black"/>
<path d="M183.13 48.04C182.67 48.13 182.27 48.16 181.57 48.16H181.31V46.7H182.78V46.95H181.61V47.92C182.27 47.92 182.66 47.9 183.1 47.8L183.13 48.05V48.04ZM183.79 49.13C183.79 49.53 183.37 49.77 182.69 49.77C182.01 49.77 181.59 49.53 181.59 49.13C181.59 48.73 182.01 48.49 182.69 48.49C183.37 48.49 183.79 48.73 183.79 49.13ZM183.49 49.13C183.49 48.88 183.18 48.73 182.69 48.73C182.2 48.73 181.89 48.88 181.89 49.13C181.89 49.38 182.2 49.52 182.69 49.52C183.18 49.52 183.49 49.37 183.49 49.13ZM184.25 47.3V47.55H183.76V48.42H183.45V46.43H183.76V47.3H184.25Z" fill="black"/>
<path d="M120.2 35.2C120.2 36.06 119.9 36.86 118.95 37.39L118.77 37.17C119.54 36.74 119.85 36.14 119.9 35.45H118.9V35.2H120.2ZM121.6 34.77V38.11H121.31V36.36H120.86V37.94H120.57V34.86H120.86V36.11H121.31V34.77H121.6Z" fill="black"/>
<path d="M125.22 36.8999H123.85V38.1099H123.54V36.8999H122.19V36.6499H125.21V36.8999H125.22ZM124.95 36.2899C124.43 36.1999 123.93 35.9099 123.71 35.5099C123.5 35.9199 123 36.1999 122.48 36.2899L122.36 36.0399C122.97 35.9499 123.56 35.5499 123.56 35.0699V34.8799H123.88V35.0699C123.88 35.5299 124.48 35.9499 125.08 36.0399L124.95 36.2899Z" fill="black"/>
<path d="M126.05 37.03C126.5 37.03 126.81 37.01 127.18 36.93L127.21 37.18C126.81 37.26 126.47 37.28 125.97 37.28H125.75V35.17H126.99V35.42H126.05V37.03ZM128.47 34.77V38.11H128.18V36.36H127.71V37.94H127.42V34.84H127.71V36.11H128.18V34.77H128.47Z" fill="black"/>
<path d="M75.02 42.55V69.99" stroke="#231F20" stroke-width="0.5" stroke-miterlimit="10" stroke-linecap="round"/>
<path d="M140.67 1V16.48" stroke="black" stroke-width="0.5" stroke-miterlimit="10"/>
</svg>
