<svg width="194" height="105" viewBox="0 0 194 105" fill="none" xmlns="http://www.w3.org/2000/svg">
<path d="M192.91 1H169.01V94.63H192.91V1Z" stroke="black" stroke-width="0.5" stroke-miterlimit="10"/>
<path d="M114.95 16.48H79.91V42.55H114.95V16.48Z" stroke="black" stroke-width="0.5" stroke-miterlimit="10"/>
<path d="M132.47 16.48H114.95V30.47H132.47V16.48Z" stroke="black" stroke-width="0.5" stroke-miterlimit="10"/>
<path d="M92.54 70H75.02V94.63H92.54V70Z" stroke="black" stroke-width="0.5" stroke-miterlimit="10"/>
<path d="M118.03 70H92.54V94.63H118.03V70Z" stroke="black" stroke-width="0.5" stroke-miterlimit="10"/>
<path d="M143.52 70H118.03V94.63H143.52V70Z" stroke="black" stroke-width="0.5" stroke-miterlimit="10"/>
<path d="M169.01 70H143.52V94.63H169.01V70Z" stroke="black" stroke-width="0.5" stroke-miterlimit="10"/>
<path d="M132.47 30.51H114.95V42.56H132.47V30.51Z" stroke="black" stroke-width="0.5" stroke-miterlimit="10"/>
<path d="M114.95 1V16.48H79.91V42.56H54.11H41.2L30 49.49H1V104.36H30V74.68L41.2 68.57L54.11 68.59V94.63H79.91H114.95H169.01V1H114.95Z" stroke="black" stroke-width="0.5" stroke-miterlimit="10"/>
<path d="M114.95 16.48H169.01" stroke="black" stroke-width="0.5" stroke-miterlimit="10"/>
<path d="M30 74.68H13.22V104.36" stroke="black" stroke-width="0.5" stroke-miterlimit="10"/>
<path d="M59.44 76.21H69.73" stroke="black" stroke-width="0.5" stroke-miterlimit="10"/>
<path d="M59.44 81.64H69.73" stroke="black" stroke-width="0.5" stroke-miterlimit="10"/>
<path d="M154.49 34.82H164.78" stroke="black" stroke-width="0.5" stroke-miterlimit="10"/>
<path d="M154.49 40.25H164.78" stroke="black" stroke-width="0.5" stroke-miterlimit="10"/>
<path d="M64.53 70.62V87.72" stroke="black" stroke-width="0.5" stroke-miterlimit="10"/>
<path d="M159.64 30.57V44.66" stroke="black" stroke-width="0.5" stroke-miterlimit="10"/>
<path d="M150.27 16.48V44.66H169.01" stroke="black" stroke-width="0.5" stroke-miterlimit="10"/>
<path d="M102.68 81.32L102.85 81.1C103.01 81.27 103.22 81.41 103.53 81.41C103.84 81.41 104.08 81.22 104.08 80.9C104.08 80.58 103.86 80.35 103.23 80.35V80.09C103.79 80.09 103.99 79.86 103.99 79.57C103.99 79.31 103.81 79.14 103.53 79.13C103.31 79.13 103.12 79.25 102.96 79.4L102.78 79.18C102.98 78.99 103.23 78.85 103.54 78.85C104 78.85 104.33 79.1 104.33 79.54C104.33 79.87 104.13 80.09 103.84 80.2V80.22C104.16 80.29 104.42 80.54 104.42 80.91C104.42 81.4 104.03 81.69 103.54 81.69C103.11 81.69 102.84 81.51 102.66 81.32H102.68Z" fill="black"/>
<path d="M104.81 80.47H105.76V80.73H104.81V80.47Z" fill="black"/>
<path d="M106.26 81.36H106.87V79.32H106.39V79.1C106.63 79.06 106.81 78.99 106.96 78.91H107.22V81.36H107.77V81.64H106.27V81.36H106.26Z" fill="black"/>
<path d="M105.08 85.85V86.1H102.06V85.85H102.8V84.74H103.1V85.85H103.62V84.74H103.92V85.85H105.07H105.08ZM104.42 83.81H102.37V83.56H104.72V83.93C104.72 84.35 104.72 84.79 104.6 85.42L104.3 85.38C104.42 84.78 104.42 84.34 104.42 83.93V83.81Z" fill="black"/>
<path d="M107.35 84.87C106.97 84.74 106.66 84.46 106.51 84.1C106.36 84.48 106.06 84.79 105.66 84.93L105.5 84.69C106 84.52 106.35 84.07 106.35 83.58V83.33H106.66V83.58C106.66 84.04 107.01 84.46 107.5 84.62L107.35 84.86V84.87ZM108.33 86.3V86.54H106.06V85.71H107.91V85.38H106.05V85.14H108.21V85.94H106.36V86.3H108.33ZM108.21 84.97H107.9V83.24H108.21V84.97Z" fill="black"/>
<path d="M87.77 27.3501C87.77 26.4701 88.29 25.9301 88.98 25.9301C89.31 25.9301 89.57 26.0901 89.73 26.2701L89.54 26.4901C89.4 26.3401 89.22 26.2301 88.98 26.2301C88.46 26.2301 88.12 26.65 88.12 27.34C88.12 28.03 88.45 28.4601 88.97 28.4601C89.23 28.4601 89.43 28.3401 89.6 28.1501L89.79 28.3701C89.57 28.6201 89.31 28.7601 88.95 28.7601C88.27 28.7601 87.76 28.2301 87.76 27.3501H87.77Z" fill="black"/>
<path d="M90.12 27.71C90.12 27.04 90.56 26.64 91.06 26.64C91.56 26.64 92 27.03 92 27.71C92 28.39 91.56 28.77 91.06 28.77C90.56 28.77 90.12 28.38 90.12 27.71ZM91.65 27.71C91.65 27.24 91.41 26.93 91.06 26.93C90.71 26.93 90.48 27.25 90.48 27.71C90.48 28.17 90.71 28.48 91.06 28.48C91.41 28.48 91.65 28.17 91.65 27.71Z" fill="black"/>
<path d="M92.53 26.69H92.81L92.84 26.98H92.85C93.04 26.79 93.25 26.64 93.53 26.64C93.95 26.64 94.15 26.92 94.15 27.43V28.71H93.81V27.47C93.81 27.09 93.69 26.93 93.43 26.93C93.22 26.93 93.08 27.03 92.88 27.24V28.71H92.54V26.69H92.53Z" fill="black"/>
<path d="M95.72 26.03C95.65 26 95.56 25.98 95.49 25.98C95.3 25.98 95.2 26.12 95.2 26.38V26.7H95.63V26.98H95.2V28.73H94.86V26.98H94.58V26.72L94.86 26.7V26.38C94.86 25.97 95.05 25.71 95.45 25.71C95.57 25.71 95.69 25.74 95.79 25.78L95.72 26.04V26.03Z" fill="black"/>
<path d="M95.82 27.71C95.82 27.05 96.26 26.64 96.73 26.64C97.24 26.64 97.53 27.01 97.53 27.59C97.53 27.66 97.53 27.73 97.51 27.78H96.15C96.17 28.21 96.44 28.49 96.82 28.49C97.02 28.49 97.18 28.43 97.33 28.33L97.45 28.55C97.27 28.67 97.06 28.76 96.78 28.76C96.24 28.76 95.81 28.37 95.81 27.7L95.82 27.71ZM97.24 27.55C97.24 27.14 97.05 26.92 96.74 26.92C96.45 26.92 96.2 27.15 96.16 27.55H97.24Z" fill="black"/>
<path d="M98.04 26.69H98.32L98.35 27.06H98.36C98.5 26.8 98.71 26.64 98.93 26.64C99.02 26.64 99.08 26.65 99.15 26.68L99.09 26.98C99.02 26.95 98.97 26.95 98.89 26.95C98.72 26.95 98.51 27.07 98.38 27.41V28.71H98.04V26.69Z" fill="black"/>
<path d="M99.29 27.71C99.29 27.05 99.73 26.64 100.2 26.64C100.71 26.64 101 27.01 101 27.59C101 27.66 101 27.73 100.99 27.78H99.63C99.65 28.21 99.92 28.49 100.3 28.49C100.5 28.49 100.66 28.43 100.81 28.33L100.93 28.55C100.75 28.67 100.54 28.76 100.26 28.76C99.72 28.76 99.29 28.37 99.29 27.7V27.71ZM100.71 27.55C100.71 27.14 100.52 26.92 100.21 26.92C99.92 26.92 99.67 27.15 99.63 27.55H100.71Z" fill="black"/>
<path d="M101.51 26.69H101.79L101.82 26.98H101.83C102.02 26.79 102.23 26.64 102.51 26.64C102.93 26.64 103.13 26.92 103.13 27.43V28.71H102.79V27.47C102.79 27.09 102.67 26.93 102.41 26.93C102.2 26.93 102.06 27.03 101.85 27.24V28.71H101.51V26.69Z" fill="black"/>
<path d="M103.63 27.71C103.63 27.04 104.09 26.64 104.61 26.64C104.87 26.64 105.06 26.75 105.2 26.88L105.03 27.11C104.91 27 104.79 26.93 104.62 26.93C104.26 26.93 103.99 27.25 103.99 27.71C103.99 28.17 104.24 28.48 104.62 28.48C104.81 28.48 104.97 28.39 105.1 28.28L105.25 28.51C105.07 28.67 104.84 28.77 104.6 28.77C104.06 28.77 103.65 28.38 103.65 27.71H103.63Z" fill="black"/>
<path d="M105.44 27.71C105.44 27.05 105.88 26.64 106.35 26.64C106.86 26.64 107.15 27.01 107.15 27.59C107.15 27.66 107.15 27.73 107.13 27.78H105.77C105.79 28.21 106.06 28.49 106.44 28.49C106.64 28.49 106.8 28.43 106.95 28.33L107.07 28.55C106.89 28.67 106.68 28.76 106.4 28.76C105.86 28.76 105.43 28.37 105.43 27.7L105.44 27.71ZM106.86 27.55C106.86 27.14 106.67 26.92 106.36 26.92C106.07 26.92 105.82 27.15 105.78 27.55H106.86Z" fill="black"/>
<path d="M94.34 30.64H94.69V31.78H95.96V30.64H96.3V33.37H95.96V32.08H94.69V33.37H94.34V30.64Z" fill="black"/>
<path d="M96.89 32.85C96.89 32.41 97.27 32.19 98.13 32.1C98.13 31.84 98.04 31.59 97.71 31.59C97.48 31.59 97.26 31.7 97.1 31.81L96.97 31.58C97.16 31.46 97.44 31.32 97.77 31.32C98.26 31.32 98.47 31.65 98.47 32.15V33.39H98.19L98.16 33.15H98.15C97.96 33.31 97.73 33.44 97.48 33.44C97.14 33.44 96.89 33.23 96.89 32.87V32.85ZM98.13 32.88V32.31C97.45 32.39 97.22 32.56 97.22 32.82C97.22 33.05 97.38 33.14 97.58 33.14C97.78 33.14 97.94 33.05 98.13 32.87V32.88Z" fill="black"/>
<path d="M99.12 32.97V30.41H99.46V32.99C99.46 33.09 99.5 33.14 99.56 33.14C99.58 33.14 99.59 33.14 99.63 33.14L99.68 33.4C99.68 33.4 99.57 33.43 99.48 33.43C99.23 33.43 99.12 33.27 99.12 32.98V32.97Z" fill="black"/>
<path d="M100.18 32.97V30.41H100.52V32.99C100.52 33.09 100.56 33.14 100.62 33.14C100.64 33.14 100.65 33.14 100.69 33.14L100.74 33.4C100.74 33.4 100.63 33.43 100.54 33.43C100.29 33.43 100.18 33.27 100.18 32.98V32.97Z" fill="black"/>
<path d="M134.09 7.14007H134.38V10.2401H134.09V9.14007H133.57C133.45 9.47007 133.24 9.67007 132.95 9.67007C132.52 9.67007 132.24 9.22007 132.24 8.50007C132.24 7.78007 132.52 7.34007 132.95 7.34007C133.24 7.34007 133.46 7.53007 133.57 7.87007H134.09V7.14007ZM133.39 8.51007C133.39 7.97007 133.22 7.63007 132.95 7.63007C132.68 7.63007 132.51 7.97007 132.51 8.51007C132.51 9.05007 132.68 9.39007 132.95 9.39007C133.22 9.39007 133.39 9.05007 133.39 8.51007ZM134.09 8.89007V8.12007H133.64C133.66 8.24007 133.67 8.36007 133.67 8.50007C133.67 8.64007 133.66 8.76007 133.64 8.88007H134.09V8.89007ZM135.04 7.07007V10.4101H134.75V7.07007H135.04Z" fill="black"/>
<path d="M137.43 8.75006C137.05 8.63006 136.76 8.37006 136.62 8.04006C136.48 8.40006 136.17 8.69006 135.78 8.83006L135.63 8.59006C136.12 8.42006 136.46 8.01006 136.46 7.57006V7.48006H135.72V7.23006H137.51V7.48006H136.77V7.57006C136.77 7.97006 137.1 8.36006 137.57 8.51006L137.42 8.75006H137.43ZM138.49 10.1201V10.3601H136.22V9.52006H138.06V9.19006H136.21V8.95006H138.36V9.75006H136.52V10.1101H138.49V10.1201ZM138.06 7.81006V7.06006H138.37V8.78006H138.06V8.05006H137.4V7.80006H138.06V7.81006Z" fill="black"/>
<path d="M143.11 9.68002V9.93002H140.09V9.68002H140.83V8.57001H141.13V9.68002H141.65V8.57001H141.95V9.68002H143.1H143.11ZM142.45 7.64001H140.4V7.39001H142.75V7.76001C142.75 8.18001 142.75 8.62002 142.63 9.25002L142.33 9.21001C142.45 8.61001 142.45 8.17001 142.45 7.76001V7.64001Z" fill="black"/>
<path d="M145.74 8.91V9.33001H146.16V10.39H145.85V9.57H143.84V9.32H144.3V8.90001H143.5V8.65001H146.52V8.90001H145.72L145.74 8.91ZM143.85 7.77C143.85 7.37 144.3 7.13 145.02 7.13C145.74 7.13 146.19 7.37 146.19 7.77C146.19 8.17 145.74 8.41 145.02 8.41C144.3 8.41 143.85 8.18 143.85 7.77ZM144.16 7.77C144.16 8.02 144.49 8.17 145.02 8.17C145.55 8.17 145.88 8.02 145.88 7.77C145.88 7.52 145.55 7.37 145.02 7.37C144.49 7.37 144.16 7.52 144.16 7.77ZM145.43 8.91H144.61V9.33001H145.43V8.91Z" fill="black"/>
<path d="M148.81 8.69006C148.43 8.56006 148.12 8.28006 147.97 7.92006C147.82 8.30006 147.52 8.61006 147.12 8.75006L146.96 8.51006C147.46 8.34006 147.81 7.89006 147.81 7.40006V7.15006H148.12V7.40006C148.12 7.86006 148.47 8.28006 148.96 8.44006L148.81 8.68006V8.69006ZM149.79 10.1201V10.3601H147.52V9.53006H149.37V9.20006H147.51V8.96006H149.67V9.76006H147.82V10.1201H149.79ZM149.67 8.79006H149.36V7.06006H149.67V8.79006Z" fill="black"/>
<path d="M119.94 24.2501C120.24 24.2401 120.55 24.2101 120.84 24.1701L120.86 24.4001C120.15 24.5301 119.36 24.5301 118.78 24.5301L118.74 24.2701C119.01 24.2701 119.32 24.2701 119.64 24.2601V23.9001C119.26 23.8501 119 23.6201 119 23.2901C119 22.9101 119.32 22.6701 119.79 22.6701C120.26 22.6701 120.58 22.9101 120.58 23.2901C120.58 23.6201 120.33 23.8501 119.94 23.9001V24.2501ZM120.78 22.4701H118.78V22.2301H119.63V21.8301H119.94V22.2301H120.78V22.4701ZM119.79 23.6601C120.09 23.6601 120.29 23.5101 120.29 23.2801C120.29 23.0501 120.09 22.9001 119.79 22.9001C119.49 22.9001 119.29 23.0501 119.29 23.2801C119.29 23.5101 119.49 23.6601 119.79 23.6601ZM121.86 23.4901H121.34V25.1501H121.03V21.8101H121.34V23.2301H121.86V23.4901Z" fill="black"/>
<path d="M123.99 23.6801C123.61 23.5601 123.32 23.2901 123.18 22.9601C123.04 23.3401 122.74 23.6401 122.34 23.7801L122.18 23.5401C122.68 23.3701 123.02 22.9301 123.02 22.4501V22.3201H122.27V22.0701H124.06V22.3201H123.32V22.4501C123.32 22.8901 123.64 23.2801 124.13 23.4401L123.98 23.6801H123.99ZM124.83 24.5401C124.83 24.9301 124.41 25.1601 123.73 25.1601C123.05 25.1601 122.63 24.9301 122.63 24.5401C122.63 24.1501 123.05 23.9301 123.73 23.9301C124.41 23.9301 124.83 24.1601 124.83 24.5401ZM124.52 24.5401C124.52 24.3101 124.22 24.1701 123.73 24.1701C123.24 24.1701 122.93 24.3101 122.93 24.5401C122.93 24.7701 123.23 24.9201 123.73 24.9201C124.23 24.9201 124.52 24.7801 124.52 24.5401ZM125.28 22.6701V22.9301H124.78V23.8501H124.47V21.8401H124.78V22.6801H125.28V22.6701Z" fill="black"/>
<path d="M127.49 23.4601C127.11 23.3301 126.8 23.0501 126.65 22.6901C126.5 23.0701 126.2 23.3801 125.8 23.5201L125.64 23.2801C126.14 23.1101 126.49 22.6601 126.49 22.1701V21.9201H126.8V22.1701C126.8 22.6301 127.15 23.0501 127.65 23.2101L127.5 23.4501L127.49 23.4601ZM128.47 24.8901V25.1301H126.2V24.3001H128.05V23.9701H126.19V23.7301H128.35V24.5301H126.5V24.8901H128.47ZM128.35 23.5601H128.04V21.8301H128.35V23.5601Z" fill="black"/>
<path d="M120.2 34.99C120.2 35.85 119.9 36.65 118.95 37.18L118.77 36.96C119.54 36.53 119.85 35.93 119.9 35.24H118.9V34.99H120.2ZM121.6 34.56V37.9H121.31V36.15H120.86V37.73H120.57V34.65H120.86V35.9H121.31V34.56H121.6Z" fill="black"/>
<path d="M125.22 36.69H123.85V37.9H123.54V36.69H122.19V36.44H125.21V36.69H125.22ZM124.95 36.08C124.43 35.99 123.93 35.7 123.71 35.3C123.5 35.71 123 35.99 122.48 36.08L122.36 35.83C122.97 35.74 123.56 35.34 123.56 34.86V34.67H123.88V34.86C123.88 35.32 124.48 35.74 125.08 35.83L124.95 36.08Z" fill="black"/>
<path d="M126.05 36.82C126.5 36.82 126.81 36.8 127.18 36.72L127.21 36.97C126.81 37.05 126.47 37.07 125.97 37.07H125.75V34.96H126.99V35.21H126.05V36.82ZM128.47 34.56V37.9H128.18V36.15H127.71V37.73H127.42V34.63H127.71V35.9H128.18V34.56H128.47Z" fill="black"/>
<path d="M128.17 81.32L128.34 81.1C128.5 81.27 128.71 81.41 129.02 81.41C129.33 81.41 129.57 81.22 129.57 80.9C129.57 80.58 129.35 80.35 128.72 80.35V80.09C129.28 80.09 129.48 79.86 129.48 79.57C129.48 79.31 129.3 79.14 129.02 79.13C128.8 79.13 128.61 79.25 128.45 79.4L128.27 79.18C128.47 78.99 128.72 78.85 129.03 78.85C129.49 78.85 129.82 79.1 129.82 79.54C129.82 79.87 129.62 80.09 129.33 80.2V80.22C129.65 80.29 129.91 80.54 129.91 80.91C129.91 81.4 129.52 81.69 129.03 81.69C128.6 81.69 128.33 81.51 128.15 81.32H128.17Z" fill="black"/>
<path d="M130.3 80.47H131.25V80.73H130.3V80.47Z" fill="black"/>
<path d="M131.59 81.44C132.45 80.69 132.84 80.15 132.84 79.68C132.84 79.37 132.68 79.14 132.34 79.14C132.12 79.14 131.92 79.28 131.77 79.46L131.57 79.27C131.79 79.03 132.03 78.87 132.37 78.87C132.86 78.87 133.16 79.19 133.16 79.68C133.16 80.22 132.73 80.78 132.09 81.39C132.23 81.38 132.4 81.36 132.54 81.36H133.3V81.65H131.58V81.45L131.59 81.44Z" fill="black"/>
<path d="M130.57 85.85V86.1H127.55V85.85H128.29V84.74H128.59V85.85H129.11V84.74H129.41V85.85H130.56H130.57ZM129.91 83.81H127.86V83.56H130.21V83.93C130.21 84.35 130.21 84.79 130.09 85.42L129.79 85.38C129.91 84.78 129.91 84.34 129.91 83.93V83.81Z" fill="black"/>
<path d="M132.84 84.87C132.46 84.74 132.15 84.46 132 84.1C131.85 84.48 131.55 84.79 131.15 84.93L130.99 84.69C131.49 84.52 131.84 84.07 131.84 83.58V83.33H132.15V83.58C132.15 84.04 132.5 84.46 132.99 84.62L132.84 84.86V84.87ZM133.82 86.3V86.54H131.55V85.71H133.4V85.38H131.54V85.14H133.7V85.94H131.85V86.3H133.82ZM133.7 84.97H133.39V83.24H133.7V84.97Z" fill="black"/>
<path d="M153.66 81.32L153.83 81.1C153.99 81.27 154.2 81.41 154.51 81.41C154.82 81.41 155.06 81.22 155.06 80.9C155.06 80.58 154.84 80.35 154.21 80.35V80.09C154.77 80.09 154.97 79.86 154.97 79.57C154.97 79.31 154.79 79.14 154.51 79.13C154.29 79.13 154.1 79.25 153.94 79.4L153.76 79.18C153.96 78.99 154.21 78.85 154.52 78.85C154.98 78.85 155.31 79.1 155.31 79.54C155.31 79.87 155.11 80.09 154.82 80.2V80.22C155.14 80.29 155.4 80.54 155.4 80.91C155.4 81.4 155.01 81.69 154.52 81.69C154.09 81.69 153.82 81.51 153.64 81.32H153.66Z" fill="black"/>
<path d="M155.79 80.47H156.74V80.73H155.79V80.47Z" fill="black"/>
<path d="M157.02 81.32L157.19 81.1C157.35 81.27 157.56 81.41 157.87 81.41C158.18 81.41 158.42 81.22 158.42 80.9C158.42 80.58 158.2 80.35 157.57 80.35V80.09C158.13 80.09 158.33 79.86 158.33 79.57C158.33 79.31 158.15 79.14 157.87 79.13C157.65 79.13 157.46 79.25 157.3 79.4L157.12 79.18C157.32 78.99 157.57 78.85 157.88 78.85C158.34 78.85 158.67 79.1 158.67 79.54C158.67 79.87 158.47 80.09 158.18 80.2V80.22C158.5 80.29 158.76 80.54 158.76 80.91C158.76 81.4 158.37 81.69 157.88 81.69C157.45 81.69 157.18 81.51 157 81.32H157.02Z" fill="black"/>
<path d="M156.06 85.85V86.1H153.04V85.85H153.78V84.74H154.08V85.85H154.6V84.74H154.9V85.85H156.05H156.06ZM155.4 83.81H153.35V83.56H155.7V83.93C155.7 84.35 155.7 84.79 155.58 85.42L155.28 85.38C155.4 84.78 155.4 84.34 155.4 83.93V83.81Z" fill="black"/>
<path d="M158.33 84.87C157.95 84.74 157.64 84.46 157.49 84.1C157.34 84.48 157.04 84.79 156.64 84.93L156.48 84.69C156.98 84.52 157.33 84.07 157.33 83.58V83.33H157.64V83.58C157.64 84.04 157.99 84.46 158.48 84.62L158.33 84.86V84.87ZM159.31 86.3V86.54H157.04V85.71H158.89V85.38H157.03V85.14H159.19V85.94H157.34V86.3H159.31ZM159.19 84.97H158.88V83.24H159.19V84.97Z" fill="black"/>
</svg>
